<svg xmlns="http://www.w3.org/2000/svg" xmlns:xlink="http://www.w3.org/1999/xlink" width="500" zoomAndPan="magnify" viewBox="0 0 375 374.999991" height="500" preserveAspectRatio="xMidYMid meet" version="1.0"><defs><clipPath id="b8c689864a"><path d="M 42.980469 68.230469 L 332 68.230469 L 332 306.769531 L 42.980469 306.769531 Z M 42.980469 68.230469 " clip-rule="nonzero"/></clipPath><clipPath id="99b3df6a88"><path d="M 60.230469 68.230469 L 314.769531 68.230469 C 319.34375 68.230469 323.730469 70.046875 326.964844 73.28125 C 330.203125 76.515625 332.019531 80.902344 332.019531 85.480469 L 332.019531 289.519531 C 332.019531 294.097656 330.203125 298.484375 326.964844 301.71875 C 323.730469 304.953125 319.34375 306.769531 314.769531 306.769531 L 60.230469 306.769531 C 55.65625 306.769531 51.269531 304.953125 48.035156 301.71875 C 44.796875 298.484375 42.980469 294.097656 42.980469 289.519531 L 42.980469 85.480469 C 42.980469 80.902344 44.796875 76.515625 48.035156 73.28125 C 51.269531 70.046875 55.65625 68.230469 60.230469 68.230469 Z M 60.230469 68.230469 " clip-rule="nonzero"/></clipPath><clipPath id="68532f0043"><path d="M 70.3125 204 L 118 204 L 118 248.1875 L 70.3125 248.1875 Z M 70.3125 204 " clip-rule="nonzero"/></clipPath><clipPath id="e946a9091e"><path d="M 70.3125 203 L 119 203 L 119 248.1875 L 70.3125 248.1875 Z M 70.3125 203 " clip-rule="nonzero"/></clipPath><clipPath id="42bdb46413"><path d="M 257 117.105469 L 304.6875 117.105469 L 304.6875 186 L 257 186 Z M 257 117.105469 " clip-rule="nonzero"/></clipPath><clipPath id="b416f9f72e"><path d="M 256 117.105469 L 304.6875 117.105469 L 304.6875 187 L 256 187 Z M 256 117.105469 " clip-rule="nonzero"/></clipPath></defs><g clip-path="url(#b8c689864a)"><g clip-path="url(#99b3df6a88)"><path fill="#8c52ff" d="M 42.980469 68.230469 L 331.839844 68.230469 L 331.839844 306.769531 L 42.980469 306.769531 Z M 42.980469 68.230469 " fill-opacity="1" fill-rule="nonzero"/></g></g><path fill="#ffffff" d="M 70.3125 272.460938 L 70.3125 248.1875 L 117.1875 204.492188 L 117.1875 272.460938 Z M 70.3125 272.460938 " fill-opacity="1" fill-rule="nonzero"/><path fill="#ffffff" d="M 117.1875 272.460938 L 117.1875 204.492188 L 164.0625 223.910156 L 164.0625 272.460938 Z M 117.1875 272.460938 " fill-opacity="1" fill-rule="nonzero"/><path fill="#ffffff" d="M 164.0625 272.460938 L 164.0625 223.910156 L 210.9375 175.363281 L 210.9375 272.460938 Z M 164.0625 272.460938 " fill-opacity="1" fill-rule="nonzero"/><path fill="#ffffff" d="M 210.9375 272.460938 L 210.9375 175.363281 L 257.8125 185.074219 L 257.8125 272.460938 Z M 210.9375 272.460938 " fill-opacity="1" fill-rule="nonzero"/><path fill="#ffffff" d="M 257.8125 272.460938 L 257.8125 185.074219 L 304.6875 117.105469 L 304.6875 272.460938 Z M 257.8125 272.460938 " fill-opacity="1" fill-rule="nonzero"/><g clip-path="url(#68532f0043)"><path fill="#000000" d="M 70.3125 248.1875 L 117.1875 204.492188 " fill-opacity="1" fill-rule="nonzero"/></g><g clip-path="url(#e946a9091e)"><path stroke-linecap="round" transform="matrix(0.75, 0, 0, 0.75, 46.875001, 102.540075)" fill="none" stroke-linejoin="round" d="M 31.25 194.19658 L 93.750004 135.936159 " stroke="#ffffff" stroke-width="3" stroke-opacity="1" stroke-miterlimit="4"/></g><path stroke-linecap="round" transform="matrix(0.75, 0, 0, 0.75, 46.875001, 102.540075)" fill-opacity="1" fill="#000000" fill-rule="nonzero" stroke-linejoin="round" d="M 93.750004 135.936159 L 156.250008 161.826786 " stroke="#ffffff" stroke-width="3" stroke-opacity="1" stroke-miterlimit="4"/><path stroke-linecap="round" transform="matrix(0.75, 0, 0, 0.75, 46.875001, 102.540075)" fill-opacity="1" fill="#000000" fill-rule="nonzero" stroke-linejoin="round" d="M 156.250008 161.826786 L 218.750012 97.097615 " stroke="#ffffff" stroke-width="3" stroke-opacity="1" stroke-miterlimit="4"/><path stroke-linecap="round" transform="matrix(0.75, 0, 0, 0.75, 46.875001, 102.540075)" fill-opacity="1" fill="#000000" fill-rule="nonzero" stroke-linejoin="round" d="M 218.750012 97.097615 L 281.250017 110.045532 " stroke="#ffffff" stroke-width="3" stroke-opacity="1" stroke-miterlimit="4"/><g clip-path="url(#42bdb46413)"><path fill="#000000" d="M 257.8125 185.074219 L 304.6875 117.105469 " fill-opacity="1" fill-rule="nonzero"/></g><g clip-path="url(#b416f9f72e)"><path stroke-linecap="round" transform="matrix(0.75, 0, 0, 0.75, 46.875001, 102.540075)" fill="none" stroke-linejoin="round" d="M 281.250017 110.045532 L 343.750021 19.420526 " stroke="#ffffff" stroke-width="3" stroke-opacity="1" stroke-miterlimit="4"/></g></svg>