<svg xmlns="http://www.w3.org/2000/svg" width="500" viewBox="0 0 375 375" height="500" version="1.0"><defs><clipPath id="prefix__d"><path d="M1 1.055h84.691v78.75H1zm0 0"/></clipPath><clipPath id="prefix__c"><path d="M0 0h86v80H0z"/></clipPath><clipPath id="prefix__g"><path d="M1 .219h84.691v78.75H1zm0 0"/></clipPath><clipPath id="prefix__f"><path d="M0 0h86v80H0z"/></clipPath><clipPath id="prefix__j"><path d="M.277.219H85v78.75H.277zm0 0"/></clipPath><clipPath id="prefix__i"><path d="M0 0h86v80H0z"/></clipPath><clipPath id="prefix__m"><path d="M1 .379h84.691v78.75H1zm0 0"/></clipPath><clipPath id="prefix__l"><path d="M0 0h86v80H0z"/></clipPath><clipPath id="prefix__p"><path d="M.277.379H85v78.75H.277zm0 0"/></clipPath><clipPath id="prefix__o"><path d="M0 0h86v80H0z"/></clipPath><clipPath id="prefix__s"><path d="M1 .379h84.684v78.75H1zm0 0"/></clipPath><clipPath id="prefix__r"><path d="M0 0h86v80H0z"/></clipPath><clipPath id="prefix__t"><path d="M290 291.543h84.691v78.75H290zm0 0"/></clipPath><clipPath id="prefix__w"><path d="M.277.543H85v78.75H.277zm0 0"/></clipPath><clipPath id="prefix__v"><path d="M0 0h86v80H0z"/></clipPath><clipPath id="prefix__z"><path d="M1 .543h84.684v78.75H1zm0 0"/></clipPath><clipPath id="prefix__y"><path d="M0 0h86v80H0z"/></clipPath><clipPath id="prefix__C"><path d="M.59.543h84.75v78.75H.59zm0 0"/></clipPath><clipPath id="prefix__B"><path d="M0 0h86v80H0z"/></clipPath><mask id="prefix__b"><g filter="url(#prefix__a)"><path fill-opacity=".5" d="M-37.5-37.5h450v450h-450z"/></g></mask><mask id="prefix__e"><g filter="url(#prefix__a)"><path fill-opacity=".65" d="M-37.5-37.5h450v450h-450z"/></g></mask><mask id="prefix__h"><g filter="url(#prefix__a)"><path fill-opacity=".5" d="M-37.5-37.5h450v450h-450z"/></g></mask><mask id="prefix__k"><g filter="url(#prefix__a)"><path fill-opacity=".85" d="M-37.5-37.5h450v450h-450z"/></g></mask><mask id="prefix__n"><g filter="url(#prefix__a)"><path fill-opacity=".65" d="M-37.5-37.5h450v450h-450z"/></g></mask><mask id="prefix__q"><g filter="url(#prefix__a)"><path fill-opacity=".5" d="M-37.5-37.5h450v450h-450z"/></g></mask><mask id="prefix__u"><g filter="url(#prefix__a)"><path fill-opacity=".85" d="M-37.5-37.5h450v450h-450z"/></g></mask><mask id="prefix__x"><g filter="url(#prefix__a)"><path fill-opacity=".65" d="M-37.5-37.5h450v450h-450z"/></g></mask><mask id="prefix__A"><g filter="url(#prefix__a)"><path fill-opacity=".5" d="M-37.5-37.5h450v450h-450z"/></g></mask><filter x="0%" y="0%" width="100%" height="100%" id="prefix__a"><feColorMatrix values="0 0 0 0 1 0 0 0 0 1 0 0 0 0 1 0 0 0 1 0" color-interpolation-filters="sRGB"/></filter></defs><g mask="url(#prefix__b)"><g clip-path="url(#prefix__c)" transform="translate(289 2)"><g clip-path="url(#prefix__d)"><path fill="#231f20" d="M33.207 79.777c-3.96 0-7.934-.246-11.883-.746-2.094-.265-4.207-.66-6.172-1.523-2.453-.754-4.714-2.125-6.586-4.617-3.171-4.235-4.097-10.34-4.84-16.758-.363-3.125-.734-6.309-1-9.5-.019-.094-.03-.18-.05-.278-1.16-6.351-1.36-12.84-1.551-19.109-.203-6.648-.16-12.969 2.664-17.191 2.559-3.84 6.691-4.692 10.707-5.235 3.461-.468 6.934-.906 10.426-1.289a97.102 97.102 0 0122.7-1.969c.401-.019.792-.03 1.198-.039 3.047-.171 6.094-.308 9.145-.418 2.972-.093 5.883-.074 8.558 1.075 5.383.277 11.196 1.492 14.633 7.43 2.531 4.37 2.965 10.05 3.211 15.98l.688 16.82c.382 3.02.605 6.063.554 9.117a39.168 39.168 0 01-.222 3.575c-.098 2.628-.426 5.265-1.246 7.597-.477 3.809-1.75 7.364-4.457 10.414a.522.522 0 01-.754.043.522.522 0 01-.043-.754c1.625-1.84 2.695-3.87 3.386-6.066 0 0-.011.023-.02.035-.85 1.617-1.87 3.063-3.1 4.242-.587 1.45-1.31 2.778-2.243 3.895-3.367 4.055-8.23 4.344-13.36 4.3l-15.78-.148a95.647 95.647 0 01-14.575 1.117zm-6.871-1.312c3.992.289 7.996.332 11.98.11zm26.953-.809l10.281.098c4.844.031 9.473-.223 12.532-3.914.449-.535.84-1.117 1.191-1.758-2.836 1.79-6.098 2.074-8.984 2.332-1.532.137-3.059.266-4.59.383a95.299 95.299 0 01-10.43 2.86zm-37.922-1.199c2.399.766 5 .89 7.551.914l24.777.234a95.596 95.596 0 0011.13-2.414 92.782 92.782 0 01-8.903.575c-8.57.52-17.172.882-25.711 1.082-4.64.109-9.484-.114-13.188-4.149-.16-.168-.32-.351-.468-.531.203.328.414.637.648.937 1.211 1.594 2.645 2.637 4.164 3.352zM7.824 64.285c.895 3.02 2.137 5.703 3.973 7.692 3.41 3.703 7.797 3.914 12.383 3.808 4.812-.117 9.644-.277 14.476-.488a101 101 0 01-11.418-1.832c-5.968-1.309-12.734-3.5-17.652-9.82a26.636 26.636 0 01-2.344-3.594c.149 1.433.328 2.87.582 4.242zm-.84-7.152c.926 2.066 2.063 4.066 3.454 5.851 4.703 6.055 11.257 8.172 17.035 9.438A97.6 97.6 0 0049.89 74.71c3.082-.191 6.16-.395 9.242-.617a91.342 91.342 0 006.043-.914 97.955 97.955 0 005.383-2.118.53.53 0 01.703.278c.074.168.05.36-.043.508 2.633-.692 5.34-1.668 7.601-3.414.883-2.895 1.266-6.043 1.489-8.555 1.242-13.957-.47-29.098-4.801-42.621-.996-3.117-2.496-7.215-4.77-10.258-2.633-1.574-5.586-2.309-8.496-2.828-2.547-.45-5.086-.809-7.637-1.067-8.93.141-17.828.864-26.625 2.16-1.316.301-2.632.618-3.937.97-5.727 1.511-11.547 3.683-15.41 9.234-.328.469-.63.957-.914 1.449-1.551 4.55-1.7 10.117-1.7 15.086 0 8.32.34 16.789 1 25.152zm70.871 13.215c-2.242 1.332-4.746 2.117-7.16 2.715-.105.019-.199.05-.304.074 2.218-.266 4.523-.754 6.52-2.075.327-.214.636-.457.944-.714zM4.5 53.645c.086.789.18 1.585.277 2.363.711 6.148 1.582 12.012 4.47 16.023-1.2-2.183-1.954-4.77-2.454-7.511-.89-3.024-1.434-6.352-1.867-9.66-.149-.407-.285-.82-.426-1.227zm68.629-44.88c1.508 2.704 2.59 5.715 3.367 8.141 4.387 13.66 6.106 28.942 4.852 43.047-.192 2.117-.489 4.66-1.094 7.16.394-.414.766-.851 1.117-1.328.742-1.426 1.371-3.043 1.86-4.808.296-4.5-.407-9.344-1.094-14.11-.66-4.531-1.34-9.222-1.16-13.566.074-1.871.14-3.766.14-5.637-.055-.246-.11-.48-.172-.727-1.242-5.457-2.804-12.246-6.351-16.597a13.412 13.412 0 00-1.477-1.563zm8.965 23.239c-.012.445-.031.883-.055 1.328-.18 4.246.488 8.887 1.148 13.375.434 2.992.872 6.012 1.07 8.969.024-.168.044-.328.055-.5.094-2.403 0-4.828-.097-7.012l-.23-5.68c-.458-3.523-1.137-7.035-1.891-10.492zM3.727 30.313c.37 6.777.964 13.585 1.75 20.351-.36-6.242-.551-12.5-.551-18.68 0-3.195.062-6.62.508-9.906-.88 2.742-1.41 5.594-1.707 8.235zm.043 16.183c.105.586.23 1.191.37 1.816a330.096 330.096 0 01-.722-7.382c.074 1.851.203 3.715.352 5.574zm78.406-18.96c.5 2.202 1.011 4.425 1.469 6.671l-.352-8.566c-.234-5.79-.648-11.32-3.059-15.493-2.441-4.234-6.254-5.882-10.207-6.53.215.085.414.179.63.265 3.64 1.648 6.679 4.555 8.558 8.183 2.347 4.532 2.941 9.957 2.96 15.47zM17.828 5.436c-1.062.137-2.133.278-3.195.426-3.93.532-7.656 1.309-9.973 4.778-2.633 3.957-2.664 10.363-2.476 16.574.066 2.012.128 4.043.226 6.086.05-.957.137-1.969.254-3.012-.074-1.316-.14-2.637-.191-3.957-.203-4.746-.246-10.129 1.867-13.863 2.156-3.82 5.875-4.914 9.484-5.711l1.946-.418c.68-.328 1.37-.625 2.07-.89zm-4.98 2.63C9.875 8.8 6.977 9.948 5.266 12.98c-1.829 3.235-1.934 7.938-1.774 12.258.668-3.023 1.688-6.086 3.227-8.789.215-.605.449-1.203.715-1.765 1.347-2.926 3.238-5.055 5.414-6.618zM71.43 6.16a15.537 15.537 0 013.992 3.5c2.7 3.309 4.27 7.875 5.418 12.246-.352-3.363-1.106-6.554-2.57-9.363-1.743-3.36-4.547-6.063-7.891-7.629.36.383.71.8 1.039 1.234zM16.14 7.34c-1.953.969-3.78 2.246-5.3 3.992 2.254-2.012 4.812-3.395 7.488-4.437a86.8 86.8 0 00-2.187.445zm46.317-4.235c2.09.375 4.227.864 6.242 1.684a2.45 2.45 0 00-.265-.215c-.34-.277-.68-.511-1.028-.734a26.496 26.496 0 00-3.472-.692c-.5-.007-1-.03-1.489-.043zm-37.363 1.47c-.266.054-.52.105-.785.171.52-.086 1.027-.172 1.55-.258-.257.035-.511.055-.777.086zm0 0"/></g></g></g><g mask="url(#prefix__e)"><g clip-path="url(#prefix__f)" transform="translate(289 99)"><g clip-path="url(#prefix__g)"><path fill="#231f20" d="M33.207 78.938c-3.96 0-7.934-.247-11.883-.747-2.094-.265-4.207-.656-6.172-1.52-2.453-.753-4.714-2.128-6.586-4.616C5.395 67.82 4.47 61.71 3.726 55.297c-.363-3.129-.734-6.309-1-9.5-.019-.098-.03-.184-.05-.277-1.16-6.352-1.36-12.844-1.551-19.11C.922 19.762.965 13.441 3.789 9.22 6.348 5.375 10.48 4.523 14.496 3.98c3.461-.464 6.934-.902 10.426-1.285a97.102 97.102 0 0122.7-1.968c.401-.02.792-.032 1.198-.043C51.867.516 54.914.375 57.965.27c2.972-.098 5.883-.075 8.558 1.074 5.383.277 11.196 1.488 14.633 7.426 2.531 4.375 2.965 10.054 3.211 15.98l.688 16.82c.382 3.024.605 6.067.554 9.121a39.168 39.168 0 01-.222 3.575c-.098 2.629-.426 5.265-1.246 7.597-.477 3.809-1.75 7.36-4.457 10.414a.525.525 0 01-.754.043.522.522 0 01-.043-.754c1.625-1.843 2.695-3.875 3.386-6.066 0 0-.011.02-.02.031-.85 1.617-1.87 3.067-3.1 4.246-.587 1.446-1.31 2.778-2.243 3.895-3.367 4.055-8.23 4.34-13.36 4.297l-15.78-.149a95.151 95.151 0 01-14.575 1.118zm-6.871-1.31c3.992.29 7.996.333 11.98.106zm26.953-.808l10.281.098c4.844.031 9.473-.227 12.532-3.918.449-.531.84-1.117 1.191-1.754-2.836 1.785-6.098 2.074-8.984 2.328-1.532.14-3.059.266-4.59.383a94.45 94.45 0 01-10.43 2.863zm-37.922-1.203c2.399.766 5 .895 7.551.918l24.777.23a94.798 94.798 0 0011.13-2.413 91.536 91.536 0 01-8.903.574c-8.57.523-17.172.883-25.711 1.086-4.64.105-9.484-.117-13.188-4.149a11.99 11.99 0 01-.468-.531c.203.328.414.637.648.934a10.916 10.916 0 004.164 3.351zM7.824 63.445c.895 3.024 2.137 5.703 3.973 7.696 3.41 3.699 7.797 3.914 12.383 3.808a721.5 721.5 0 0014.476-.492c-3.8-.383-7.605-1-11.418-1.828-5.968-1.309-12.734-3.5-17.652-9.82a26.677 26.677 0 01-2.344-3.598c.149 1.437.328 2.875.582 4.246zm-.84-7.148c.926 2.062 2.063 4.062 3.454 5.851 4.703 6.055 11.257 8.172 17.035 9.438a97.817 97.817 0 0022.418 2.289c3.082-.191 6.16-.395 9.242-.617a88.849 88.849 0 006.043-.918 94.926 94.926 0 005.383-2.117.53.53 0 01.703.277.55.55 0 01-.043.512c2.633-.692 5.34-1.672 7.601-3.414.883-2.895 1.266-6.043 1.489-8.555 1.242-13.961-.47-29.102-4.801-42.621-.996-3.121-2.496-7.215-4.77-10.258-2.633-1.574-5.586-2.309-8.496-2.832a104.266 104.266 0 00-7.637-1.062c-8.93.136-17.828.863-26.625 2.16a98.048 98.048 0 00-3.937.968c-5.727 1.508-11.547 3.68-15.41 9.235-.328.469-.63.957-.914 1.445-1.551 4.555-1.7 10.121-1.7 15.09 0 8.32.34 16.789 1 25.148zm70.871 13.215c-2.242 1.328-4.746 2.117-7.16 2.71-.105.024-.199.055-.304.079 2.218-.27 4.523-.758 6.52-2.078.327-.211.636-.457.944-.711zM4.5 52.809c.086.785.18 1.582.277 2.359.711 6.152 1.582 12.012 4.47 16.023-1.2-2.18-1.954-4.765-2.454-7.511-.89-3.02-1.434-6.352-1.867-9.66-.149-.403-.285-.82-.426-1.223zm68.629-44.88c1.508 2.704 2.59 5.716 3.367 8.141 4.387 13.66 6.106 28.938 4.852 43.047-.192 2.117-.489 4.66-1.094 7.16a13.34 13.34 0 001.117-1.332c.742-1.425 1.371-3.043 1.86-4.808.296-4.5-.407-9.34-1.094-14.106-.66-4.535-1.34-9.226-1.16-13.566.074-1.871.14-3.766.14-5.64-.055-.243-.11-.477-.172-.723-1.242-5.457-2.804-12.247-6.351-16.598a13.413 13.413 0 00-1.477-1.563zm8.965 23.239c-.012.445-.031.883-.055 1.328-.18 4.246.488 8.883 1.148 13.375.434 2.988.872 6.012 1.07 8.969.024-.172.044-.332.055-.5.094-2.406 0-4.832-.097-7.012l-.23-5.683c-.458-3.52-1.137-7.032-1.891-10.489zM3.727 29.477c.37 6.777.964 13.585 1.75 20.351-.36-6.246-.551-12.5-.551-18.683 0-3.192.062-6.618.508-9.907-.88 2.746-1.41 5.598-1.707 8.239zm.043 16.18c.105.585.23 1.19.37 1.82a330.096 330.096 0 01-.722-7.383c.074 1.851.203 3.71.352 5.574zm78.406-18.958c.5 2.2 1.011 4.426 1.469 6.668l-.352-8.562c-.234-5.79-.648-11.32-3.059-15.492C77.793 5.077 73.98 3.43 70.027 2.78c.215.082.414.18.63.266 3.64 1.648 6.679 4.555 8.558 8.18 2.347 4.535 2.941 9.96 2.96 15.472zM17.828 4.598c-1.062.14-2.133.277-3.195.425-3.93.536-7.656 1.309-9.973 4.778-2.633 3.96-2.664 10.363-2.476 16.578.066 2.012.128 4.043.226 6.086.05-.957.137-1.969.254-3.012-.074-1.32-.14-2.637-.191-3.957-.203-4.746-.246-10.129 1.867-13.863 2.156-3.82 5.875-4.918 9.484-5.715.649-.137 1.297-.277 1.946-.414.68-.328 1.37-.629 2.07-.895zm-4.98 2.629c-2.973.734-5.871 1.882-7.582 4.918-1.829 3.234-1.934 7.933-1.774 12.253.668-3.02 1.688-6.085 3.227-8.789.215-.605.449-1.199.715-1.765 1.347-2.926 3.238-5.051 5.414-6.617zM71.43 5.324a15.463 15.463 0 013.992 3.5c2.7 3.309 4.27 7.871 5.418 12.246-.352-3.363-1.106-6.554-2.57-9.363-1.743-3.363-4.547-6.066-7.891-7.629.36.383.71.797 1.039 1.234zm-55.29 1.18c-1.953.969-3.78 2.246-5.3 3.988 2.254-2.008 4.812-3.39 7.488-4.433-.734.136-1.453.285-2.187.445zM62.458 2.27c2.09.37 4.227.863 6.242 1.68a2.033 2.033 0 00-.265-.212c-.34-.277-.68-.511-1.028-.734a25.87 25.87 0 00-3.472-.692c-.5-.011-1-.03-1.489-.042zM25.094 3.738c-.266.051-.52.106-.785.168.52-.082 1.027-.168 1.55-.254-.257.032-.511.055-.777.086zm0 0"/></g></g></g><g mask="url(#prefix__h)"><g clip-path="url(#prefix__i)" transform="translate(194 99)"><g clip-path="url(#prefix__j)"><path fill="#231f20" d="M32.543 78.938c-3.965 0-7.934-.247-11.887-.747-2.09-.265-4.203-.656-6.168-1.52-2.453-.753-4.718-2.128-6.586-4.616C4.727 67.82 3.805 61.71 3.06 55.297c-.36-3.129-.73-6.309-.997-9.5-.023-.098-.035-.184-.054-.277C.852 39.168.648 32.676.457 26.41.254 19.762.297 13.441 3.121 9.22 5.684 5.375 9.812 4.523 13.828 3.98c3.461-.464 6.934-.902 10.43-1.285A97.07 97.07 0 0146.953.727c.402-.02.797-.032 1.2-.043A447.37 447.37 0 0157.296.27C60.27.172 63.18.195 65.855 1.344c5.387.277 11.196 1.488 14.637 7.426 2.528 4.375 2.961 10.054 3.207 15.98l.692 16.82c.382 3.024.605 6.067.55 9.121a37.819 37.819 0 01-.222 3.575c-.094 2.629-.426 5.265-1.242 7.597-.477 3.809-1.754 7.36-4.461 10.414a.525.525 0 01-.754.043.525.525 0 01-.043-.754c1.625-1.843 2.699-3.875 3.386-6.066 0 0-.007.02-.02.031-.85 1.617-1.87 3.067-3.1 4.246-.583 1.446-1.305 2.778-2.243 3.895-3.363 4.055-8.23 4.34-13.36 4.297l-15.78-.149a95.139 95.139 0 01-14.57 1.118zm-6.871-1.31c3.992.29 7.996.333 11.976.106zm26.953-.808l10.281.098c4.84.031 9.473-.227 12.532-3.918.445-.531.84-1.117 1.187-1.754-2.836 1.785-6.094 2.074-8.984 2.328-1.528.14-3.059.266-4.586.383a94.924 94.924 0 01-10.43 2.863zm-37.926-1.203c2.399.766 5.004.895 7.551.918l24.777.23a94.627 94.627 0 0011.13-2.413 91.535 91.535 0 01-8.9.574c-8.57.523-17.171.883-25.71 1.086-4.64.105-9.485-.117-13.192-4.149a11.99 11.99 0 01-.468-.531c.203.328.414.637.648.934a10.916 10.916 0 004.164 3.351zM7.16 63.445c.89 3.024 2.133 5.703 3.969 7.696 3.41 3.699 7.797 3.914 12.387 3.808 4.808-.117 9.64-.277 14.472-.492-3.8-.383-7.601-1-11.414-1.828-5.969-1.309-12.734-3.5-17.652-9.82a26.703 26.703 0 01-2.348-3.598c.149 1.437.328 2.875.586 4.246zm-.84-7.148c.922 2.062 2.059 4.062 3.45 5.851 4.707 6.055 11.257 8.172 17.035 9.438a97.85 97.85 0 0022.422 2.289c3.078-.191 6.16-.395 9.238-.617a88.48 88.48 0 006.043-.918 95.045 95.045 0 005.387-2.117.527.527 0 01.699.277.54.54 0 01-.043.512c2.633-.692 5.344-1.672 7.605-3.414.88-2.895 1.262-6.043 1.485-8.555 1.246-13.961-.465-29.102-4.797-42.621-1-3.121-2.496-7.215-4.77-10.258-2.633-1.574-5.586-2.309-8.496-2.832a104.86 104.86 0 00-7.637-1.062c-8.933.136-17.832.863-26.625 2.16a99.897 99.897 0 00-3.941.968c-5.723 1.508-11.543 3.68-15.41 9.235-.328.469-.625.957-.914 1.445-1.547 4.555-1.7 10.121-1.7 15.09 0 8.32.34 16.789 1 25.148zm70.867 13.215c-2.238 1.328-4.746 2.117-7.156 2.71-.105.024-.203.055-.308.079 2.218-.27 4.523-.758 6.52-2.078.331-.211.64-.457.945-.711zM3.837 52.809c.082.785.18 1.582.273 2.359.715 6.152 1.582 12.012 4.473 16.023-1.2-2.18-1.953-4.765-2.453-7.511-.89-3.02-1.434-6.352-1.871-9.66-.149-.403-.285-.82-.422-1.223zm68.629-44.88c1.508 2.704 2.59 5.716 3.363 8.141 4.387 13.66 6.11 28.938 4.856 43.047-.192 2.117-.489 4.66-1.094 7.16.39-.414.765-.851 1.113-1.332.746-1.425 1.371-3.043 1.86-4.808.296-4.5-.403-9.34-1.094-14.106-.66-4.535-1.34-9.226-1.156-13.566.074-1.871.136-3.766.136-5.64-.054-.243-.105-.477-.168-.723-1.246-5.457-2.804-12.247-6.351-16.598a14.106 14.106 0 00-1.477-1.563zm8.96 23.239c-.01.445-.03.883-.05 1.328-.184 4.246.488 8.883 1.145 13.375.437 2.988.87 6.012 1.074 8.969.02-.172.043-.332.05-.5.098-2.406 0-4.832-.093-7.012l-.235-5.683c-.457-3.52-1.136-7.032-1.89-10.489zM3.06 29.477c.37 6.777.968 13.585 1.753 20.351-.363-6.246-.554-12.5-.554-18.683 0-3.192.066-6.618.512-9.907-.883 2.746-1.415 5.598-1.711 8.239zm.043 16.18c.105.585.234 1.19.37 1.82a354.93 354.93 0 01-.722-7.383c.074 1.851.203 3.71.352 5.574zm78.41-18.958c.5 2.2 1.008 4.426 1.465 6.668l-.352-8.562c-.23-5.79-.645-11.32-3.059-15.492-2.441-4.235-6.254-5.883-10.203-6.532.211.082.414.18.625.266 3.645 1.648 6.68 4.555 8.559 8.18 2.348 4.535 2.941 9.96 2.965 15.472zM17.164 4.598c-1.062.14-2.137.277-3.2.425-3.929.536-7.655 1.309-9.972 4.778C1.36 13.76 1.328 20.164 1.52 26.379c.062 2.012.128 4.043.222 6.086.055-.957.137-1.969.254-3.012-.074-1.32-.137-2.637-.191-3.957-.2-4.746-.242-10.129 1.87-13.863 2.157-3.82 5.872-4.918 9.485-5.715.649-.137 1.293-.277 1.942-.414.68-.328 1.37-.629 2.07-.895zm-4.98 2.629c-2.977.734-5.875 1.882-7.586 4.918-1.825 3.234-1.93 7.933-1.774 12.253.672-3.02 1.692-6.085 3.23-8.789.212-.605.446-1.199.712-1.765 1.347-2.926 3.238-5.051 5.418-6.617zm58.582-1.903a15.527 15.527 0 013.992 3.5c2.695 3.309 4.27 7.871 5.414 12.246-.348-3.363-1.102-6.554-2.57-9.363-1.739-3.363-4.543-6.066-7.891-7.629.363.383.715.797 1.043 1.234zm-55.293 1.18c-1.953.969-3.778 2.246-5.297 3.988 2.25-2.008 4.808-3.39 7.488-4.433-.734.136-1.457.285-2.191.445zM61.789 2.27c2.094.37 4.227.863 6.246 1.68a2.735 2.735 0 00-.265-.212c-.34-.277-.68-.511-1.032-.734a25.75 25.75 0 00-3.472-.692c-.5-.011-1-.03-1.489-.042zM24.426 3.738c-.266.051-.52.106-.785.168.52-.082 1.03-.168 1.55-.254-.253.032-.507.055-.773.086zm0 0"/></g></g></g><g mask="url(#prefix__k)"><g clip-path="url(#prefix__l)" transform="translate(289 195)"><g clip-path="url(#prefix__m)"><path fill="#231f20" d="M33.207 79.102c-3.96 0-7.934-.247-11.883-.747-2.094-.265-4.207-.66-6.172-1.52-2.453-.757-4.714-2.128-6.586-4.62-3.171-4.235-4.097-10.34-4.84-16.754-.363-3.129-.734-6.313-1-9.504-.019-.094-.03-.18-.05-.273-1.16-6.356-1.36-12.844-1.551-19.11C.922 19.922.965 13.602 3.789 9.38c2.559-3.84 6.691-4.691 10.707-5.234 3.461-.47 6.934-.903 10.426-1.286a97.102 97.102 0 0122.7-1.968A30.47 30.47 0 0148.82.848C51.867.676 54.914.539 57.965.43c2.972-.094 5.883-.075 8.558 1.078 5.383.273 11.196 1.488 14.633 7.426 2.531 4.37 2.965 10.054 3.211 15.98l.688 16.82c.382 3.024.605 6.067.554 9.118a39.168 39.168 0 01-.222 3.574c-.098 2.629-.426 5.27-1.246 7.597-.477 3.809-1.75 7.364-4.457 10.418a.529.529 0 01-.754.043.527.527 0 01-.043-.757c1.625-1.84 2.695-3.872 3.386-6.063 0 0-.011.02-.02.031-.85 1.618-1.87 3.063-3.1 4.246-.587 1.446-1.31 2.774-2.243 3.891-3.367 4.055-8.23 4.344-13.36 4.3l-15.78-.148a95.647 95.647 0 01-14.575 1.118zm-6.871-1.309c3.992.285 7.996.328 11.98.105zm26.953-.809l10.281.094c4.844.031 9.473-.223 12.532-3.914.449-.531.84-1.117 1.191-1.758-2.836 1.79-6.098 2.078-8.984 2.332-1.532.137-3.059.266-4.59.383a96.2 96.2 0 01-10.43 2.863zm-37.922-1.203c2.399.766 5 .895 7.551.914l24.777.235a95.596 95.596 0 0011.13-2.414 92.782 92.782 0 01-8.903.574c-8.57.52-17.172.883-25.711 1.086-4.64.105-9.484-.117-13.188-4.153a8.752 8.752 0 01-.468-.53c.203.331.414.64.648.937 1.211 1.597 2.645 2.636 4.164 3.351zM7.824 63.61c.895 3.024 2.137 5.703 3.973 7.692 3.41 3.703 7.797 3.918 12.383 3.808 4.812-.117 9.644-.273 14.476-.488-3.8-.383-7.605-1-11.418-1.828-5.968-1.309-12.734-3.504-17.652-9.82a26.925 26.925 0 01-2.344-3.598c.149 1.438.328 2.871.582 4.246zm-.84-7.148c.926 2.062 2.063 4.062 3.454 5.852 4.703 6.05 11.257 8.171 17.035 9.437a97.811 97.811 0 0022.418 2.285c3.082-.191 6.16-.394 9.242-.617a91.342 91.342 0 006.043-.914 97.954 97.954 0 005.383-2.117.53.53 0 01.703.277c.074.168.05.36-.043.512 2.633-.692 5.34-1.672 7.601-3.418.883-2.895 1.266-6.043 1.489-8.555 1.242-13.957-.47-29.098-4.801-42.621-.996-3.117-2.496-7.215-4.77-10.258-2.633-1.574-5.586-2.308-8.496-2.828a104.265 104.265 0 00-7.637-1.062c-8.93.136-17.828.859-26.625 2.156-1.316.3-2.632.617-3.937.969-5.727 1.511-11.547 3.683-15.41 9.238-.328.465-.63.957-.914 1.445-1.551 4.555-1.7 10.117-1.7 15.086 0 8.32.34 16.79 1 25.152zm70.871 13.215c-2.242 1.328-4.746 2.117-7.16 2.71-.105.02-.199.055-.304.075 2.218-.266 4.523-.754 6.52-2.074.327-.211.636-.457.944-.711zM4.5 52.969c.086.789.18 1.586.277 2.363.711 6.148 1.582 12.012 4.47 16.023-1.2-2.183-1.954-4.765-2.454-7.511-.89-3.024-1.434-6.352-1.867-9.66-.149-.407-.285-.82-.426-1.223zM73.129 8.094c1.508 2.699 2.59 5.71 3.367 8.136 4.387 13.66 6.106 28.942 4.852 43.047-.192 2.118-.489 4.66-1.094 7.16.394-.414.766-.847 1.117-1.328.742-1.425 1.371-3.043 1.86-4.808.296-4.5-.407-9.344-1.094-14.11-.66-4.53-1.34-9.222-1.16-13.566.074-1.871.14-3.766.14-5.637a21.63 21.63 0 00-.172-.722c-1.242-5.461-2.804-12.246-6.351-16.598a13.453 13.453 0 00-1.477-1.566zm8.965 23.234c-.012.45-.031.883-.055 1.332-.18 4.242.488 8.883 1.148 13.371.434 2.992.872 6.012 1.07 8.969.024-.168.044-.328.055-.5.094-2.402 0-4.828-.097-7.008l-.23-5.683c-.458-3.52-1.137-7.032-1.891-10.493zM3.727 29.637c.37 6.777.964 13.586 1.75 20.355-.36-6.246-.551-12.504-.551-18.683 0-3.192.062-6.618.508-9.907-.88 2.746-1.41 5.598-1.707 8.235zM3.77 45.82c.105.586.23 1.192.37 1.82-.265-2.46-.511-4.917-.722-7.386.074 1.851.203 3.715.352 5.578zm78.406-18.96c.5 2.203 1.011 4.425 1.469 6.671l-.352-8.566c-.234-5.785-.648-11.32-3.059-15.488C77.793 5.242 73.98 3.59 70.027 2.94c.215.086.414.184.63.266 3.64 1.652 6.679 4.555 8.558 8.184 2.347 4.53 2.941 9.957 2.96 15.468zM17.828 4.761c-1.062.136-2.133.277-3.195.426-3.93.53-7.656 1.308-9.973 4.777-2.633 3.957-2.664 10.363-2.476 16.578.066 2.008.128 4.043.226 6.082.05-.957.137-1.965.254-3.008-.074-1.32-.14-2.64-.191-3.96-.203-4.743-.246-10.13 1.867-13.864 2.156-3.816 5.875-4.914 9.484-5.711.649-.14 1.297-.277 1.946-.414a24.69 24.69 0 012.07-.895zm-4.98 2.629c-2.973.734-5.871 1.882-7.582 4.914-1.829 3.234-1.934 7.937-1.774 12.258.668-3.024 1.688-6.086 3.227-8.79.215-.605.449-1.203.715-1.765 1.347-2.926 3.238-5.055 5.414-6.617zM71.43 5.484a15.537 15.537 0 013.992 3.5c2.7 3.309 4.27 7.875 5.418 12.246-.352-3.359-1.106-6.55-2.57-9.359-1.743-3.363-4.547-6.066-7.891-7.629.36.383.71.797 1.039 1.235zM16.14 6.668c-1.953.965-3.78 2.242-5.3 3.988 2.254-2.011 4.812-3.394 7.488-4.437-.734.14-1.453.289-2.187.449zm46.317-4.234c2.09.37 4.227.859 6.242 1.68a2.45 2.45 0 00-.265-.216c-.34-.273-.68-.507-1.028-.734a27.154 27.154 0 00-3.472-.691c-.5-.008-1-.032-1.489-.04zM25.094 3.898c-.266.055-.52.11-.785.172.52-.086 1.027-.172 1.55-.254-.257.032-.511.051-.777.082zm0 0"/></g></g></g><g mask="url(#prefix__n)"><g clip-path="url(#prefix__o)" transform="translate(194 195)"><g clip-path="url(#prefix__p)"><path fill="#231f20" d="M32.543 79.102c-3.965 0-7.934-.247-11.887-.747-2.09-.265-4.203-.66-6.168-1.52-2.453-.757-4.718-2.128-6.586-4.62C4.727 67.98 3.805 61.875 3.06 55.46c-.36-3.129-.73-6.313-.997-9.504-.023-.094-.035-.18-.054-.273C.852 39.328.648 32.84.457 26.574.254 19.922.297 13.602 3.121 9.38c2.563-3.84 6.691-4.691 10.707-5.234 3.461-.47 6.934-.903 10.43-1.286A97.069 97.069 0 0146.953.891c.402-.024.797-.036 1.2-.043A447.39 447.39 0 0157.296.43C60.27.336 63.18.355 65.855 1.508c5.387.273 11.196 1.488 14.637 7.426 2.528 4.37 2.961 10.054 3.207 15.98l.692 16.82c.382 3.024.605 6.067.55 9.118a37.819 37.819 0 01-.222 3.574c-.094 2.629-.426 5.27-1.242 7.597-.477 3.809-1.754 7.364-4.461 10.418a.529.529 0 01-.754.043.53.53 0 01-.043-.757c1.625-1.84 2.699-3.872 3.386-6.063 0 0-.007.02-.02.031-.85 1.618-1.87 3.063-3.1 4.246-.583 1.446-1.305 2.774-2.243 3.891-3.363 4.055-8.23 4.344-13.36 4.3l-15.78-.148a95.634 95.634 0 01-14.57 1.118zm-6.871-1.309a94.28 94.28 0 0011.976.105zm26.953-.809l10.281.094c4.84.031 9.473-.223 12.532-3.914.445-.531.84-1.117 1.187-1.758-2.836 1.79-6.094 2.078-8.984 2.332-1.528.137-3.059.266-4.586.383a96.693 96.693 0 01-10.43 2.863zm-37.926-1.203c2.399.766 5.004.895 7.551.914l24.777.235a95.422 95.422 0 0011.13-2.414 92.783 92.783 0 01-8.9.574c-8.57.52-17.171.883-25.71 1.086-4.64.105-9.485-.117-13.192-4.153a8.752 8.752 0 01-.468-.53c.203.331.414.64.648.937 1.211 1.597 2.645 2.636 4.164 3.351zM7.16 63.61c.89 3.024 2.133 5.703 3.969 7.692 3.41 3.703 7.797 3.918 12.387 3.808 4.808-.117 9.64-.273 14.472-.488-3.8-.383-7.601-1-11.414-1.828-5.969-1.309-12.734-3.504-17.652-9.82a26.952 26.952 0 01-2.348-3.598c.149 1.438.328 2.871.586 4.246zm-.84-7.148c.922 2.062 2.059 4.062 3.45 5.852 4.707 6.05 11.257 8.171 17.035 9.437a97.844 97.844 0 0022.422 2.285c3.078-.191 6.16-.394 9.238-.617a90.953 90.953 0 006.043-.914 98.077 98.077 0 005.387-2.117.527.527 0 01.699.277.542.542 0 01-.043.512c2.633-.692 5.344-1.672 7.605-3.418.88-2.895 1.262-6.043 1.485-8.555 1.246-13.957-.465-29.098-4.797-42.621-1-3.117-2.496-7.215-4.77-10.258-2.633-1.574-5.586-2.308-8.496-2.828-2.55-.445-5.09-.808-7.637-1.062-8.933.136-17.832.859-26.625 2.156a107.3 107.3 0 00-3.941.969c-5.723 1.511-11.543 3.683-15.41 9.238-.328.465-.625.957-.914 1.445-1.547 4.555-1.7 10.117-1.7 15.086 0 8.32.34 16.79 1 25.152zm70.867 13.215c-2.238 1.328-4.746 2.117-7.156 2.71-.105.02-.203.055-.308.075 2.218-.266 4.523-.754 6.52-2.074.331-.211.64-.457.945-.711zM3.837 52.969c.082.789.18 1.586.273 2.363.715 6.148 1.582 12.012 4.473 16.023-1.2-2.183-1.953-4.765-2.453-7.511-.89-3.024-1.434-6.352-1.871-9.66-.149-.407-.285-.82-.422-1.223zM72.465 8.094c1.508 2.699 2.59 5.71 3.363 8.136 4.387 13.66 6.11 28.942 4.856 43.047-.192 2.118-.489 4.66-1.094 7.16.39-.414.765-.847 1.113-1.328.746-1.425 1.371-3.043 1.86-4.808.296-4.5-.403-9.344-1.094-14.11-.66-4.53-1.34-9.222-1.156-13.566.074-1.871.136-3.766.136-5.637-.054-.246-.105-.48-.168-.722-1.246-5.461-2.804-12.246-6.351-16.598a14.15 14.15 0 00-1.477-1.566zm8.96 23.234c-.01.45-.03.883-.05 1.332-.184 4.242.488 8.883 1.145 13.371.437 2.992.87 6.012 1.074 8.969.02-.168.043-.328.05-.5.098-2.402 0-4.828-.093-7.008l-.235-5.683c-.457-3.52-1.136-7.032-1.89-10.493zM3.06 29.637c.37 6.777.968 13.586 1.753 20.355a322.538 322.538 0 01-.554-18.683c0-3.192.066-6.618.512-9.907-.883 2.746-1.415 5.598-1.711 8.235zm.043 16.183c.105.586.234 1.192.37 1.82a357.94 357.94 0 01-.722-7.386c.074 1.851.203 3.715.352 5.578zm78.41-18.96c.5 2.203 1.008 4.425 1.465 6.671l-.352-8.566c-.23-5.785-.645-11.32-3.059-15.488-2.441-4.235-6.254-5.887-10.203-6.536.211.086.414.184.625.266 3.645 1.652 6.68 4.555 8.559 8.184 2.348 4.53 2.941 9.957 2.965 15.468zM17.164 4.761c-1.062.136-2.137.277-3.2.426-3.929.53-7.655 1.308-9.972 4.777C1.36 13.922 1.328 20.328 1.52 26.543c.062 2.008.128 4.043.222 6.082.055-.957.137-1.965.254-3.008-.074-1.32-.137-2.64-.191-3.96-.2-4.743-.242-10.13 1.87-13.864 2.157-3.816 5.872-4.914 9.485-5.711.649-.14 1.293-.277 1.942-.414a24.69 24.69 0 012.07-.895zm-4.98 2.629c-2.977.734-5.875 1.882-7.586 4.914-1.825 3.234-1.93 7.937-1.774 12.258.672-3.024 1.692-6.086 3.23-8.79.212-.605.446-1.203.712-1.765 1.347-2.926 3.238-5.055 5.418-6.617zm58.582-1.907a15.602 15.602 0 013.992 3.5c2.695 3.309 4.27 7.875 5.414 12.246-.348-3.359-1.102-6.55-2.57-9.359-1.739-3.363-4.543-6.066-7.891-7.629.363.383.715.797 1.043 1.235zM15.473 6.668c-1.953.965-3.778 2.242-5.297 3.988 2.25-2.011 4.808-3.394 7.488-4.437-.734.14-1.457.289-2.191.449zm46.316-4.234c2.094.37 4.227.859 6.246 1.68a3.543 3.543 0 00-.265-.216c-.34-.273-.68-.507-1.032-.734a27.02 27.02 0 00-3.472-.691c-.5-.008-1-.032-1.489-.04zM24.426 3.898c-.266.055-.52.11-.785.172.52-.086 1.03-.172 1.55-.254-.253.032-.507.051-.773.082zm0 0"/></g></g></g><g mask="url(#prefix__q)"><g clip-path="url(#prefix__r)" transform="translate(98 195)"><g clip-path="url(#prefix__s)"><path fill="#231f20" d="M33.2 79.102c-3.962 0-7.934-.247-11.884-.747-2.093-.265-4.207-.66-6.171-1.52-2.454-.757-4.715-2.128-6.586-4.62C5.383 67.98 4.46 61.875 3.715 55.46c-.36-3.129-.73-6.313-.996-9.504-.024-.094-.031-.18-.055-.273-1.156-6.356-1.36-12.844-1.55-19.11C.913 19.922.956 13.602 3.78 9.38c2.559-3.84 6.692-4.691 10.703-5.234a415.31 415.31 0 0110.43-1.286A97.087 97.087 0 0147.61.891c.407-.024.797-.036 1.2-.043A448.67 448.67 0 0157.953.43C60.93.336 63.84.355 66.516 1.508c5.382.273 11.191 1.488 14.632 7.426 2.528 4.37 2.965 10.054 3.207 15.98l.692 16.82c.383 3.024.605 6.067.55 9.118a36.56 36.56 0 01-.222 3.574c-.094 2.629-.422 5.27-1.242 7.597-.477 3.809-1.75 7.364-4.461 10.418a.529.529 0 01-.754.043.533.533 0 01-.043-.757c1.625-1.84 2.7-3.872 3.39-6.063 0 0-.011.02-.023.031-.847 1.618-1.867 3.063-3.101 4.246-.582 1.446-1.305 2.774-2.239 3.891-3.367 4.055-8.23 4.344-13.363 4.3l-15.781-.148a95.558 95.558 0 01-14.57 1.118zm-6.872-1.309c3.992.285 7.996.328 11.98.105zm26.953-.809l10.282.094c4.843.031 9.472-.223 12.53-3.914a10.84 10.84 0 001.192-1.758c-2.836 1.79-6.097 2.078-8.988 2.332-1.527.137-3.059.266-4.586.383a96.2 96.2 0 01-10.43 2.863zm-37.926-1.203c2.403.766 5.004.895 7.551.914l24.778.235a95.486 95.486 0 0011.132-2.414 92.782 92.782 0 01-8.902.574c-8.57.52-17.172.883-25.71 1.086-4.642.105-9.485-.117-13.192-4.153a10.276 10.276 0 01-.465-.53c.2.331.414.64.648.937 1.207 1.597 2.64 2.636 4.16 3.351zM7.816 63.61c.891 3.024 2.133 5.703 3.973 7.692 3.406 3.703 7.793 3.918 12.383 3.808 4.808-.117 9.644-.273 14.476-.488-3.804-.383-7.605-1-11.418-1.828-5.968-1.309-12.734-3.504-17.652-9.82a27.342 27.342 0 01-2.348-3.598c.149 1.438.332 2.871.586 4.246zm-.84-7.148c.926 2.062 2.063 4.062 3.454 5.852 4.703 6.05 11.258 8.171 17.035 9.437a97.811 97.811 0 0022.418 2.285c3.082-.191 6.16-.394 9.238-.617 2.02-.234 4.04-.543 6.043-.914a98.077 98.077 0 005.387-2.117.527.527 0 01.699.277.542.542 0 01-.043.512c2.637-.692 5.344-1.672 7.606-3.418.882-2.895 1.265-6.043 1.488-8.555 1.242-13.957-.469-29.098-4.801-42.621-1-3.117-2.496-7.215-4.77-10.258-2.632-1.574-5.585-2.308-8.496-2.828a104.265 104.265 0 00-7.636-1.062c-8.93.136-17.832.859-26.625 2.156-1.317.3-2.633.617-3.938.969-5.726 1.511-11.547 3.683-15.41 9.238-.332.465-.629.957-.914 1.445-1.55 4.555-1.7 10.117-1.7 15.086 0 8.32.34 16.79.997 25.152zm70.872 13.215c-2.243 1.328-4.75 2.117-7.16 2.71-.106.02-.2.055-.31.075 2.224-.266 4.528-.754 6.524-2.074.328-.211.637-.457.946-.711zM4.492 52.969c.086.789.18 1.586.278 2.363.71 6.148 1.582 12.012 4.468 16.023-1.199-2.183-1.953-4.765-2.453-7.511-.89-3.024-1.433-6.352-1.867-9.66-.148-.407-.29-.82-.426-1.223zm68.63-44.875c1.507 2.699 2.589 5.71 3.366 8.136 4.387 13.66 6.106 28.942 4.852 43.047-.192 2.118-.488 4.66-1.094 7.16.395-.414.766-.847 1.117-1.328.742-1.425 1.367-3.043 1.856-4.808.3-4.5-.403-9.344-1.094-14.11-.656-4.53-1.336-9.222-1.156-13.566.074-1.871.136-3.766.136-5.637a14.92 14.92 0 00-.168-.722c-1.242-5.461-2.804-12.246-6.351-16.598a14.15 14.15 0 00-1.477-1.566zm8.96 23.234c-.008.45-.031.883-.05 1.332-.18 4.242.488 8.883 1.148 13.371.433 2.992.867 6.012 1.07 8.969.023-.168.043-.328.055-.5.093-2.402 0-4.828-.098-7.008l-.234-5.683c-.453-3.52-1.133-7.032-1.891-10.493zM3.715 29.637c.375 6.777.969 13.586 1.754 20.355-.36-6.246-.551-12.504-.551-18.683 0-3.192.062-6.618.508-9.907-.88 2.746-1.41 5.598-1.711 8.235zm.043 16.183c.11.586.234 1.192.375 1.82-.266-2.46-.512-4.917-.723-7.386.074 1.851.2 3.715.348 5.578zm78.41-18.96c.5 2.203 1.012 4.425 1.465 6.671l-.348-8.566c-.234-5.785-.648-11.32-3.058-15.488C77.78 5.242 73.969 3.59 70.02 2.94c.21.086.414.184.625.266 3.644 1.652 6.68 4.555 8.562 8.184 2.348 4.53 2.941 9.957 2.961 15.468zM17.82 4.761c-1.062.136-2.133.277-3.195.426-3.93.53-7.66 1.308-9.973 4.777-2.636 3.957-2.668 10.363-2.476 16.578.066 2.008.129 4.043.222 6.082.055-.957.141-1.965.258-3.008-.074-1.32-.14-2.64-.191-3.96-.203-4.743-.246-10.13 1.867-13.864 2.156-3.816 5.875-4.914 9.484-5.711.649-.14 1.297-.277 1.946-.414.68-.332 1.367-.629 2.07-.895zM12.84 7.39c-2.973.734-5.875 1.882-7.582 4.914-1.828 3.234-1.934 7.937-1.774 12.258.668-3.024 1.688-6.086 3.227-8.79.215-.605.445-1.203.71-1.765 1.352-2.926 3.243-5.055 5.419-6.617zm58.582-1.907a15.537 15.537 0 013.992 3.5c2.7 3.309 4.27 7.875 5.418 12.246-.352-3.359-1.105-6.55-2.57-9.359-1.742-3.363-4.547-6.066-7.89-7.629.358.383.71.797 1.038 1.235zm-55.29 1.184c-1.956.965-3.78 2.242-5.3 3.988 2.25-2.011 4.813-3.394 7.488-4.437-.734.14-1.457.289-2.187.449zm46.313-4.234c2.094.37 4.227.859 6.246 1.68-.086-.075-.168-.15-.265-.216-.34-.273-.68-.507-1.031-.734a27.02 27.02 0 00-3.473-.691c-.496-.008-.996-.032-1.484-.04zm-37.36 1.464c-.265.055-.523.11-.788.172.523-.086 1.031-.172 1.55-.254-.253.032-.507.051-.773.082zm0 0"/></g></g></g><g clip-path="url(#prefix__t)"><path fill="#231f20" d="M322.207 370.262a94.64 94.64 0 01-11.883-.742c-2.094-.266-4.207-.66-6.172-1.524-2.453-.754-4.714-2.129-6.586-4.617-3.171-4.234-4.097-10.34-4.84-16.758-.363-3.129-.734-6.308-1-9.5-.019-.098-.03-.18-.05-.277-1.16-6.352-1.36-12.84-1.551-19.11-.203-6.648-.16-12.968 2.664-17.191 2.559-3.844 6.691-4.691 10.707-5.234 3.461-.47 6.934-.907 10.426-1.29a97.102 97.102 0 0122.7-1.968c.401-.02.792-.031 1.198-.043 3.047-.168 6.094-.309 9.145-.414 2.973-.094 5.883-.074 8.558 1.074 5.383.277 11.196 1.492 14.633 7.426 2.531 4.375 2.965 10.054 3.211 15.98l.688 16.824c.382 3.02.605 6.063.554 9.118a39.168 39.168 0 01-.222 3.574c-.098 2.629-.426 5.265-1.246 7.598-.477 3.808-1.75 7.363-4.457 10.414a.525.525 0 01-.754.043.522.522 0 01-.043-.754c1.625-1.84 2.695-3.875 3.386-6.067 0 0-.011.024-.02.031-.85 1.618-1.87 3.067-3.1 4.247-.587 1.449-1.31 2.777-2.243 3.894-3.367 4.055-8.23 4.34-13.36 4.297l-15.78-.148a95.151 95.151 0 01-14.575 1.117zm-6.871-1.309c3.992.29 7.996.332 11.98.11zm26.953-.808l10.281.097c4.844.031 9.473-.222 12.532-3.918.449-.531.84-1.117 1.191-1.754-2.836 1.79-6.098 2.075-8.984 2.332-1.532.137-3.059.266-4.59.383a95.299 95.299 0 01-10.43 2.86zm-37.922-1.2c2.399.766 5 .89 7.551.914l24.777.235a94.813 94.813 0 0011.13-2.418 90.323 90.323 0 01-8.903.574 684.3 684.3 0 01-25.711 1.086c-4.64.11-9.484-.117-13.188-4.149a11.99 11.99 0 01-.468-.53c.203.327.414.636.648.937 1.211 1.594 2.645 2.636 4.164 3.351zm-7.543-12.172c.895 3.02 2.137 5.7 3.973 7.692 3.41 3.703 7.797 3.914 12.383 3.808 4.812-.117 9.644-.277 14.476-.488a101 101 0 01-11.418-1.832c-5.968-1.308-12.734-3.5-17.652-9.82a26.884 26.884 0 01-2.344-3.594c.149 1.434.328 2.871.582 4.242zm-.84-7.152c.926 2.067 2.063 4.067 3.454 5.852 4.703 6.054 11.257 8.172 17.035 9.437a97.817 97.817 0 0022.418 2.29c3.082-.192 6.16-.395 9.242-.618a91.342 91.342 0 006.043-.914c1.816-.652 3.61-1.363 5.383-2.117a.532.532 0 01.703.273.55.55 0 01-.043.512c2.633-.691 5.34-1.668 7.601-3.414.883-2.895 1.266-6.043 1.489-8.555 1.242-13.96-.47-29.097-4.801-42.62-.996-3.118-2.496-7.216-4.77-10.259-2.633-1.574-5.586-2.308-8.496-2.828-2.547-.45-5.086-.808-7.637-1.066-8.93.14-17.828.863-26.625 2.16a98.05 98.05 0 00-3.937.969c-5.727 1.511-11.547 3.68-15.41 9.234-.328.469-.63.957-.914 1.45-1.551 4.55-1.7 10.116-1.7 15.085 0 8.32.34 16.79 1 25.153zm70.871 13.215c-2.242 1.332-4.746 2.117-7.16 2.715-.105.02-.199.05-.304.074 2.218-.266 4.523-.758 6.52-2.074.327-.215.636-.461.944-.715zM293.5 344.133c.086.785.18 1.586.277 2.363.711 6.149 1.582 12.012 4.47 16.02-1.2-2.18-1.954-4.766-2.454-7.512-.89-3.02-1.434-6.352-1.867-9.66-.149-.403-.285-.817-.426-1.223zm68.629-44.88c1.508 2.704 2.59 5.716 3.367 8.142 4.387 13.66 6.106 28.937 4.852 43.046-.192 2.118-.489 4.66-1.094 7.16.394-.413.766-.851 1.117-1.328.742-1.425 1.371-3.043 1.86-4.812.296-4.5-.407-9.34-1.094-14.106-.66-4.53-1.34-9.226-1.16-13.566.074-1.871.14-3.766.14-5.637-.055-.246-.11-.48-.172-.726-1.242-5.457-2.804-12.246-6.351-16.598a13.412 13.412 0 00-1.477-1.562zm8.965 23.24c-.012.445-.031.882-.055 1.327-.18 4.246.488 8.887 1.149 13.375.433 2.989.87 6.012 1.07 8.97.023-.169.043-.33.055-.5.093-2.403 0-4.833-.098-7.013l-.23-5.68c-.458-3.523-1.137-7.034-1.891-10.492zm-78.367-1.692c.37 6.777.964 13.586 1.75 20.351-.36-6.246-.551-12.5-.551-18.683 0-3.192.062-6.617.508-9.903-.88 2.743-1.41 5.594-1.707 8.235zm.043 16.183c.105.582.23 1.192.37 1.817a330.096 330.096 0 01-.722-7.383c.074 1.852.203 3.715.352 5.574zm78.406-18.96c.5 2.203 1.012 4.425 1.469 6.671l-.352-8.566c-.234-5.79-.648-11.32-3.059-15.492-2.441-4.235-6.254-5.883-10.207-6.532.215.086.414.18.63.266 3.64 1.649 6.679 4.555 8.558 8.184 2.348 4.53 2.941 9.957 2.96 15.468zm-64.348-22.098c-1.062.137-2.133.273-3.195.426-3.93.53-7.656 1.308-9.973 4.777-2.633 3.957-2.664 10.36-2.476 16.574.066 2.012.128 4.043.226 6.086.05-.957.137-1.969.254-3.012-.074-1.316-.14-2.636-.191-3.957-.203-4.746-.246-10.129 1.867-13.863 2.156-3.82 5.875-4.914 9.484-5.715.649-.137 1.297-.273 1.946-.414.68-.328 1.37-.629 2.07-.894zm-4.98 2.625c-2.973.734-5.871 1.887-7.582 4.918-1.829 3.234-1.934 7.937-1.774 12.258.668-3.024 1.688-6.086 3.227-8.79.215-.609.449-1.203.715-1.765 1.347-2.926 3.238-5.055 5.414-6.621zm58.582-1.903a15.463 15.463 0 013.992 3.5c2.7 3.309 4.27 7.875 5.418 12.247-.352-3.364-1.106-6.555-2.57-9.364-1.743-3.363-4.547-6.062-7.891-7.629.36.383.71.797 1.039 1.235zm-55.29 1.18c-1.952.969-3.78 2.246-5.3 3.992 2.254-2.011 4.812-3.394 7.488-4.437-.734.137-1.453.285-2.187.445zm46.317-4.234c2.09.37 4.227.863 6.242 1.683a1.775 1.775 0 00-.265-.214c-.34-.278-.68-.512-1.028-.735a25.87 25.87 0 00-3.472-.691c-.5-.012-1-.032-1.489-.043zm-37.363 1.469c-.266.054-.52.105-.785.171l1.55-.257c-.257.03-.511.054-.777.086zm0 0"/></g><g mask="url(#prefix__u)"><g clip-path="url(#prefix__v)" transform="translate(194 291)"><g clip-path="url(#prefix__w)"><path fill="#231f20" d="M32.543 79.262c-3.965 0-7.934-.242-11.887-.742-2.09-.266-4.203-.66-6.168-1.524-2.453-.754-4.718-2.129-6.586-4.617-3.175-4.234-4.097-10.34-4.843-16.758-.36-3.129-.73-6.309-.997-9.5-.023-.098-.035-.18-.054-.277C.852 39.492.648 33.004.457 26.734.254 20.086.297 13.766 3.121 9.543c2.563-3.844 6.691-4.691 10.707-5.234 3.461-.47 6.934-.907 10.43-1.29a97.069 97.069 0 0122.695-1.968c.402-.02.797-.031 1.2-.043C51.198.84 54.25.699 57.296.594 60.27.5 63.18.52 65.855 1.668c5.387.277 11.196 1.492 14.637 7.426 2.528 4.375 2.961 10.054 3.207 15.98l.692 16.824c.382 3.02.605 6.063.55 9.118a37.819 37.819 0 01-.222 3.574c-.094 2.629-.426 5.265-1.242 7.597-.477 3.81-1.754 7.364-4.461 10.415a.525.525 0 01-.754.043.525.525 0 01-.043-.754c1.625-1.84 2.699-3.875 3.386-6.067 0 0-.007.024-.02.031-.85 1.618-1.87 3.067-3.1 4.247-.583 1.449-1.305 2.777-2.243 3.894-3.363 4.055-8.23 4.34-13.36 4.297l-15.78-.148a95.139 95.139 0 01-14.57 1.117zm-6.871-1.309c3.992.29 7.996.332 11.976.11zm26.953-.808l10.281.097c4.84.031 9.473-.222 12.532-3.918.445-.531.84-1.117 1.187-1.754-2.836 1.79-6.094 2.075-8.984 2.332-1.528.137-3.059.266-4.586.383a95.781 95.781 0 01-10.43 2.86zm-37.926-1.2c2.399.766 5.004.89 7.551.914l24.777.235a94.641 94.641 0 0011.13-2.418 90.322 90.322 0 01-8.9.574 684.3 684.3 0 01-25.71 1.086c-4.64.11-9.485-.117-13.192-4.148a11.99 11.99 0 01-.468-.532c.203.328.414.637.648.938 1.211 1.594 2.645 2.636 4.164 3.351zM7.16 63.773c.89 3.02 2.133 5.7 3.969 7.692 3.41 3.703 7.797 3.914 12.387 3.808 4.808-.117 9.64-.277 14.472-.488-3.8-.383-7.601-1-11.414-1.832-5.969-1.308-12.734-3.5-17.652-9.82a26.91 26.91 0 01-2.348-3.594c.149 1.434.328 2.871.586 4.242zm-.84-7.152c.922 2.066 2.059 4.066 3.45 5.852 4.707 6.054 11.257 8.172 17.035 9.437a97.85 97.85 0 0022.422 2.29c3.078-.192 6.16-.395 9.238-.618a90.953 90.953 0 006.043-.914 101.31 101.31 0 005.387-2.117.528.528 0 01.699.273.54.54 0 01-.043.512c2.633-.691 5.344-1.668 7.605-3.414.88-2.895 1.262-6.043 1.485-8.555 1.246-13.96-.465-29.097-4.797-42.62-1-3.118-2.496-7.216-4.77-10.259-2.633-1.574-5.586-2.308-8.496-2.828-2.55-.45-5.09-.808-7.637-1.066-8.933.14-17.832.863-26.625 2.16a99.9 99.9 0 00-3.941.969c-5.723 1.511-11.543 3.68-15.41 9.234-.328.469-.625.957-.914 1.45-1.547 4.55-1.7 10.116-1.7 15.085 0 8.32.34 16.79 1 25.153zm70.867 13.215c-2.238 1.332-4.746 2.117-7.156 2.715-.105.02-.203.05-.308.074 2.218-.266 4.523-.758 6.52-2.074.331-.215.64-.461.945-.715zM3.837 53.133c.082.785.18 1.586.273 2.363.715 6.149 1.582 12.012 4.473 16.02-1.2-2.18-1.953-4.766-2.453-7.512-.89-3.02-1.434-6.352-1.871-9.66-.149-.403-.285-.817-.422-1.223zm68.629-44.88c1.508 2.704 2.59 5.716 3.363 8.142 4.387 13.66 6.11 28.937 4.856 43.046-.192 2.118-.489 4.66-1.094 7.16.39-.413.765-.851 1.113-1.328.746-1.425 1.371-3.043 1.86-4.812.296-4.5-.403-9.34-1.094-14.106-.66-4.53-1.34-9.226-1.156-13.566.074-1.871.136-3.766.136-5.637-.054-.246-.105-.48-.168-.726-1.246-5.457-2.804-12.246-6.351-16.598a14.106 14.106 0 00-1.477-1.562zm8.96 23.24c-.01.445-.03.882-.05 1.327-.184 4.246.488 8.887 1.145 13.375.437 2.989.87 6.012 1.074 8.97.02-.169.043-.33.05-.5.098-2.403 0-4.833-.093-7.013l-.235-5.68c-.457-3.523-1.136-7.035-1.89-10.492zM3.06 29.8c.37 6.777.968 13.586 1.753 20.351-.363-6.246-.554-12.5-.554-18.683 0-3.192.066-6.617.512-9.903-.883 2.743-1.415 5.594-1.711 8.235zm.043 16.183c.105.582.234 1.192.37 1.817a354.93 354.93 0 01-.722-7.383c.074 1.852.203 3.715.352 5.574zm78.41-18.96c.5 2.203 1.008 4.425 1.465 6.671l-.352-8.566c-.23-5.79-.645-11.32-3.059-15.492-2.441-4.235-6.254-5.883-10.203-6.532.211.086.414.18.625.266 3.645 1.649 6.68 4.555 8.559 8.184 2.348 4.53 2.941 9.957 2.965 15.468zM17.164 4.925c-1.062.136-2.137.273-3.2.426-3.929.53-7.655 1.308-9.972 4.777-2.633 3.957-2.664 10.36-2.472 16.574.062 2.012.128 4.043.222 6.086.055-.957.137-1.969.254-3.012a265.594 265.594 0 01-.191-3.957c-.2-4.746-.242-10.129 1.87-13.863 2.157-3.82 5.872-4.914 9.485-5.715.649-.137 1.293-.273 1.942-.414.68-.328 1.37-.629 2.07-.894zm-4.98 2.625c-2.977.734-5.875 1.886-7.586 4.918-1.825 3.234-1.93 7.937-1.774 12.258.672-3.024 1.692-6.086 3.23-8.79.212-.609.446-1.203.712-1.765 1.347-2.926 3.238-5.055 5.418-6.621zm58.582-1.903a15.527 15.527 0 013.992 3.5c2.695 3.309 4.27 7.875 5.414 12.247-.348-3.364-1.102-6.555-2.57-9.364-1.739-3.363-4.543-6.062-7.891-7.629.363.383.715.797 1.043 1.235zm-55.293 1.18c-1.953.969-3.778 2.246-5.297 3.992 2.25-2.011 4.808-3.394 7.488-4.437-.734.137-1.457.285-2.191.445zm46.316-4.234c2.094.37 4.227.863 6.246 1.683a2.283 2.283 0 00-.265-.215c-.34-.277-.68-.511-1.032-.734a25.749 25.749 0 00-3.472-.691c-.5-.012-1-.032-1.489-.043zM24.426 4.063c-.266.054-.52.105-.785.171l1.55-.257c-.253.03-.507.054-.773.086zm0 0"/></g></g></g><g mask="url(#prefix__x)"><g clip-path="url(#prefix__y)" transform="translate(98 291)"><g clip-path="url(#prefix__z)"><path fill="#231f20" d="M33.2 79.262a94.64 94.64 0 01-11.884-.742c-2.093-.266-4.207-.66-6.171-1.524-2.454-.754-4.715-2.129-6.586-4.617-3.176-4.234-4.098-10.34-4.844-16.758-.36-3.129-.73-6.309-.996-9.5-.024-.098-.031-.18-.055-.277-1.156-6.352-1.36-12.84-1.55-19.11-.2-6.648-.157-12.968 2.667-17.191 2.559-3.844 6.692-4.691 10.703-5.234a415.32 415.32 0 0110.43-1.29A97.087 97.087 0 0147.61 1.052c.407-.02.797-.031 1.2-.043 3.05-.168 6.097-.309 9.144-.414C60.93.5 63.84.52 66.516 1.668c5.382.277 11.191 1.492 14.632 7.426 2.528 4.375 2.965 10.054 3.207 15.98l.692 16.824c.383 3.02.605 6.063.55 9.118a36.56 36.56 0 01-.222 3.574c-.094 2.629-.422 5.265-1.242 7.597-.477 3.81-1.75 7.364-4.461 10.415a.525.525 0 01-.754.043.529.529 0 01-.043-.754c1.625-1.84 2.7-3.875 3.39-6.067 0 0-.011.024-.023.031-.847 1.618-1.867 3.067-3.101 4.247-.582 1.449-1.305 2.777-2.239 3.894-3.367 4.055-8.23 4.34-13.363 4.297l-15.781-.148a95.063 95.063 0 01-14.57 1.117zm-6.872-1.309c3.992.29 7.996.332 11.98.11zm26.953-.808l10.282.097c4.843.031 9.472-.222 12.53-3.918.446-.531.84-1.117 1.192-1.754-2.836 1.79-6.097 2.075-8.988 2.332-1.527.137-3.059.266-4.586.383a95.299 95.299 0 01-10.43 2.86zm-37.926-1.2c2.403.766 5.004.89 7.551.914l24.778.235a94.705 94.705 0 0011.132-2.418 90.323 90.323 0 01-8.902.574 684.3 684.3 0 01-25.71 1.086c-4.642.11-9.485-.117-13.192-4.148a15.068 15.068 0 01-.465-.532c.2.328.414.637.648.938 1.207 1.594 2.64 2.636 4.16 3.351zM7.816 63.773c.891 3.02 2.133 5.7 3.973 7.692 3.406 3.703 7.793 3.914 12.383 3.808 4.808-.117 9.644-.277 14.476-.488-3.804-.383-7.605-1-11.418-1.832-5.968-1.308-12.734-3.5-17.652-9.82a27.3 27.3 0 01-2.348-3.594c.149 1.434.332 2.871.586 4.242zm-.84-7.152c.926 2.066 2.063 4.066 3.454 5.852 4.703 6.054 11.258 8.172 17.035 9.437a97.817 97.817 0 0022.418 2.29c3.082-.192 6.16-.395 9.238-.618 2.02-.234 4.04-.543 6.043-.914a101.31 101.31 0 005.387-2.117.528.528 0 01.699.273.54.54 0 01-.043.512c2.637-.691 5.344-1.668 7.606-3.414.882-2.895 1.265-6.043 1.488-8.555 1.242-13.96-.469-29.097-4.801-42.62-1-3.118-2.496-7.216-4.77-10.259-2.632-1.574-5.585-2.308-8.496-2.828-2.547-.45-5.086-.808-7.636-1.066-8.93.14-17.832.863-26.625 2.16a98.052 98.052 0 00-3.938.969c-5.726 1.511-11.547 3.68-15.41 9.234-.332.469-.629.957-.914 1.45-1.55 4.55-1.7 10.116-1.7 15.085 0 8.32.34 16.79.997 25.153zm70.872 13.215c-2.243 1.332-4.75 2.117-7.16 2.715-.106.02-.2.05-.31.074 2.224-.266 4.528-.758 6.524-2.074.328-.215.637-.461.946-.715zM4.492 53.133c.086.785.18 1.586.278 2.363.71 6.149 1.582 12.012 4.468 16.02-1.199-2.18-1.953-4.766-2.453-7.512-.89-3.02-1.433-6.352-1.867-9.66-.148-.403-.29-.817-.426-1.223zm68.63-44.88c1.507 2.704 2.589 5.716 3.366 8.142 4.387 13.66 6.106 28.937 4.852 43.046-.192 2.118-.488 4.66-1.094 7.16.395-.413.766-.851 1.117-1.328.742-1.425 1.367-3.043 1.856-4.812.3-4.5-.403-9.34-1.094-14.106-.656-4.53-1.336-9.226-1.156-13.566.074-1.871.136-3.766.136-5.637-.05-.246-.105-.48-.168-.726-1.242-5.457-2.804-12.246-6.351-16.598a14.106 14.106 0 00-1.477-1.562zm8.96 23.24c-.008.445-.031.882-.05 1.327-.18 4.246.488 8.887 1.148 13.375.433 2.989.867 6.012 1.07 8.97.023-.169.043-.33.055-.5.093-2.403 0-4.833-.098-7.013l-.234-5.68c-.453-3.523-1.133-7.035-1.891-10.492zM3.715 29.8c.375 6.777.969 13.586 1.754 20.351-.36-6.246-.551-12.5-.551-18.683 0-3.192.062-6.617.508-9.903-.88 2.743-1.41 5.594-1.711 8.235zm.043 16.183c.11.582.234 1.192.375 1.817a330.108 330.108 0 01-.723-7.383c.074 1.852.2 3.715.348 5.574zm78.41-18.96c.5 2.203 1.012 4.425 1.465 6.671l-.348-8.566c-.234-5.79-.648-11.32-3.058-15.492-2.446-4.235-6.258-5.883-10.207-6.532.21.086.414.18.625.266 3.644 1.649 6.68 4.555 8.562 8.184 2.348 4.53 2.941 9.957 2.961 15.468zM17.82 4.925c-1.062.136-2.133.273-3.195.426-3.93.53-7.66 1.308-9.973 4.777-2.636 3.957-2.668 10.36-2.476 16.574.066 2.012.129 4.043.222 6.086.055-.957.141-1.969.258-3.012-.074-1.316-.14-2.636-.191-3.957-.203-4.746-.246-10.129 1.867-13.863 2.156-3.82 5.875-4.914 9.484-5.715.649-.137 1.297-.273 1.946-.414.68-.328 1.367-.629 2.07-.894zM12.84 7.55c-2.973.734-5.875 1.886-7.582 4.918-1.828 3.234-1.934 7.937-1.774 12.258.668-3.024 1.688-6.086 3.227-8.79a18.7 18.7 0 01.71-1.765c1.352-2.926 3.243-5.055 5.419-6.621zm58.582-1.903a15.463 15.463 0 013.992 3.5c2.7 3.309 4.27 7.875 5.418 12.247-.352-3.364-1.105-6.555-2.57-9.364-1.742-3.363-4.547-6.062-7.89-7.629.358.383.71.797 1.038 1.235zm-55.29 1.18c-1.956.969-3.78 2.246-5.3 3.992 2.25-2.011 4.813-3.394 7.488-4.437-.734.137-1.457.285-2.187.445zm46.313-4.234c2.094.37 4.227.863 6.246 1.683a1.997 1.997 0 00-.265-.215c-.34-.277-.68-.511-1.031-.734a25.749 25.749 0 00-3.473-.691c-.496-.012-.996-.032-1.484-.043zm-37.36 1.469c-.265.054-.523.105-.788.171l1.55-.257c-.253.03-.507.054-.773.086zm0 0"/></g></g></g><g mask="url(#prefix__A)"><g clip-path="url(#prefix__B)" transform="translate(3 291)"><g clip-path="url(#prefix__C)"><path fill="#231f20" d="M32.855 79.262a94.64 94.64 0 01-11.882-.742c-2.094-.266-4.207-.66-6.172-1.524-2.453-.754-4.715-2.129-6.582-4.617-3.176-4.234-4.102-10.34-4.844-16.758-.363-3.129-.734-6.309-1-9.5-.02-.098-.031-.18-.05-.277-1.16-6.352-1.36-12.84-1.552-19.11C.57 20.086.613 13.766 3.437 9.543c2.56-3.844 6.692-4.691 10.708-5.234 3.46-.47 6.933-.907 10.425-1.29a97.102 97.102 0 0122.7-1.968c.402-.02.792-.031 1.199-.043C51.516.84 54.562.699 57.613.594 60.586.5 63.496.52 66.172 1.668c5.383.277 11.195 1.492 14.637 7.426 2.527 4.375 2.96 10.054 3.207 15.98l.687 16.824c.383 3.02.606 6.063.555 9.118a39.168 39.168 0 01-.223 3.574c-.097 2.629-.426 5.265-1.246 7.597-.477 3.81-1.75 7.364-4.457 10.415a.525.525 0 01-.754.043.522.522 0 01-.043-.754c1.625-1.84 2.695-3.875 3.387-6.067 0 0-.012.024-.02.031-.851 1.618-1.87 3.067-3.101 4.247-.586 1.449-1.309 2.777-2.242 3.894-3.368 4.055-8.23 4.34-13.36 4.297l-15.781-.148a95.151 95.151 0 01-14.574 1.117zm-6.87-1.309c3.992.29 7.995.332 11.98.11zm26.953-.808l10.28.097c4.844.031 9.473-.222 12.532-3.918.45-.531.84-1.117 1.191-1.754-2.836 1.79-6.097 2.075-8.984 2.332-1.531.137-3.059.266-4.59.383a95.299 95.299 0 01-10.43 2.86zm-37.922-1.2c2.398.766 5 .89 7.55.914l24.778.235a94.813 94.813 0 0011.129-2.418 90.322 90.322 0 01-8.899.574c-8.574.523-17.176.887-25.715 1.086-4.64.11-9.484-.117-13.187-4.148-.16-.172-.32-.352-.469-.532.203.328.414.637.649.938 1.21 1.594 2.644 2.636 4.164 3.351zM7.473 63.773c.894 3.02 2.136 5.7 3.972 7.692 3.41 3.703 7.797 3.914 12.383 3.808 4.813-.117 9.645-.277 14.477-.488a101 101 0 01-11.418-1.832c-5.969-1.308-12.735-3.5-17.649-9.82a26.532 26.532 0 01-2.347-3.594c.148 1.434.328 2.871.582 4.242zm-.84-7.152c.926 2.066 2.062 4.066 3.453 5.852 4.703 6.054 11.258 8.172 17.035 9.437A97.817 97.817 0 0049.54 74.2c3.082-.192 6.16-.395 9.242-.618a91.343 91.343 0 006.043-.914c1.817-.652 3.61-1.363 5.383-2.117a.532.532 0 01.703.273.55.55 0 01-.043.512c2.633-.691 5.34-1.668 7.602-3.414.883-2.895 1.265-6.043 1.488-8.555 1.242-13.96-.469-29.097-4.8-42.62-.997-3.118-2.497-7.216-4.77-10.259C67.754 4.914 64.8 4.18 61.89 3.66a104.48 104.48 0 00-7.633-1.066c-8.934.14-17.832.863-26.63 2.16a98.052 98.052 0 00-3.937.969c-5.726 1.511-11.546 3.68-15.41 9.234-.328.469-.629.957-.914 1.45-1.55 4.55-1.699 10.116-1.699 15.085 0 8.32.34 16.79 1 25.153zm70.87 13.215c-2.241 1.332-4.745 2.117-7.16 2.715-.105.02-.198.05-.304.074 2.219-.266 4.523-.758 6.52-2.074.328-.215.636-.461.945-.715zM4.149 53.133c.086.785.18 1.586.278 2.363.71 6.149 1.582 12.012 4.472 16.02-1.203-2.18-1.957-4.766-2.457-7.512-.89-3.02-1.433-6.352-1.867-9.66-.148-.403-.285-.817-.426-1.223zm68.63-44.88c1.507 2.704 2.59 5.716 3.367 8.142 4.386 13.66 6.105 28.937 4.851 43.046-.187 2.118-.488 4.66-1.094 7.16.395-.413.766-.851 1.118-1.328.742-1.425 1.37-3.043 1.859-4.812.297-4.5-.406-9.34-1.094-14.106-.66-4.53-1.34-9.226-1.16-13.566.074-1.871.14-3.766.14-5.637a24.44 24.44 0 00-.171-.726c-1.242-5.457-2.805-12.246-6.352-16.598a13.412 13.412 0 00-1.476-1.562zm8.964 23.24c-.012.445-.031.882-.055 1.327-.18 4.246.489 8.887 1.149 13.375.434 2.989.871 6.012 1.07 8.97.024-.169.043-.33.055-.5.094-2.403 0-4.833-.094-7.013l-.234-5.68c-.457-3.523-1.137-7.035-1.89-10.492zM3.375 29.8c.371 6.777.965 13.586 1.75 20.351-.36-6.246-.55-12.5-.55-18.683 0-3.192.062-6.617.507-9.903-.879 2.743-1.41 5.594-1.707 8.235zm.043 16.183c.105.582.23 1.192.371 1.817a330.108 330.108 0 01-.723-7.383c.075 1.852.204 3.715.352 5.574zm78.41-18.96c.496 2.203 1.008 4.425 1.465 6.671l-.352-8.566c-.234-5.79-.648-11.32-3.058-15.492-2.442-4.235-6.254-5.883-10.207-6.532.215.086.414.18.629.266 3.64 1.649 6.68 4.555 8.558 8.184 2.348 4.53 2.942 9.957 2.965 15.468zM17.477 4.925c-1.063.136-2.133.273-3.196.426-3.93.53-7.656 1.308-9.972 4.777-2.633 3.957-2.664 10.36-2.473 16.574.062 2.012.125 4.043.223 6.086.05-.957.136-1.969.253-3.012a265.594 265.594 0 01-.19-3.957c-.204-4.746-.247-10.129 1.866-13.863 2.157-3.82 5.875-4.914 9.485-5.715.648-.137 1.297-.273 1.945-.414.68-.328 1.371-.629 2.07-.894zm-4.98 2.625c-2.974.734-5.872 1.886-7.583 4.918-1.828 3.234-1.934 7.937-1.773 12.258.668-3.024 1.687-6.086 3.226-8.79.215-.609.45-1.203.715-1.765 1.348-2.926 3.238-5.055 5.414-6.621zm58.581-1.903a15.463 15.463 0 013.992 3.5c2.7 3.309 4.27 7.875 5.418 12.247-.351-3.364-1.105-6.555-2.57-9.364-1.742-3.363-4.547-6.062-7.89-7.629.359.383.71.797 1.038 1.235zM15.79 6.828c-1.953.969-3.781 2.246-5.3 3.992 2.253-2.011 4.812-3.394 7.488-4.437-.73.137-1.454.285-2.188.445zm46.316-4.234c2.09.37 4.227.863 6.243 1.683a1.774 1.774 0 00-.266-.215c-.34-.277-.68-.511-1.027-.734a25.749 25.749 0 00-3.473-.691c-.5-.012-1-.032-1.488-.043zM24.742 4.063c-.265.054-.52.105-.785.171l1.55-.257c-.257.03-.51.054-.777.086zm0 0"/></g></g></g></svg>