<svg xmlns="http://www.w3.org/2000/svg" width="500" viewBox="0 0 375 375" height="500" version="1.0"><defs><clipPath id="prefix__b"><path d="M212.395 259.063h84.75v78.75h-84.75zm0 0"/></clipPath><clipPath id="prefix__e"><path d="M.855.945h84.75v78.75H.855zm0 0"/></clipPath><clipPath id="prefix__d"><path d="M0 0h86v80H0z"/></clipPath><clipPath id="prefix__h"><path d="M.426.938h84.75v78.75H.426zm0 0"/></clipPath><clipPath id="prefix__g"><path d="M0 0h86v80H0z"/></clipPath><clipPath id="prefix__k"><path d="M.54.648h84.75v78.75H.54zm0 0"/></clipPath><clipPath id="prefix__j"><path d="M0 0h86v80H0z"/></clipPath><clipPath id="prefix__n"><path d="M.71.176h84.75v78.75H.71zm0 0"/></clipPath><clipPath id="prefix__m"><path d="M0 0h86v80H0z"/></clipPath><clipPath id="prefix__q"><path d="M1.07.07h84.75v78.75H1.07zm0 0"/></clipPath><clipPath id="prefix__p"><path d="M0 0h86v79H0z"/></clipPath><clipPath id="prefix__t"><path d="M.215.43h84.75v78.75H.215zm0 0"/></clipPath><clipPath id="prefix__s"><path d="M0 0h86v80H0z"/></clipPath><clipPath id="prefix__w"><path d="M.746.727h84.75v78.75H.746zm0 0"/></clipPath><clipPath id="prefix__v"><path d="M0 0h86v80H0z"/></clipPath><clipPath id="prefix__z"><path d="M.395.21h84.75v78.75H.395zm0 0"/></clipPath><clipPath id="prefix__y"><path d="M0 0h86v80H0z"/></clipPath><clipPath id="prefix__A"><path d="M37.5 37.5h84.75v78.75H37.5zm0 0"/></clipPath><clipPath id="prefix__D"><path d="M.785.29h84.75v78.75H.785zm0 0"/></clipPath><clipPath id="prefix__C"><path d="M0 0h86v80H0z"/></clipPath><clipPath id="prefix__G"><path d="M.395.43h84.75v78.75H.395zm0 0"/></clipPath><clipPath id="prefix__F"><path d="M0 0h86v80H0z"/></clipPath><mask id="prefix__c"><g filter="url(#prefix__a)"><path fill-opacity=".5" d="M-37.5-37.5h450v450h-450z"/></g></mask><mask id="prefix__f"><g filter="url(#prefix__a)"><path fill-opacity=".65" d="M-37.5-37.5h450v450h-450z"/></g></mask><mask id="prefix__i"><g filter="url(#prefix__a)"><path fill-opacity=".5" d="M-37.5-37.5h450v450h-450z"/></g></mask><mask id="prefix__l"><g filter="url(#prefix__a)"><path fill-opacity=".65" d="M-37.5-37.5h450v450h-450z"/></g></mask><mask id="prefix__o"><g filter="url(#prefix__a)"><path fill-opacity=".5" d="M-37.5-37.5h450v450h-450z"/></g></mask><mask id="prefix__r"><g filter="url(#prefix__a)"><path fill-opacity=".5" d="M-37.5-37.5h450v450h-450z"/></g></mask><mask id="prefix__u"><g filter="url(#prefix__a)"><path fill-opacity=".5" d="M-37.5-37.5h450v450h-450z"/></g></mask><mask id="prefix__x"><g filter="url(#prefix__a)"><path fill-opacity=".65" d="M-37.5-37.5h450v450h-450z"/></g></mask><mask id="prefix__B"><g filter="url(#prefix__a)"><path fill-opacity=".5" d="M-37.5-37.5h450v450h-450z"/></g></mask><mask id="prefix__E"><g filter="url(#prefix__a)"><path fill-opacity=".5" d="M-37.5-37.5h450v450h-450z"/></g></mask><filter x="0%" y="0%" width="100%" height="100%" id="prefix__a"><feColorMatrix values="0 0 0 0 1 0 0 0 0 1 0 0 0 0 1 0 0 0 1 0" color-interpolation-filters="sRGB"/></filter></defs><g clip-path="url(#prefix__b)"><path fill="#231f20" d="M244.66 337.781c-3.965 0-7.933-.246-11.887-.746-2.09-.265-4.203-.656-6.168-1.52-2.453-.753-4.718-2.128-6.585-4.617-3.176-4.234-4.102-10.343-4.844-16.757-.36-3.13-.73-6.309-.996-9.5-.024-.098-.035-.184-.055-.278-1.156-6.351-1.36-12.843-1.55-19.11-.204-6.648-.16-12.968 2.663-17.19 2.563-3.844 6.692-4.696 10.707-5.239 3.461-.465 6.934-.902 10.43-1.285a97.07 97.07 0 0122.695-1.969c.403-.02.797-.03 1.2-.043a447.37 447.37 0 019.144-.414c2.973-.097 5.883-.074 8.559 1.075 5.386.277 11.195 1.488 14.636 7.425 2.528 4.375 2.961 10.055 3.207 15.98l.692 16.821c.383 3.024.605 6.066.55 9.121a37.9 37.9 0 01-.222 3.574c-.094 2.63-.426 5.266-1.242 7.598-.477 3.809-1.754 7.36-4.461 10.414a.525.525 0 01-.754.043.525.525 0 01-.043-.754c1.625-1.844 2.7-3.875 3.387-6.066 0 0-.008.02-.02.031-.851 1.617-1.871 3.066-3.101 4.246-.582 1.445-1.305 2.777-2.243 3.895-3.363 4.054-8.23 4.34-13.359 4.296l-15.781-.148a95.139 95.139 0 01-14.57 1.117zm-6.875-1.308c3.996.289 8 .332 11.98.105zm26.957-.809l10.281.098c4.84.031 9.473-.227 12.532-3.918.445-.531.84-1.117 1.187-1.754-2.836 1.785-6.094 2.074-8.984 2.328-1.528.14-3.059.266-4.586.383a94.924 94.924 0 01-10.43 2.863zm-37.926-1.203c2.399.766 5 .894 7.551.918l24.778.23a94.627 94.627 0 0011.128-2.414 91.535 91.535 0 01-8.898.575c-8.57.523-17.172.882-25.71 1.085-4.642.106-9.485-.117-13.192-4.148-.16-.172-.32-.352-.47-.531.204.328.415.637.65.933a10.916 10.916 0 004.163 3.352zm-7.539-12.172c.891 3.024 2.133 5.703 3.97 7.695 3.41 3.7 7.796 3.914 12.386 3.809 4.808-.117 9.64-.277 14.472-.492-3.8-.383-7.601-1-11.414-1.828-5.968-1.309-12.734-3.5-17.652-9.82a26.703 26.703 0 01-2.348-3.598c.149 1.437.329 2.875.586 4.246zm-.84-7.148c.922 2.062 2.06 4.062 3.45 5.851 4.707 6.055 11.258 8.172 17.035 9.438a97.85 97.85 0 0022.422 2.289c3.078-.192 6.16-.395 9.238-.617a88.48 88.48 0 006.043-.918 96.215 96.215 0 005.387-2.118.527.527 0 01.699.278.54.54 0 01-.043.511c2.633-.69 5.344-1.671 7.605-3.414.88-2.894 1.262-6.043 1.485-8.554 1.242-13.961-.465-29.102-4.801-42.625-.996-3.117-2.492-7.211-4.766-10.254-2.636-1.574-5.586-2.309-8.496-2.832a104.86 104.86 0 00-7.636-1.063c-8.934.137-17.832.864-26.625 2.16a99.896 99.896 0 00-3.942.97c-5.722 1.507-11.543 3.679-15.41 9.234-.328.468-.625.957-.914 1.445-1.55 4.555-1.7 10.121-1.7 15.09 0 8.32.34 16.789 1 25.148zm70.868 13.214c-2.239 1.329-4.746 2.118-7.157 2.711-.105.024-.203.055-.308.075 2.219-.266 4.523-.754 6.52-2.075.331-.21.64-.457.945-.71zm-73.352-16.703c.082.786.18 1.582.274 2.36.71 6.152 1.582 12.011 4.472 16.023-1.199-2.18-1.953-4.765-2.453-7.512-.894-3.02-1.434-6.351-1.871-9.66-.148-.402-.285-.82-.422-1.222zm68.625-44.879c1.512 2.704 2.594 5.715 3.367 8.141 4.387 13.66 6.11 28.938 4.856 43.047-.192 2.117-.488 4.66-1.094 7.16.39-.414.766-.851 1.113-1.332.746-1.426 1.371-3.043 1.86-4.809.297-4.5-.403-9.34-1.094-14.105-.66-4.535-1.34-9.227-1.156-13.566.074-1.875.136-3.766.136-5.641-.054-.242-.105-.477-.168-.723-1.246-5.457-2.804-12.246-6.351-16.597a14.106 14.106 0 00-1.477-1.563zm8.965 23.239c-.012.445-.031.883-.05 1.328-.184 4.246.487 8.883 1.144 13.375.437 2.988.87 6.012 1.074 8.969.02-.172.043-.332.05-.5.098-2.407 0-4.832-.093-7.012l-.234-5.684c-.457-3.52-1.137-7.031-1.891-10.488zm-78.367-1.696c.37 6.782.969 13.59 1.754 20.356-.364-6.246-.555-12.5-.555-18.684 0-3.191.066-6.617.512-9.906-.883 2.746-1.414 5.598-1.711 8.234zm.043 16.184c.105.586.234 1.191.37 1.82a354.924 354.924 0 01-.722-7.382c.074 1.851.203 3.71.352 5.574zm78.41-18.957c.5 2.2 1.008 4.426 1.465 6.668l-.352-8.563c-.23-5.789-.644-11.32-3.058-15.492-2.442-4.234-6.254-5.883-10.204-6.531.211.082.415.18.625.266 3.645 1.648 6.68 4.554 8.56 8.18 2.347 4.534 2.94 9.96 2.964 15.472zm-64.348-22.102c-1.062.141-2.136.278-3.199.426-3.93.535-7.656 1.309-9.973 4.778-2.632 3.96-2.664 10.363-2.472 16.578.062 2.011.129 4.043.222 6.086.055-.957.137-1.97.254-3.012-.074-1.32-.136-2.637-.191-3.957-.2-4.746-.242-10.13 1.871-13.863 2.156-3.82 5.871-4.918 9.484-5.715.649-.137 1.293-.278 1.942-.414.68-.328 1.37-.63 2.07-.895zm-4.98 2.63c-2.977.734-5.875 1.882-7.586 4.917-1.824 3.235-1.93 7.934-1.774 12.254.672-3.02 1.692-6.086 3.23-8.789.212-.605.446-1.2.712-1.765 1.347-2.926 3.238-5.051 5.418-6.618zm58.578-1.903a15.478 15.478 0 013.996 3.5c2.695 3.309 4.27 7.871 5.414 12.246-.348-3.363-1.101-6.555-2.57-9.363-1.742-3.363-4.543-6.067-7.89-7.63.362.384.71.798 1.042 1.235zm-55.29 1.18c-1.952.968-3.776 2.246-5.296 3.988 2.25-2.008 4.809-3.39 7.484-4.434-.73.137-1.453.286-2.187.446zm46.317-4.235c2.094.371 4.227.864 6.246 1.68-.086-.074-.172-.148-.265-.211-.34-.277-.68-.512-1.032-.734a25.75 25.75 0 00-3.472-.692c-.5-.011-1-.031-1.488-.043zm-37.363 1.469c-.266.05-.52.106-.785.168.52-.082 1.031-.168 1.55-.254-.253.031-.507.055-.773.086zm0 0"/></g><g mask="url(#prefix__c)"><g clip-path="url(#prefix__d)" transform="translate(98 143)"><g clip-path="url(#prefix__e)"><path fill="#231f20" d="M33.121 79.664c-3.965 0-7.934-.242-11.887-.742-2.09-.266-4.203-.66-6.168-1.524-2.453-.753-4.718-2.125-6.586-4.617-3.175-4.234-4.101-10.34-4.843-16.758-.36-3.125-.73-6.308-.996-9.5-.024-.093-.036-.18-.055-.277-1.156-6.351-1.36-12.84-1.55-19.11-.204-6.648-.161-12.968 2.663-17.19 2.563-3.84 6.692-4.692 10.707-5.235 3.461-.469 6.934-.906 10.43-1.29A97.069 97.069 0 0147.53 1.454c.403-.02.797-.031 1.2-.043a447.37 447.37 0 019.144-.414c2.973-.094 5.883-.074 8.559 1.074 5.386.278 11.195 1.493 14.636 7.43 2.528 4.371 2.961 10.05 3.207 15.98l.692 16.82c.383 3.02.605 6.063.55 9.118a37.819 37.819 0 01-.222 3.574c-.094 2.63-.426 5.266-1.242 7.598-.477 3.808-1.754 7.363-4.461 10.414a.522.522 0 01-.754.043.525.525 0 01-.043-.754c1.625-1.84 2.7-3.871 3.387-6.066 0 0-.008.023-.02.035-.852 1.617-1.871 3.062-3.102 4.242-.582 1.45-1.304 2.777-2.242 3.894-3.363 4.055-8.23 4.344-13.36 4.301l-15.78-.152a95.139 95.139 0 01-14.57 1.117zm-6.875-1.309c3.996.29 8 .332 11.98.11zm26.957-.808l10.281.098c4.84.03 9.473-.223 12.532-3.915.445-.535.84-1.117 1.187-1.757-2.836 1.789-6.094 2.074-8.984 2.332-1.528.136-3.059.265-4.586.382a95.781 95.781 0 01-10.43 2.86zm-37.926-1.2c2.399.766 5.004.891 7.551.915l24.777.234a95.422 95.422 0 0011.13-2.414 92.783 92.783 0 01-8.9.574c-8.57.52-17.17.883-25.71 1.082-4.64.11-9.484-.117-13.191-4.148-.16-.168-.32-.352-.47-.531.204.328.415.636.65.937 1.21 1.594 2.644 2.637 4.163 3.352zM7.738 64.177c.89 3.02 2.133 5.703 3.969 7.691 3.41 3.703 7.797 3.914 12.387 3.809 4.808-.117 9.64-.278 14.472-.489-3.8-.382-7.601-1-11.414-1.832-5.968-1.308-12.734-3.5-17.652-9.82a26.662 26.662 0 01-2.348-3.594c.149 1.434.328 2.871.586 4.243zm-.84-7.153c.922 2.067 2.059 4.067 3.45 5.852 4.707 6.055 11.257 8.172 17.035 9.438a97.633 97.633 0 0022.422 2.289c3.078-.192 6.16-.395 9.238-.618a90.953 90.953 0 006.043-.914 99.324 99.324 0 005.387-2.117.527.527 0 01.699.277.533.533 0 01-.043.508c2.633-.691 5.344-1.668 7.605-3.414.88-2.894 1.262-6.043 1.485-8.554 1.242-13.958-.465-29.098-4.801-42.622-.996-3.117-2.492-7.214-4.766-10.257-2.636-1.575-5.586-2.309-8.496-2.829-2.55-.449-5.09-.808-7.636-1.066-8.934.14-17.833.863-26.625 2.16a99.9 99.9 0 00-3.942.969C18.23 7.637 12.41 9.809 8.543 15.359c-.328.47-.625.957-.914 1.45-1.55 4.55-1.7 10.117-1.7 15.086 0 8.32.34 16.789 1 25.152zm70.868 13.215c-2.239 1.332-4.746 2.117-7.157 2.715-.105.02-.203.05-.308.074 2.219-.265 4.523-.757 6.52-2.074.331-.215.64-.457.945-.715zM4.414 53.535c.082.79.18 1.586.274 2.363.71 6.149 1.582 12.012 4.472 16.024-1.2-2.184-1.953-4.77-2.453-7.512-.894-3.023-1.434-6.351-1.871-9.66-.149-.406-.285-.82-.422-1.227zM73.04 8.656c1.512 2.703 2.594 5.715 3.367 8.14 4.387 13.661 6.11 28.942 4.856 43.048-.192 2.117-.489 4.66-1.094 7.16.39-.414.766-.852 1.113-1.328.746-1.426 1.371-3.043 1.86-4.809.296-4.5-.403-9.344-1.094-14.11-.66-4.53-1.34-9.222-1.156-13.566.074-1.87.136-3.765.136-5.636-.054-.246-.105-.48-.168-.727-1.246-5.457-2.804-12.246-6.351-16.598a14.106 14.106 0 00-1.477-1.562zm8.965 23.239c-.012.445-.031.882-.05 1.328-.184 4.246.487 8.886 1.144 13.375.437 2.992.87 6.011 1.074 8.968.02-.168.043-.328.05-.5.098-2.402 0-4.828-.093-7.011l-.234-5.68c-.457-3.523-1.137-7.035-1.891-10.492zM3.637 30.203c.37 6.777.968 13.586 1.754 20.352a322.3 322.3 0 01-.555-18.68c0-3.195.066-6.621.512-9.906-.883 2.742-1.414 5.593-1.711 8.234zm.043 16.184c.105.582.234 1.191.37 1.816a354.93 354.93 0 01-.722-7.383c.074 1.852.203 3.715.352 5.575zm78.41-18.961c.5 2.203 1.008 4.426 1.465 6.672l-.352-8.567c-.23-5.789-.644-11.32-3.058-15.492-2.442-4.234-6.254-5.883-10.204-6.531.211.086.414.18.625.265 3.645 1.649 6.68 4.555 8.559 8.184 2.348 4.531 2.941 9.957 2.965 15.469zM17.742 5.328a298.92 298.92 0 00-3.199.426c-3.93.531-7.656 1.309-9.973 4.777-2.633 3.957-2.664 10.364-2.472 16.574.062 2.012.129 4.043.222 6.086.055-.957.137-1.968.254-3.011a265.608 265.608 0 01-.191-3.957c-.2-4.746-.242-10.13 1.87-13.864 2.157-3.82 5.872-4.914 9.485-5.71l1.942-.419c.68-.328 1.37-.625 2.07-.89zm-4.98 2.629c-2.977.734-5.875 1.883-7.586 4.914-1.824 3.234-1.93 7.938-1.774 12.258.672-3.024 1.692-6.086 3.23-8.79.212-.605.446-1.202.712-1.765 1.347-2.926 3.238-5.054 5.418-6.617zM71.34 6.051a15.552 15.552 0 013.996 3.5c2.695 3.308 4.27 7.875 5.414 12.246-.348-3.363-1.102-6.555-2.57-9.363-1.743-3.36-4.543-6.063-7.89-7.63.362.383.71.801 1.042 1.235zM16.05 7.23c-1.952.968-3.777 2.246-5.296 3.992 2.25-2.012 4.809-3.395 7.484-4.438-.73.137-1.453.29-2.187.445zm46.317-4.235c2.094.375 4.227.863 6.246 1.684a3.543 3.543 0 00-.265-.215c-.34-.277-.68-.512-1.032-.735a26.37 26.37 0 00-3.472-.69c-.5-.013-1-.032-1.489-.044zM25.004 4.465c-.266.055-.52.105-.785.172l1.55-.258c-.253.035-.507.055-.773.086zm0 0"/></g></g></g><g mask="url(#prefix__f)"><g clip-path="url(#prefix__g)" transform="translate(183 115)"><g clip-path="url(#prefix__h)"><path fill="#231f20" d="M32.688 79.66c-3.961 0-7.934-.246-11.883-.746-2.094-.266-4.207-.66-6.172-1.523-2.453-.754-4.715-2.125-6.582-4.618-3.176-4.234-4.102-10.34-4.844-16.757-.36-3.125-.734-6.309-1-9.5-.02-.094-.031-.18-.05-.278C.996 39.887.796 33.398.604 27.133.402 20.48.445 14.16 3.27 9.938c2.562-3.84 6.69-4.692 10.707-5.235 3.46-.469 6.933-.906 10.43-1.289a97.28 97.28 0 0122.695-1.969c.402-.02.796-.03 1.199-.039 3.047-.172 6.097-.308 9.144-.418 2.973-.093 5.883-.074 8.559 1.075 5.387.277 11.195 1.492 14.637 7.43 2.527 4.37 2.96 10.054 3.207 15.98l.691 16.82c.379 3.02.606 6.062.55 9.117a39.168 39.168 0 01-.222 3.574c-.097 2.63-.426 5.266-1.242 7.598-.48 3.809-1.754 7.363-4.46 10.418a.525.525 0 01-.755.04.525.525 0 01-.043-.755c1.625-1.84 2.695-3.87 3.387-6.062 0 0-.012.02-.02.03-.851 1.618-1.87 3.063-3.101 4.243-.586 1.45-1.309 2.777-2.242 3.895-3.368 4.054-8.23 4.343-13.36 4.3l-15.781-.148a95.634 95.634 0 01-14.57 1.117zm-6.872-1.308c3.997.285 8 .328 11.98.105zm26.957-.809l10.278.094c4.844.031 9.476-.223 12.535-3.914.445-.532.836-1.118 1.187-1.758-2.835 1.789-6.093 2.074-8.984 2.332-1.531.137-3.059.266-4.59.383a96.38 96.38 0 01-10.426 2.863zM14.848 76.34c2.398.765 5 .894 7.55.914l24.778.234a95.422 95.422 0 0011.129-2.414 92.783 92.783 0 01-8.899.574c-8.57.52-17.176.883-25.71 1.086-4.645.106-9.485-.117-13.192-4.152-.16-.168-.32-.352-.469-.531.203.332.414.64.649.937 1.21 1.594 2.644 2.637 4.164 3.352zM7.305 64.168c.894 3.02 2.136 5.703 3.972 7.691 3.41 3.704 7.797 3.914 12.383 3.809a751.72 751.72 0 0014.477-.488 101 101 0 01-11.418-1.832c-5.969-1.309-12.73-3.5-17.649-9.82a26.662 26.662 0 01-2.347-3.594c.148 1.433.328 2.87.582 4.246zm-.836-7.152c.922 2.066 2.058 4.066 3.449 5.855 4.707 6.05 11.258 8.168 17.035 9.434a97.611 97.611 0 0022.422 2.289c3.078-.192 6.16-.395 9.238-.617a90.952 90.952 0 006.043-.915 97.954 97.954 0 005.383-2.117.53.53 0 01.703.278c.074.168.051.359-.043.507 2.633-.69 5.34-1.668 7.606-3.414.879-2.894 1.261-6.043 1.484-8.554 1.242-13.957-.465-29.098-4.8-42.621-.997-3.118-2.497-7.215-4.766-10.258-2.637-1.574-5.586-2.309-8.496-2.828-2.551-.45-5.09-.809-7.637-1.067-8.934.14-17.832.864-26.625 2.16-1.317.301-2.637.618-3.942.97-5.722 1.51-11.543 3.683-15.41 9.234-.328.468-.625.96-.914 1.449C5.65 21.355 5.5 26.918 5.5 31.887c0 8.32.34 16.789 1 25.152zM77.336 70.23c-2.238 1.332-4.746 2.118-7.156 2.715-.106.02-.203.055-.309.075 2.219-.266 4.524-.754 6.52-2.075a9.68 9.68 0 00.945-.715zM3.98 53.527c.086.79.184 1.586.278 2.364.71 6.148 1.582 12.011 4.472 16.023-1.199-2.184-1.953-4.77-2.453-7.512-.894-3.023-1.433-6.351-1.87-9.66-.15-.406-.286-.82-.427-1.226zM72.61 8.648c1.507 2.704 2.593 5.715 3.367 8.141 4.386 13.66 6.105 28.941 4.855 43.047-.191 2.117-.488 4.66-1.094 7.16.39-.414.762-.851 1.114-1.328.742-1.426 1.37-3.043 1.859-4.809.297-4.5-.402-9.343-1.094-14.109-.66-4.531-1.34-9.223-1.156-13.566.074-1.871.137-3.766.137-5.637-.055-.246-.106-.48-.172-.723-1.242-5.46-2.801-12.246-6.348-16.597a13.812 13.812 0 00-1.476-1.567zm8.964 23.239a51.3 51.3 0 01-.054 1.332c-.18 4.242.488 8.883 1.148 13.37.434 2.993.871 6.013 1.074 8.97.02-.168.043-.329.051-.5.098-2.403 0-4.829-.094-7.012l-.234-5.68c-.457-3.523-1.137-7.031-1.89-10.492zM3.207 30.195c.371 6.778.965 13.586 1.754 20.352a322.3 322.3 0 01-.555-18.68c0-3.195.067-6.62.512-9.906-.883 2.746-1.414 5.594-1.711 8.234zM3.25 46.38c.105.586.234 1.191.371 1.82-.266-2.46-.508-4.918-.723-7.386.075 1.851.204 3.714.352 5.574zm78.41-18.961c.5 2.203 1.008 4.426 1.465 6.672l-.352-8.567c-.234-5.785-.648-11.32-3.058-15.488C77.273 5.797 73.46 4.148 69.508 3.5c.215.086.414.18.629.266 3.64 1.648 6.68 4.554 8.558 8.183 2.348 4.531 2.942 9.957 2.965 15.469zM17.313 5.32c-1.063.137-2.137.278-3.2.426-3.93.531-7.656 1.309-9.972 4.777-2.633 3.957-2.664 10.364-2.473 16.575.062 2.011.125 4.043.223 6.086.05-.957.136-1.97.254-3.008-.075-1.32-.137-2.64-.192-3.961-.2-4.742-.242-10.13 1.871-13.863C5.98 8.532 9.695 7.437 13.31 6.64c.644-.141 1.293-.278 1.941-.418.68-.328 1.371-.625 2.07-.891zm-4.985 2.63c-2.973.734-5.871 1.882-7.582 4.913-1.824 3.235-1.934 7.938-1.773 12.258.668-3.023 1.687-6.086 3.23-8.789.211-.605.445-1.203.711-1.766 1.348-2.925 3.238-5.054 5.414-6.617zM70.91 6.042a15.616 15.616 0 013.996 3.5c2.696 3.309 4.27 7.875 5.414 12.246-.351-3.36-1.105-6.555-2.57-9.363-1.742-3.36-4.543-6.063-7.89-7.63.363.384.71.802 1.042 1.235zm-55.289 1.18c-1.953.968-3.781 2.246-5.297 3.992 2.25-2.012 4.809-3.395 7.485-4.438-.73.137-1.454.29-2.188.446zm46.316-4.235c2.094.375 4.227.864 6.247 1.684a3.543 3.543 0 00-.266-.215 11.1 11.1 0 00-1.031-.734 26.37 26.37 0 00-3.473-.692c-.5-.008-1-.031-1.488-.043zM24.575 4.457c-.265.055-.52.11-.785.172l1.55-.258c-.253.035-.51.055-.776.086zm0 0"/></g></g></g><g mask="url(#prefix__i)"><g clip-path="url(#prefix__j)" transform="translate(85 279)"><g clip-path="url(#prefix__k)"><path fill="#231f20" d="M32.805 79.371c-3.961 0-7.934-.246-11.887-.746-2.09-.266-4.203-.66-6.168-1.52-2.453-.757-4.715-2.128-6.586-4.617C4.988 68.254 4.066 62.145 3.32 55.73c-.36-3.128-.73-6.308-.996-9.503-.023-.094-.031-.18-.054-.274C1.113 39.602.91 33.11.719 26.843c-.2-6.652-.16-12.968 2.668-17.195 2.558-3.84 6.691-4.691 10.703-5.234A415.31 415.31 0 0124.52 3.13 97.087 97.087 0 0147.215 1.16c.402-.023.797-.031 1.2-.043 3.05-.172 6.097-.308 9.144-.414C60.535.605 63.44.625 66.12 1.777c5.383.274 11.192 1.489 14.633 7.426 2.527 4.371 2.965 10.055 3.207 15.98l.691 16.82c.383 3.024.606 6.067.551 9.118a36.56 36.56 0 01-.223 3.574c-.093 2.63-.425 5.27-1.242 7.598-.476 3.809-1.754 7.363-4.46 10.418a.529.529 0 01-.755.043.533.533 0 01-.043-.758c1.625-1.84 2.7-3.871 3.391-6.062 0 0-.012.02-.023.03-.848 1.618-1.868 3.063-3.102 4.247-.582 1.445-1.305 2.777-2.238 3.894-3.367 4.051-8.23 4.34-13.363 4.297l-15.782-.148a95.558 95.558 0 01-14.57 1.117zm-6.871-1.308a94.28 94.28 0 0011.976.105zm26.953-.81l10.281.095c4.844.03 9.473-.223 12.531-3.914.446-.532.84-1.118 1.188-1.754-2.832 1.785-6.094 2.074-8.985 2.328-1.527.137-3.058.265-4.586.383a96.446 96.446 0 01-10.43 2.863zM14.96 76.052c2.402.765 5.004.894 7.55.914l24.778.234a95.249 95.249 0 0011.129-2.414c-2.95.328-5.926.531-8.898.574-8.57.52-17.172.883-25.711 1.086-4.641.106-9.485-.117-13.192-4.148-.16-.172-.316-.352-.465-.535.2.332.414.64.645.937 1.21 1.598 2.644 2.637 4.164 3.352zM7.42 63.879c.891 3.023 2.134 5.703 3.974 7.691 3.406 3.703 7.793 3.918 12.382 3.809 4.809-.117 9.641-.274 14.473-.488-3.8-.383-7.602-1-11.414-1.829-5.969-1.308-12.734-3.5-17.652-9.82a26.952 26.952 0 01-2.348-3.597c.148 1.437.332 2.87.586 4.246zm-.839-7.149c.926 2.063 2.059 4.063 3.453 5.852 4.703 6.055 11.258 8.172 17.035 9.438a97.594 97.594 0 0022.418 2.285c3.078-.192 6.16-.39 9.239-.618a90.953 90.953 0 006.043-.914 98.079 98.079 0 005.386-2.117.527.527 0 01.7.278.542.542 0 01-.043.511c2.636-.691 5.343-1.672 7.605-3.418.883-2.894 1.266-6.043 1.488-8.554 1.242-13.957-.469-29.098-4.8-42.621-1-3.118-2.497-7.215-4.77-10.254-2.633-1.578-5.586-2.313-8.496-2.832a104.56 104.56 0 00-7.637-1.063c-8.93.137-17.832.86-26.625 2.16-1.316.297-2.633.617-3.941.965-5.723 1.512-11.543 3.684-15.41 9.238-.329.465-.625.957-.91 1.446-1.551 4.554-1.7 10.117-1.7 15.086 0 8.32.34 16.789.996 25.152zm70.871 13.215c-2.242 1.328-4.75 2.118-7.16 2.711-.106.024-.203.055-.309.074 2.22-.265 4.524-.753 6.524-2.074.328-.21.637-.457.945-.71zM4.098 53.238c.086.79.18 1.586.277 2.364.71 6.148 1.582 12.011 4.469 16.023-1.2-2.18-1.953-4.766-2.453-7.512-.891-3.023-1.434-6.351-1.868-9.66-.148-.406-.289-.82-.425-1.223zM72.727 8.363c1.507 2.7 2.59 5.711 3.367 8.137 4.383 13.664 6.105 28.941 4.851 43.047-.191 2.121-.488 4.66-1.093 7.164.394-.418.765-.852 1.113-1.332.746-1.426 1.37-3.043 1.86-4.809.296-4.5-.403-9.34-1.095-14.11-.656-4.53-1.335-9.222-1.156-13.562.074-1.875.137-3.77.137-5.64-.05-.246-.106-.48-.168-.723-1.242-5.46-2.805-12.246-6.352-16.598a14.15 14.15 0 00-1.476-1.566zm8.96 23.235c-.007.449-.03.882-.05 1.332-.18 4.242.488 8.883 1.144 13.37.438 2.993.871 6.013 1.074 8.973.02-.171.043-.332.055-.5.094-2.406 0-4.832-.097-7.011l-.235-5.684c-.457-3.52-1.137-7.031-1.89-10.488zM3.32 29.906c.375 6.778.97 13.586 1.754 20.356-.36-6.246-.55-12.504-.55-18.684 0-3.191.062-6.617.507-9.906-.883 2.746-1.41 5.598-1.71 8.234zm.043 16.184c.106.586.235 1.191.371 1.82a330.43 330.43 0 01-.718-7.387c.074 1.852.199 3.715.347 5.579zm78.41-18.961c.5 2.203 1.008 4.426 1.465 6.672l-.347-8.567c-.235-5.785-.649-11.32-3.059-15.488-2.445-4.234-6.258-5.883-10.207-6.535.21.086.414.184.625.266 3.645 1.652 6.68 4.554 8.563 8.183 2.343 4.531 2.94 9.957 2.96 15.469zM17.426 5.03c-1.063.14-2.137.278-3.196.426-3.93.531-7.66 1.309-9.972 4.777C1.62 14.191 1.59 20.598 1.78 26.812c.063 2.008.13 4.043.223 6.086.055-.96.14-1.968.254-3.011-.074-1.32-.137-2.64-.188-3.957-.203-4.746-.246-10.13 1.868-13.864 2.156-3.82 5.874-4.918 9.484-5.714.648-.141 1.297-.278 1.941-.415.68-.332 1.371-.628 2.075-.894zm-4.98 2.63c-2.973.734-5.876 1.882-7.583 4.913C3.035 15.81 2.93 20.512 3.09 24.832c.668-3.023 1.687-6.086 3.226-8.789.211-.605.446-1.203.711-1.766 1.352-2.925 3.239-5.054 5.418-6.617zm58.581-1.907a15.602 15.602 0 013.993 3.5c2.699 3.312 4.27 7.875 5.418 12.246-.352-3.36-1.106-6.55-2.57-9.36-1.743-3.363-4.548-6.066-7.891-7.628.359.383.71.797 1.039 1.234zM15.738 6.938c-1.957.968-3.781 2.242-5.3 3.988 2.25-2.012 4.812-3.395 7.488-4.438-.735.14-1.457.29-2.188.45zm46.313-4.235c2.094.371 4.226.86 6.246 1.68-.086-.074-.172-.149-.266-.215A11.05 11.05 0 0067 3.438a25.75 25.75 0 00-3.473-.692c-.5-.012-.996-.035-1.484-.043zM24.69 4.168c-.265.055-.523.11-.789.172.524-.086 1.032-.172 1.551-.254-.254.031-.508.05-.773.082zm0 0"/></g></g></g><g mask="url(#prefix__l)"><g clip-path="url(#prefix__m)" transform="translate(225 237)"><g clip-path="url(#prefix__n)"><path fill="#231f20" d="M32.973 78.895a94.64 94.64 0 01-11.883-.743c-2.094-.27-4.207-.66-6.172-1.523-2.453-.754-4.715-2.129-6.582-4.617-3.176-4.235-4.102-10.344-4.844-16.758-.363-3.129-.734-6.309-1-9.5-.02-.098-.031-.18-.05-.277-1.16-6.352-1.36-12.844-1.551-19.11C.687 19.72.73 13.398 3.555 9.176 6.113 5.332 10.246 4.48 14.262 3.94c3.46-.468 6.933-.906 10.43-1.289A97.05 97.05 0 0147.386.684c.402-.02.797-.032 1.199-.043A447.37 447.37 0 0157.73.227C60.703.129 63.613.152 66.29 1.3c5.386.277 11.194 1.488 14.636 7.426 2.527 4.375 2.96 10.054 3.207 15.98l.687 16.82c.383 3.024.606 6.067.555 9.121a39.168 39.168 0 01-.223 3.575c-.097 2.629-.425 5.265-1.242 7.597-.48 3.809-1.754 7.36-4.46 10.414a.525.525 0 01-.755.043.525.525 0 01-.043-.754c1.625-1.843 2.696-3.875 3.387-6.066 0 0-.012.023-.02.031-.851 1.617-1.87 3.067-3.101 4.246-.586 1.45-1.309 2.778-2.242 3.895-3.367 4.055-8.23 4.34-13.36 4.297l-15.78-.149a95.139 95.139 0 01-14.571 1.118zm-6.871-1.31c3.996.29 7.996.333 11.98.106zm26.957-.808l10.277.098c4.844.031 9.477-.223 12.535-3.918.445-.531.836-1.117 1.188-1.754-2.836 1.79-6.098 2.074-8.985 2.328-1.531.14-3.058.27-4.59.387a95.473 95.473 0 01-10.425 2.86zm-37.926-1.203c2.398.77 5 .895 7.55.918l24.778.235a95.611 95.611 0 0011.129-2.418 91.535 91.535 0 01-8.899.574c-8.57.523-17.175.883-25.714 1.086-4.641.105-9.48-.117-13.188-4.149-.16-.172-.32-.351-.469-.53.203.327.414.636.649.933a10.916 10.916 0 004.164 3.351zM7.59 63.402c.894 3.024 2.137 5.703 3.973 7.696 3.41 3.703 7.796 3.914 12.382 3.808a751.72 751.72 0 0014.477-.488c-3.8-.387-7.606-1.004-11.418-1.832-5.969-1.309-12.734-3.5-17.649-9.82a26.703 26.703 0 01-2.347-3.598c.148 1.437.328 2.875.582 4.246zm-.836-7.148c.922 2.066 2.059 4.066 3.45 5.851 4.706 6.055 11.257 8.172 17.034 9.438a97.828 97.828 0 0022.422 2.289c3.078-.191 6.156-.394 9.238-.617a88.85 88.85 0 006.043-.918 94.926 94.926 0 005.383-2.117.534.534 0 01.703.277.55.55 0 01-.043.512c2.633-.692 5.34-1.672 7.606-3.414.879-2.895 1.262-6.043 1.484-8.555 1.242-13.96-.465-29.102-4.8-42.621-.997-3.117-2.497-7.215-4.766-10.258-2.637-1.574-5.59-2.309-8.5-2.832a104.458 104.458 0 00-7.633-1.062c-8.934.136-17.832.863-26.625 2.16a98.232 98.232 0 00-3.941.968c-5.723 1.512-11.543 3.68-15.41 9.235-.329.469-.626.957-.915 1.445-1.55 4.555-1.699 10.121-1.699 15.09 0 8.32.34 16.79 1 25.152zM77.62 69.469c-2.242 1.328-4.746 2.117-7.156 2.715-.11.02-.203.05-.309.074 2.219-.266 4.524-.758 6.52-2.078.328-.211.636-.457.945-.711zM4.266 52.766c.086.785.183 1.586.277 2.359.71 6.152 1.582 12.012 4.473 16.023-1.204-2.18-1.957-4.765-2.454-7.511-.894-3.02-1.433-6.352-1.87-9.66-.149-.403-.286-.817-.426-1.223zm68.629-44.88c1.507 2.704 2.593 5.716 3.367 8.141 4.386 13.66 6.105 28.938 4.855 43.047-.191 2.117-.488 4.66-1.094 7.16.391-.414.762-.851 1.114-1.328.742-1.426 1.37-3.043 1.86-4.812.296-4.5-.403-9.34-1.095-14.106-.66-4.535-1.34-9.226-1.16-13.566.074-1.871.14-3.766.14-5.64-.054-.243-.105-.477-.171-.723-1.242-5.457-2.8-12.247-6.352-16.598a13.722 13.722 0 00-1.472-1.563zm8.964 23.239c-.011.445-.03.883-.054 1.328-.18 4.246.488 8.883 1.148 13.375.434 2.988.871 6.012 1.074 8.969.02-.172.04-.328.051-.5.098-2.406 0-4.832-.094-7.012l-.234-5.68c-.457-3.523-1.137-7.035-1.89-10.492zM3.492 29.434c.371 6.777.965 13.586 1.754 20.351-.363-6.246-.555-12.5-.555-18.683 0-3.192.063-6.618.512-9.907-.883 2.746-1.414 5.598-1.71 8.239zm.043 16.18c.106.585.235 1.19.371 1.82a330.097 330.097 0 01-.722-7.383c.074 1.851.203 3.71.351 5.574zm78.41-18.958c.496 2.203 1.008 4.426 1.465 6.668l-.351-8.562c-.235-5.79-.649-11.32-3.059-15.492-2.441-4.235-6.254-5.883-10.207-6.532.215.086.414.18.629.266 3.64 1.648 6.68 4.555 8.558 8.18 2.348 4.535 2.942 9.96 2.965 15.472zM17.594 4.56c-1.059.136-2.133.273-3.196.421-3.93.536-7.656 1.313-9.972 4.778-2.633 3.96-2.664 10.363-2.473 16.578.063 2.012.125 4.043.223 6.086.05-.957.136-1.969.254-3.012-.075-1.32-.137-2.637-.192-3.957-.203-4.746-.242-10.129 1.871-13.863 2.157-3.82 5.871-4.914 9.48-5.715.65-.137 1.298-.277 1.946-.414.68-.328 1.371-.629 2.07-.895zm-4.98 2.625c-2.973.734-5.872 1.882-7.583 4.918-1.824 3.234-1.933 7.937-1.773 12.253.668-3.02 1.687-6.085 3.23-8.785.211-.61.446-1.203.711-1.77 1.348-2.925 3.239-5.05 5.414-6.616zM71.194 5.28a15.542 15.542 0 013.996 3.5c2.696 3.309 4.266 7.871 5.414 12.246-.351-3.363-1.105-6.554-2.57-9.363-1.742-3.363-4.543-6.066-7.89-7.629.363.383.71.797 1.043 1.235zm-55.289 1.18c-1.953.969-3.781 2.246-5.297 3.988 2.25-2.008 4.809-3.39 7.485-4.433-.73.136-1.453.285-2.188.445zm46.317-4.234c2.09.37 4.226.863 6.246 1.68-.086-.075-.172-.15-.266-.212-.34-.277-.68-.511-1.031-.734a25.75 25.75 0 00-3.473-.691c-.5-.012-1-.032-1.488-.043zM24.859 3.695c-.265.055-.52.106-.785.168.52-.082 1.031-.168 1.551-.254-.254.032-.512.055-.777.086zm0 0"/></g></g></g><g mask="url(#prefix__o)"><g clip-path="url(#prefix__p)" transform="translate(271 11)"><g clip-path="url(#prefix__q)"><path fill="#231f20" d="M33.336 78.79c-3.965 0-7.934-.247-11.887-.747-2.09-.266-4.203-.66-6.168-1.52-2.453-.757-4.719-2.128-6.586-4.617-3.175-4.234-4.101-10.344-4.843-16.758-.36-3.128-.73-6.308-.997-9.5-.023-.097-.035-.183-.054-.277-1.156-6.351-1.36-12.844-1.551-19.11-.203-6.648-.16-12.968 2.664-17.195 2.563-3.84 6.691-4.691 10.707-5.234 3.461-.465 6.934-.902 10.43-1.285A97.069 97.069 0 0147.746.578c.402-.023.797-.031 1.2-.043C51.991.363 55.042.227 58.09.121c2.972-.098 5.883-.074 8.558 1.074 5.387.278 11.196 1.489 14.637 7.426 2.528 4.375 2.961 10.055 3.207 15.98l.692 16.82c.382 3.024.605 6.067.55 9.122a37.98 37.98 0 01-.222 3.574c-.094 2.625-.426 5.266-1.242 7.594-.477 3.812-1.754 7.363-4.461 10.418a.525.525 0 01-.754.043.53.53 0 01-.043-.758c1.625-1.84 2.699-3.871 3.386-6.062 0 0-.007.02-.02.03-.85 1.618-1.87 3.067-3.1 4.247-.583 1.445-1.305 2.777-2.243 3.894-3.363 4.055-8.23 4.34-13.36 4.297l-15.78-.148a95.139 95.139 0 01-14.57 1.117zm-6.875-1.31c3.996.29 8 .329 11.98.106zm26.957-.808l10.281.098c4.84.03 9.473-.227 12.531-3.918.446-.532.84-1.118 1.188-1.754-2.836 1.785-6.094 2.074-8.984 2.328-1.528.14-3.059.265-4.586.383a95.8 95.8 0 01-10.43 2.863zm-37.926-1.203c2.399.765 5.004.894 7.551.914l24.777.234a94.627 94.627 0 0011.13-2.414 91.536 91.536 0 01-8.9.574 692.68 692.68 0 01-25.71 1.086c-4.64.106-9.485-.117-13.192-4.148a11.99 11.99 0 01-.468-.531c.203.328.414.636.648.933a10.916 10.916 0 004.164 3.352zM7.953 63.297c.89 3.023 2.133 5.703 3.969 7.695 3.41 3.7 7.797 3.914 12.387 3.809 4.808-.117 9.64-.278 14.472-.492-3.8-.383-7.601-1-11.414-1.829-5.969-1.308-12.734-3.5-17.652-9.82a26.703 26.703 0 01-2.348-3.597c.149 1.437.328 2.874.586 4.246zm-.84-7.149c.922 2.063 2.059 4.063 3.45 5.852 4.707 6.055 11.257 8.172 17.035 9.438a97.85 97.85 0 0022.422 2.289c3.078-.192 6.16-.395 9.238-.618a88.48 88.48 0 006.043-.918 95.045 95.045 0 005.386-2.117.527.527 0 01.7.278.54.54 0 01-.043.511c2.633-.691 5.344-1.672 7.605-3.414.88-2.894 1.262-6.047 1.485-8.554 1.246-13.961-.465-29.102-4.797-42.625-1-3.118-2.496-7.211-4.77-10.254-2.633-1.575-5.586-2.309-8.496-2.832-2.55-.446-5.09-.809-7.637-1.063a203.23 203.23 0 00-26.625 2.16 99.9 99.9 0 00-3.941.969c-5.723 1.508-11.543 3.68-15.41 9.234-.328.47-.625.957-.914 1.446-1.551 4.554-1.7 10.12-1.7 15.086 0 8.32.34 16.793 1 25.152zM77.98 69.363c-2.238 1.328-4.746 2.117-7.156 2.711-.105.024-.203.055-.308.074 2.218-.265 4.523-.753 6.52-2.074.331-.21.64-.457.944-.71zM4.63 52.66c.082.785.18 1.582.273 2.36.711 6.152 1.582 12.011 4.473 16.023-1.2-2.18-1.953-4.766-2.453-7.512-.89-3.02-1.434-6.351-1.871-9.66-.149-.402-.285-.82-.422-1.223zM73.258 7.781c1.508 2.703 2.59 5.715 3.363 8.14 4.387 13.661 6.11 28.938 4.856 43.048-.192 2.117-.489 4.66-1.094 7.16.39-.414.765-.852 1.113-1.332.746-1.426 1.371-3.043 1.86-4.809.296-4.5-.403-9.34-1.094-14.105-.66-4.535-1.34-9.227-1.157-13.567.075-1.875.137-3.765.137-5.64-.055-.242-.105-.477-.168-.723-1.246-5.457-2.804-12.246-6.351-16.598a13.769 13.769 0 00-1.477-1.562zm8.96 23.235c-.011.449-.03.886-.05 1.332-.184 4.246.488 8.882 1.144 13.375.438 2.988.872 6.011 1.075 8.968.02-.171.043-.332.05-.5.098-2.406 0-4.832-.093-7.011l-.235-5.684c-.457-3.52-1.136-7.031-1.89-10.488zM3.853 29.324c.37 6.778.968 13.59 1.753 20.356-.363-6.246-.554-12.5-.554-18.684 0-3.191.066-6.617.511-9.906-.882 2.746-1.414 5.598-1.71 8.234zm.043 16.184c.105.586.234 1.191.37 1.82a354.924 354.924 0 01-.722-7.383c.074 1.852.203 3.711.352 5.575zm78.41-18.957c.5 2.199 1.007 4.426 1.465 6.668l-.352-8.563c-.23-5.789-.645-11.32-3.059-15.492-2.441-4.234-6.254-5.883-10.203-6.531.211.082.414.18.625.265 3.645 1.649 6.68 4.551 8.559 8.18 2.347 4.535 2.941 9.961 2.965 15.473zM17.957 4.449c-1.062.14-2.137.278-3.2.426-3.929.531-7.655 1.309-9.972 4.777C2.152 13.61 2.121 20.016 2.312 26.23c.063 2.012.13 4.043.223 6.086.055-.957.137-1.968.254-3.011-.074-1.32-.137-2.64-.191-3.957-.2-4.746-.243-10.13 1.87-13.864 2.157-3.82 5.872-4.918 9.485-5.714.649-.137 1.293-.278 1.942-.415a24.69 24.69 0 012.07-.894zm-4.98 2.63C10 7.812 7.102 8.96 5.39 11.991 3.566 15.227 3.46 19.93 3.617 24.25c.672-3.02 1.692-6.086 3.23-8.79.212-.605.446-1.198.712-1.765 1.347-2.925 3.238-5.054 5.418-6.617zm58.578-1.903a15.478 15.478 0 013.996 3.5c2.695 3.308 4.27 7.87 5.414 12.246-.348-3.363-1.102-6.555-2.57-9.363-1.739-3.364-4.543-6.067-7.891-7.63.363.384.71.798 1.043 1.235zm-55.29 1.18c-1.953.968-3.777 2.246-5.296 3.988 2.25-2.008 4.808-3.395 7.488-4.434-.734.137-1.457.285-2.191.445zM62.583 2.12c2.094.371 4.227.86 6.246 1.68a2.735 2.735 0 00-.266-.211c-.34-.277-.68-.512-1.03-.735a25.75 25.75 0 00-3.473-.69c-.5-.013-1-.032-1.489-.044zM25.219 3.59c-.266.05-.52.105-.785.168.52-.082 1.03-.168 1.55-.254-.254.031-.507.055-.773.086zm0 0"/></g></g></g><g mask="url(#prefix__r)"><g clip-path="url(#prefix__s)" transform="translate(145 240)"><g clip-path="url(#prefix__t)"><path fill="#231f20" d="M32.48 79.152c-3.96 0-7.933-.246-11.886-.746-2.09-.265-4.203-.66-6.168-1.52-2.453-.757-4.715-2.128-6.586-4.62-3.176-4.235-4.098-10.34-4.844-16.754-.36-3.13-.73-6.313-.996-9.504-.023-.094-.031-.18-.055-.278C.79 39.38.585 32.89.395 26.625.195 19.973.238 13.652 3.063 9.43c2.558-3.84 6.69-4.692 10.703-5.235 3.464-.468 6.937-.902 10.43-1.289A97.295 97.295 0 0146.89.941 31.02 31.02 0 0148.09.898 448.67 448.67 0 0157.234.48c2.977-.093 5.887-.074 8.563 1.079 5.383.273 11.191 1.488 14.633 7.425 2.527 4.371 2.965 10.055 3.207 15.98l.691 16.821c.383 3.02.606 6.063.55 9.117a36.56 36.56 0 01-.222 3.575c-.094 2.628-.426 5.27-1.242 7.597-.477 3.809-1.75 7.364-4.46 10.418a.529.529 0 01-.755.043.534.534 0 01-.043-.758c1.625-1.84 2.7-3.87 3.39-6.062 0 0-.01.02-.023.031-.847 1.617-1.867 3.063-3.101 4.246-.582 1.445-1.305 2.774-2.238 3.89-3.368 4.055-8.23 4.345-13.364 4.302l-15.78-.149a95.558 95.558 0 01-14.571 1.117zm-6.87-1.308c3.992.285 7.995.328 11.98.105zm26.953-.809l10.28.094c4.844.031 9.473-.223 12.532-3.914a10.84 10.84 0 001.191-1.758c-2.836 1.79-6.097 2.078-8.988 2.332-1.527.137-3.058.266-4.586.383a96.446 96.446 0 01-10.43 2.863zm-37.926-1.203c2.402.766 5.004.895 7.55.914l24.778.234a95.486 95.486 0 0011.133-2.414c-2.953.329-5.93.532-8.903.575-8.57.52-17.172.882-25.71 1.086-4.641.105-9.485-.118-13.192-4.153a8.696 8.696 0 01-.465-.531c.2.332.414.64.645.937 1.21 1.594 2.644 2.637 4.164 3.352zM7.097 63.66c.891 3.02 2.133 5.703 3.973 7.692 3.407 3.703 7.793 3.918 12.383 3.808 4.809-.117 9.64-.277 14.477-.488-3.805-.383-7.606-1-11.418-1.828-5.969-1.313-12.735-3.504-17.653-9.82a27.342 27.342 0 01-2.347-3.598c.148 1.437.332 2.87.586 4.246zm-.84-7.148c.927 2.062 2.063 4.062 3.454 5.851 4.703 6.051 11.258 8.168 17.035 9.438a97.811 97.811 0 0022.418 2.285 916.49 916.49 0 009.238-.617c2.02-.235 4.04-.543 6.043-.914a98.078 98.078 0 005.387-2.118.527.527 0 01.7.278.542.542 0 01-.044.512c2.637-.696 5.344-1.672 7.606-3.418.883-2.895 1.265-6.043 1.488-8.555 1.242-13.957-.469-29.098-4.8-42.621-1-3.117-2.497-7.215-4.77-10.258-2.633-1.574-5.586-2.309-8.496-2.828-2.551-.45-5.086-.809-7.637-1.063-8.93.137-17.832.86-26.625 2.157a107.3 107.3 0 00-3.942.968C17.59 7.121 11.77 9.293 7.902 14.844c-.328.469-.625.96-.91 1.449-1.55 4.555-1.699 10.117-1.699 15.086 0 8.32.34 16.789.996 25.152zm70.872 13.21c-2.242 1.333-4.75 2.118-7.16 2.716-.106.019-.203.054-.309.074 2.223-.266 4.524-.754 6.524-2.075.328-.214.636-.457.945-.714zM3.773 53.02c.086.789.18 1.585.278 2.363.71 6.148 1.582 12.012 4.469 16.023-1.2-2.183-1.954-4.765-2.454-7.511-.89-3.024-1.433-6.352-1.867-9.66-.148-.407-.289-.82-.426-1.227zm68.63-44.875c1.507 2.699 2.59 5.71 3.367 8.136 4.382 13.66 6.105 28.942 4.851 43.047-.191 2.117-.488 4.66-1.094 7.16.395-.414.766-.847 1.118-1.328.742-1.426 1.367-3.043 1.855-4.808.297-4.5-.402-9.344-1.094-14.11-.656-4.531-1.336-9.222-1.156-13.566.074-1.871.137-3.766.137-5.637-.051-.246-.106-.48-.168-.723-1.242-5.46-2.805-12.246-6.352-16.597a14.15 14.15 0 00-1.476-1.567zm8.96 23.234c-.008.45-.031.883-.05 1.332-.18 4.242.488 8.883 1.144 13.371.438 2.992.871 6.012 1.074 8.969.02-.168.043-.328.055-.5.094-2.403 0-4.828-.098-7.012l-.234-5.68c-.457-3.523-1.137-7.03-1.89-10.492zM2.996 29.687c.375 6.778.969 13.586 1.754 20.356-.36-6.246-.55-12.504-.55-18.684 0-3.191.062-6.617.507-9.906-.883 2.746-1.41 5.598-1.71 8.235zm.043 16.184c.106.586.234 1.191.371 1.82-.265-2.46-.508-4.918-.719-7.386.075 1.851.2 3.715.348 5.578zm78.41-18.96c.5 2.202 1.008 4.425 1.465 6.671l-.348-8.566c-.234-5.786-.648-11.32-3.058-15.489C77.063 5.293 73.25 3.641 69.3 2.992c.21.086.414.184.625.266 3.644 1.652 6.68 4.555 8.562 8.183 2.344 4.532 2.942 9.957 2.961 15.47zM17.102 4.811c-1.063.137-2.137.278-3.196.426-3.93.532-7.66 1.309-9.972 4.778-2.637 3.957-2.668 10.363-2.477 16.574.063 2.012.129 4.043.223 6.086.054-.957.14-1.965.258-3.008-.079-1.32-.141-2.64-.192-3.961-.203-4.742-.246-10.129 1.867-13.863C5.77 8.027 9.488 6.93 13.098 6.133c.648-.14 1.297-.278 1.945-.414.68-.332 1.367-.63 2.07-.895zm-4.98 2.63c-2.974.734-5.876 1.882-7.583 4.913-1.828 3.235-1.934 7.938-1.773 12.258.668-3.023 1.687-6.086 3.226-8.789.211-.605.446-1.203.711-1.765 1.352-2.926 3.238-5.055 5.418-6.618zm58.581-1.907a15.602 15.602 0 013.992 3.5c2.7 3.309 4.27 7.875 5.418 12.246-.351-3.36-1.105-6.55-2.57-9.363-1.742-3.36-4.547-6.063-7.89-7.625.359.383.71.797 1.038 1.234zM15.414 6.72c-1.957.965-3.781 2.242-5.3 3.988 2.25-2.012 4.812-3.395 7.488-4.437-.735.14-1.457.289-2.188.449zm46.313-4.235c2.093.371 4.226.86 6.246 1.68-.086-.074-.172-.148-.266-.215-.34-.273-.68-.508-1.031-.734a27.02 27.02 0 00-3.473-.692c-.5-.007-.996-.03-1.484-.039zM24.367 3.95c-.265.055-.523.11-.789.172.524-.086 1.031-.172 1.55-.254-.253.031-.507.051-.773.082zm0 0"/></g></g></g><g mask="url(#prefix__u)"><g clip-path="url(#prefix__v)" transform="translate(277 104)"><g clip-path="url(#prefix__w)"><path fill="#231f20" d="M33.008 79.445a94.64 94.64 0 01-11.883-.742c-2.094-.266-4.207-.66-6.172-1.523-2.453-.754-4.715-2.13-6.582-4.618-3.176-4.234-4.101-10.34-4.844-16.757-.363-3.13-.734-6.309-1-9.5-.02-.098-.03-.18-.05-.278-1.16-6.351-1.36-12.84-1.551-19.109C.723 20.27.766 13.949 3.59 9.727c2.558-3.84 6.691-4.692 10.707-5.235 3.46-.469 6.933-.906 10.43-1.289a97.05 97.05 0 0122.695-1.969c.402-.02.797-.03 1.2-.043 3.046-.168 6.093-.308 9.144-.414 2.972-.093 5.882-.074 8.558 1.075 5.387.277 11.196 1.492 14.637 7.425 2.527 4.375 2.96 10.055 3.207 15.98l.687 16.825c.383 3.02.606 6.063.555 9.117a39.168 39.168 0 01-.222 3.574c-.098 2.63-.426 5.266-1.243 7.598-.48 3.809-1.754 7.363-4.46 10.414a.522.522 0 01-.755.043.525.525 0 01-.043-.754c1.626-1.84 2.696-3.875 3.387-6.066 0 0-.011.023-.02.031-.85 1.617-1.87 3.066-3.1 4.246-.587 1.45-1.31 2.778-2.243 3.895-3.367 4.054-8.23 4.34-13.36 4.3l-15.78-.152a95.151 95.151 0 01-14.575 1.117zm-6.871-1.308c3.992.289 7.996.332 11.98.11zm26.953-.809l10.281.098c4.844.031 9.473-.223 12.531-3.914.45-.535.84-1.117 1.192-1.758-2.836 1.789-6.098 2.074-8.985 2.332-1.53.137-3.058.266-4.59.383a95.299 95.299 0 01-10.43 2.86zm-37.922-1.2c2.398.767 5 .892 7.55.915l24.778.234a94.813 94.813 0 0011.129-2.418 91.54 91.54 0 01-8.898.579c-8.57.519-17.176.882-25.715 1.082-4.64.109-9.48-.118-13.188-4.149-.16-.168-.32-.351-.469-.531.204.328.415.637.649.937 1.21 1.594 2.644 2.637 4.164 3.352zM7.625 63.958c.895 3.02 2.137 5.703 3.973 7.691 3.41 3.704 7.797 3.915 12.382 3.809 4.813-.117 9.645-.277 14.477-.488a101 101 0 01-11.418-1.832c-5.969-1.309-12.734-3.5-17.648-9.82a26.532 26.532 0 01-2.348-3.594c.148 1.433.328 2.87.582 4.242zm-.836-7.152c.922 2.066 2.059 4.066 3.45 5.851 4.706 6.055 11.257 8.172 17.034 9.438a97.817 97.817 0 0022.418 2.289c3.082-.192 6.16-.395 9.243-.617a91.342 91.342 0 006.043-.914 97.954 97.954 0 005.382-2.118.532.532 0 01.704.274.55.55 0 01-.043.512c2.632-.692 5.34-1.668 7.601-3.415.883-2.894 1.266-6.043 1.488-8.554 1.243-13.961-.468-29.098-4.8-42.621-.996-3.117-2.496-7.215-4.77-10.258-2.633-1.574-5.586-2.309-8.496-2.828-2.547-.45-5.086-.809-7.633-1.067-8.933.141-17.832.864-26.625 2.16-1.32.297-2.637.618-3.941.97C18.117 7.417 12.3 9.585 8.434 15.14c-.329.468-.625.957-.914 1.449-1.551 4.55-1.7 10.117-1.7 15.086 0 8.32.34 16.789 1 25.152zM77.656 70.02c-2.242 1.332-4.746 2.117-7.156 2.714-.11.02-.203.051-.309.075 2.22-.266 4.524-.758 6.52-2.075.328-.214.637-.457.945-.714zM4.301 53.316c.086.786.183 1.586.277 2.364C5.29 61.828 6.16 67.69 9.051 71.7c-1.203-2.18-1.957-4.766-2.453-7.509-.895-3.023-1.434-6.355-1.871-9.664-.149-.402-.286-.816-.426-1.222zM72.93 8.437c1.507 2.704 2.593 5.715 3.367 8.141 4.387 13.66 6.105 28.938 4.855 43.047-.191 2.117-.492 4.66-1.097 7.16.394-.414.765-.851 1.117-1.328.742-1.426 1.371-3.043 1.86-4.809.296-4.503-.407-9.343-1.094-14.109-.66-4.531-1.34-9.227-1.16-13.566.074-1.871.14-3.766.14-5.637-.055-.246-.106-.48-.172-.727-1.242-5.457-2.805-12.246-6.351-16.597a13.412 13.412 0 00-1.477-1.563zm8.965 23.239c-.012.445-.032.883-.055 1.328-.18 4.246.488 8.887 1.148 13.375.434 2.988.871 6.012 1.07 8.969.024-.168.044-.328.055-.5.098-2.403 0-4.828-.093-7.012l-.235-5.68c-.457-3.523-1.137-7.035-1.89-10.492zM3.527 29.984c.371 6.778.965 13.586 1.75 20.352-.359-6.246-.55-12.5-.55-18.684 0-3.191.062-6.617.511-9.902-.883 2.742-1.414 5.594-1.71 8.234zm.043 16.184c.106.582.235 1.191.371 1.816a330.102 330.102 0 01-.722-7.382c.074 1.851.203 3.714.351 5.574zm78.41-18.961c.497 2.203 1.008 4.426 1.465 6.672l-.351-8.566c-.235-5.79-.649-11.32-3.059-15.493-2.441-4.234-6.254-5.883-10.207-6.53.215.085.414.179.629.265 3.64 1.648 6.68 4.554 8.559 8.183 2.347 4.532 2.941 9.957 2.964 15.469zM17.63 5.109a312.07 312.07 0 00-3.195.426c-3.93.531-7.657 1.309-9.973 4.777-2.633 3.958-2.664 10.364-2.473 16.575.063 2.011.125 4.043.223 6.086.05-.957.137-1.97.254-3.012a265.594 265.594 0 01-.192-3.957c-.203-4.746-.246-10.129 1.872-13.863 2.152-3.82 5.87-4.914 9.48-5.715.648-.137 1.297-.274 1.945-.414.68-.328 1.371-.625 2.07-.895zm-4.98 2.625c-2.973.735-5.872 1.887-7.583 4.918-1.828 3.235-1.933 7.938-1.773 12.258.668-3.023 1.687-6.086 3.23-8.789.211-.605.446-1.203.711-1.766 1.348-2.925 3.239-5.054 5.414-6.62zM71.23 5.832a15.463 15.463 0 013.993 3.5c2.699 3.309 4.27 7.875 5.418 12.246-.352-3.363-1.106-6.555-2.57-9.363-1.743-3.363-4.548-6.063-7.891-7.63.36.384.71.802 1.039 1.235zm-55.289 1.18c-1.953.968-3.78 2.246-5.3 3.992 2.254-2.012 4.812-3.395 7.488-4.438-.73.137-1.453.286-2.188.446zm46.317-4.235c2.09.375 4.226.864 6.242 1.684a1.774 1.774 0 00-.266-.215c-.34-.277-.68-.512-1.027-.734a25.75 25.75 0 00-3.473-.692c-.5-.011-1-.03-1.488-.043zm-37.363 1.47c-.266.054-.52.105-.786.171l1.551-.258c-.254.031-.512.055-.777.086zm0 0"/></g></g></g><g mask="url(#prefix__x)"><g clip-path="url(#prefix__y)" transform="translate(212 201)"><g clip-path="url(#prefix__z)"><path fill="#231f20" d="M32.66 78.934c-3.965 0-7.933-.246-11.887-.746-2.09-.266-4.203-.66-6.168-1.524-2.453-.754-4.718-2.125-6.585-4.617-3.176-4.234-4.102-10.34-4.844-16.758-.36-3.125-.73-6.309-.996-9.5-.024-.094-.035-.18-.055-.277C.969 39.16.765 32.672.575 26.406.37 19.754.414 13.434 3.237 9.211 5.801 5.37 9.93 4.52 13.945 3.977c3.461-.47 6.934-.907 10.43-1.29A97.28 97.28 0 0147.07.72c.403-.02.797-.031 1.2-.04a447.39 447.39 0 019.144-.417c2.973-.094 5.883-.075 8.559 1.074 5.386.277 11.195 1.492 14.636 7.43 2.528 4.37 2.961 10.054 3.207 15.98l.692 16.82c.383 3.02.605 6.063.55 9.118a37.82 37.82 0 01-.222 3.574c-.094 2.629-.426 5.265-1.242 7.597-.477 3.81-1.754 7.364-4.461 10.418a.525.525 0 01-.754.04.525.525 0 01-.043-.754c1.625-1.84 2.7-3.871 3.387-6.063 0 0-.008.02-.02.031-.851 1.618-1.871 3.063-3.101 4.243-.582 1.449-1.305 2.777-2.243 3.894-3.363 4.055-8.23 4.344-13.359 4.3l-15.781-.148a95.634 95.634 0 01-14.57 1.118zm-6.875-1.309c3.996.285 8 .328 11.98.105zm26.957-.809l10.281.094c4.84.031 9.473-.222 12.532-3.914.445-.531.84-1.117 1.187-1.758-2.836 1.79-6.094 2.075-8.984 2.332-1.528.137-3.059.266-4.586.383a96.693 96.693 0 01-10.43 2.863zm-37.926-1.203c2.399.766 5 .895 7.551.914l24.778.235a95.422 95.422 0 0011.128-2.414 92.783 92.783 0 01-8.898.574c-8.57.52-17.172.883-25.71 1.086-4.642.105-9.485-.117-13.192-4.153a10.12 10.12 0 01-.47-.53c.204.331.415.64.65.937 1.21 1.593 2.644 2.636 4.163 3.351zM7.277 63.441c.891 3.02 2.133 5.704 3.97 7.692 3.41 3.703 7.796 3.914 12.386 3.808 4.808-.117 9.64-.277 14.472-.488-3.8-.383-7.601-1-11.414-1.832-5.968-1.308-12.734-3.5-17.652-9.82a26.662 26.662 0 01-2.348-3.594c.149 1.434.329 2.871.586 4.246zm-.84-7.152c.922 2.066 2.06 4.066 3.45 5.856 4.707 6.05 11.258 8.167 17.035 9.433a97.633 97.633 0 0022.422 2.29c3.078-.192 6.16-.395 9.238-.618a90.953 90.953 0 006.043-.914 99.325 99.325 0 005.387-2.117.527.527 0 01.699.277.533.533 0 01-.043.508c2.633-.692 5.344-1.668 7.605-3.414.88-2.895 1.262-6.043 1.485-8.555 1.242-13.957-.465-29.097-4.801-42.62-.996-3.118-2.492-7.216-4.766-10.259-2.636-1.574-5.586-2.308-8.496-2.828-2.55-.45-5.09-.808-7.636-1.066-8.934.14-17.832.863-26.625 2.16a107.3 107.3 0 00-3.942.969C17.77 6.902 11.95 9.074 8.082 14.625c-.328.469-.625.96-.914 1.45-1.55 4.554-1.7 10.116-1.7 15.085 0 8.32.34 16.79 1 25.152zm70.868 13.215c-2.239 1.332-4.746 2.117-7.157 2.715-.105.02-.203.054-.308.074 2.219-.266 4.523-.754 6.52-2.074.331-.215.64-.457.945-.715zM3.953 52.8c.082.789.18 1.586.274 2.363.71 6.148 1.582 12.012 4.472 16.023-1.199-2.183-1.953-4.769-2.453-7.511-.894-3.024-1.434-6.352-1.871-9.66-.148-.407-.285-.82-.422-1.227zM72.578 7.92c1.512 2.704 2.594 5.716 3.367 8.142 4.387 13.66 6.11 28.94 4.856 43.046-.192 2.118-.489 4.66-1.094 7.16.39-.414.766-.851 1.113-1.328.746-1.425 1.371-3.043 1.86-4.808.297-4.5-.403-9.344-1.094-14.11-.66-4.53-1.34-9.222-1.156-13.566.074-1.871.136-3.766.136-5.637-.054-.246-.105-.48-.168-.722-1.246-5.461-2.804-12.246-6.351-16.598a13.812 13.812 0 00-1.477-1.566zm8.965 23.24c-.012.444-.031.882-.05 1.331-.184 4.242.487 8.883 1.144 13.371.437 2.992.87 6.012 1.074 8.969.02-.168.043-.328.05-.5.098-2.402 0-4.828-.093-7.012l-.234-5.68c-.457-3.523-1.137-7.03-1.891-10.492zM3.176 29.468A336.41 336.41 0 004.93 49.82a322.3 322.3 0 01-.555-18.68c0-3.195.066-6.62.512-9.906-.883 2.746-1.414 5.594-1.711 8.235zm.043 16.183c.105.586.234 1.192.37 1.82-.265-2.46-.507-4.917-.722-7.386.074 1.852.203 3.715.352 5.574zm78.41-18.96c.5 2.203 1.008 4.425 1.465 6.671l-.352-8.566c-.23-5.785-.644-11.32-3.058-15.488C77.242 5.07 73.43 3.422 69.48 2.773c.211.086.415.18.625.266 3.645 1.648 6.68 4.555 8.56 8.184 2.347 4.53 2.94 9.957 2.964 15.468zM17.28 4.593a298.92 298.92 0 00-3.199.426c-3.93.53-7.656 1.308-9.973 4.777C1.477 13.754 1.445 20.16 1.637 26.37c.062 2.012.129 4.043.222 6.086.055-.957.137-1.969.254-3.008-.074-1.32-.136-2.64-.191-3.96-.2-4.743-.242-10.13 1.871-13.864 2.156-3.82 5.871-4.914 9.484-5.71.649-.142 1.293-.278 1.942-.419.68-.328 1.37-.625 2.07-.89zm-4.98 2.629c-2.977.734-5.875 1.882-7.586 4.914-1.824 3.234-1.93 7.937-1.774 12.258.672-3.024 1.692-6.086 3.23-8.79.212-.605.446-1.203.712-1.765C8.23 10.914 10.12 8.785 12.3 7.223zm58.578-1.907a15.552 15.552 0 013.996 3.5c2.695 3.309 4.27 7.875 5.414 12.246-.348-3.359-1.102-6.554-2.57-9.363-1.742-3.36-4.543-6.062-7.89-7.629.362.383.71.801 1.042 1.235zm-55.29 1.18c-1.952.969-3.777 2.246-5.296 3.992 2.25-2.011 4.809-3.394 7.484-4.437-.73.136-1.453.289-2.187.445zm46.317-4.234c2.094.375 4.227.863 6.246 1.683-.086-.074-.172-.148-.265-.215a11.1 11.1 0 00-1.032-.734 26.37 26.37 0 00-3.472-.691c-.5-.008-1-.032-1.488-.043zM24.543 3.73c-.266.055-.52.11-.785.172.52-.086 1.031-.172 1.55-.257-.253.035-.507.054-.773.085zm0 0"/></g></g></g><g clip-path="url(#prefix__A)"><path fill="#231f20" d="M69.766 116.219c-3.961 0-7.934-.242-11.887-.742-2.09-.266-4.203-.66-6.168-1.524-2.453-.754-4.715-2.129-6.586-4.617-3.176-4.234-4.098-10.34-4.844-16.758-.36-3.129-.73-6.308-.996-9.5-.023-.098-.031-.18-.055-.277-1.156-6.352-1.359-12.84-1.55-19.11-.2-6.648-.16-12.968 2.668-17.191 2.558-3.844 6.687-4.691 10.703-5.234a415.32 415.32 0 0110.43-1.29 97.087 97.087 0 0122.695-1.968c.402-.02.797-.031 1.199-.043a448.64 448.64 0 019.145-.414c2.972-.094 5.882-.074 8.562 1.074 5.383.277 11.191 1.492 14.633 7.426 2.527 4.375 2.965 10.054 3.207 15.98l.691 16.824c.383 3.02.606 6.063.551 9.118a37.819 37.819 0 01-.223 3.574c-.093 2.629-.425 5.266-1.242 7.598-.476 3.808-1.754 7.363-4.46 10.414a.525.525 0 01-.755.043.529.529 0 01-.043-.754c1.625-1.84 2.7-3.875 3.391-6.067 0 0-.012.024-.023.031-.848 1.618-1.868 3.067-3.102 4.247-.582 1.449-1.305 2.777-2.238 3.894-3.367 4.055-8.235 4.34-13.364 4.297l-15.78-.148a95.063 95.063 0 01-14.571 1.117zm-6.871-1.309c3.992.29 7.996.332 11.976.11zm26.953-.808l10.28.097c4.845.031 9.474-.222 12.532-3.918.445-.531.84-1.113 1.188-1.754-2.832 1.79-6.094 2.075-8.985 2.332a362.69 362.69 0 01-4.586.383 95.54 95.54 0 01-10.43 2.86zm-37.926-1.2c2.402.766 5.004.891 7.55.914l24.778.235a94.641 94.641 0 0011.129-2.418c-2.95.332-5.926.535-8.899.574a684.3 684.3 0 01-25.71 1.086c-4.641.11-9.485-.117-13.192-4.148-.16-.172-.316-.352-.465-.532.2.328.414.637.645.938 1.21 1.594 2.644 2.636 4.164 3.351zm-7.54-12.172c.891 3.02 2.134 5.704 3.973 7.692 3.407 3.703 7.793 3.914 12.383 3.808a752.38 752.38 0 0014.473-.488c-3.8-.383-7.602-1-11.414-1.832-5.969-1.308-12.734-3.5-17.652-9.82a26.91 26.91 0 01-2.348-3.594c.148 1.434.332 2.871.586 4.242zm-.839-7.152c.926 2.067 2.059 4.067 3.453 5.852 4.703 6.054 11.258 8.172 17.035 9.437a97.795 97.795 0 0022.418 2.29c3.078-.192 6.16-.395 9.239-.618a90.952 90.952 0 006.042-.914 101.31 101.31 0 005.387-2.117.528.528 0 01.7.273.54.54 0 01-.044.512c2.637-.691 5.344-1.668 7.606-3.414.883-2.895 1.262-6.043 1.488-8.555 1.242-13.96-.469-29.097-4.8-42.62-1-3.118-2.497-7.216-4.77-10.259-2.633-1.574-5.586-2.308-8.496-2.828-2.551-.449-5.086-.808-7.637-1.066-8.93.14-17.832.863-26.625 2.16a99.897 99.897 0 00-3.941.969c-5.723 1.511-11.543 3.68-15.41 9.234-.329.469-.626.957-.91 1.45-1.551 4.55-1.7 10.116-1.7 15.085 0 8.32.34 16.79.996 25.153zm70.871 13.215c-2.242 1.332-4.75 2.117-7.16 2.715-.106.02-.203.05-.309.074 2.22-.266 4.524-.758 6.524-2.074.328-.215.636-.461.945-.715zM41.06 90.09c.086.785.18 1.586.273 2.363.715 6.149 1.586 12.012 4.473 16.02-1.2-2.18-1.953-4.766-2.453-7.508-.891-3.024-1.434-6.356-1.868-9.664-.152-.403-.289-.817-.425-1.223zm68.629-44.88c1.507 2.704 2.59 5.716 3.367 8.142 4.382 13.66 6.105 28.937 4.851 43.046-.191 2.118-.488 4.66-1.094 7.16.395-.413.766-.851 1.114-1.328.746-1.425 1.37-3.043 1.86-4.808.296-4.504-.403-9.344-1.095-14.11-.656-4.53-1.336-9.226-1.156-13.566.074-1.871.137-3.766.137-5.637-.05-.246-.106-.48-.168-.726-1.242-5.457-2.805-12.246-6.352-16.598a14.106 14.106 0 00-1.476-1.562zm8.96 23.24c-.007.445-.03.882-.05 1.327-.18 4.246.488 8.887 1.144 13.375.438 2.989.871 6.012 1.074 8.97.02-.169.043-.329.055-.5.094-2.403 0-4.829-.098-7.013l-.234-5.68c-.457-3.523-1.137-7.034-1.89-10.492zm-78.367-1.692c.371 6.777.969 13.586 1.754 20.351-.363-6.246-.55-12.5-.55-18.683 0-3.192.062-6.617.507-9.903-.883 2.743-1.414 5.594-1.71 8.235zm.043 16.183c.106.582.235 1.192.371 1.817a354.937 354.937 0 01-.722-7.383c.078 1.852.203 3.715.351 5.574zm78.41-18.96c.5 2.203 1.008 4.425 1.465 6.671l-.347-8.566c-.235-5.79-.649-11.32-3.059-15.492-2.445-4.235-6.258-5.883-10.207-6.532.21.086.414.18.625.266 3.644 1.649 6.68 4.555 8.562 8.184 2.344 4.531 2.942 9.957 2.961 15.468zM54.387 41.882c-1.063.137-2.137.273-3.196.426-3.93.53-7.66 1.308-9.972 4.777-2.637 3.957-2.668 10.36-2.477 16.574.063 2.012.13 4.043.223 6.086.055-.957.14-1.969.254-3.012a221.692 221.692 0 01-.188-3.957c-.203-4.746-.246-10.129 1.867-13.863 2.157-3.82 5.875-4.914 9.485-5.715.648-.136 1.297-.273 1.941-.414.68-.328 1.371-.629 2.074-.894zm-4.98 2.625c-2.973.734-5.876 1.887-7.583 4.918-1.828 3.234-1.933 7.937-1.773 12.258.668-3.024 1.687-6.086 3.226-8.79.211-.609.446-1.203.711-1.765 1.348-2.926 3.239-5.055 5.418-6.621zm58.581-1.903a15.527 15.527 0 013.992 3.5c2.696 3.31 4.27 7.875 5.418 12.247-.351-3.364-1.105-6.555-2.57-9.364-1.742-3.363-4.547-6.062-7.894-7.629.363.383.714.797 1.043 1.235zM52.7 43.785c-1.957.969-3.781 2.246-5.3 3.992 2.25-2.011 4.812-3.394 7.488-4.437a69.96 69.96 0 00-2.188.445zm46.313-4.234c2.093.375 4.226.863 6.246 1.683a2.283 2.283 0 00-.266-.214c-.34-.278-.68-.512-1.031-.735a25.75 25.75 0 00-3.473-.691c-.5-.012-.996-.032-1.484-.043zm-37.36 1.469c-.265.054-.523.105-.789.171l1.551-.257c-.254.03-.508.054-.773.086zm0 0"/></g><g mask="url(#prefix__B)"><g clip-path="url(#prefix__C)" transform="translate(229 50)"><g clip-path="url(#prefix__D)"><path fill="#231f20" d="M33.05 79.008c-3.96 0-7.933-.246-11.886-.746-2.09-.266-4.203-.657-6.168-1.52-2.453-.754-4.715-2.129-6.586-4.617-3.176-4.234-4.098-10.344-4.844-16.758-.359-3.129-.73-6.308-.996-9.5-.023-.097-.03-.183-.054-.277-1.157-6.352-1.36-12.844-1.551-19.11-.203-6.648-.16-12.968 2.668-17.19C6.19 5.444 10.32 4.593 14.336 4.05c3.46-.464 6.934-.902 10.43-1.284A97.087 97.087 0 0147.46.796c.402-.019.797-.03 1.2-.042A448.64 448.64 0 0157.804.34c2.972-.098 5.883-.074 8.558 1.074C71.75 1.691 77.56 2.902 81 8.84c2.527 4.375 2.965 10.055 3.207 15.98l.691 16.82c.383 3.024.606 6.067.551 9.122a37.819 37.819 0 01-.222 3.574c-.094 2.629-.426 5.266-1.243 7.598-.476 3.808-1.754 7.359-4.46 10.414a.525.525 0 01-.754.043.529.529 0 01-.043-.754c1.625-1.844 2.699-3.875 3.386-6.067 0 0-.008.024-.02.032-.847 1.617-1.866 3.066-3.1 4.246-.583 1.445-1.305 2.777-2.243 3.894-3.363 4.055-8.23 4.34-13.36 4.297l-15.78-.148a95.1 95.1 0 01-14.57 1.117zm-6.87-1.309c3.992.29 7.996.332 11.976.106zm26.953-.808l10.281.097c4.84.032 9.473-.226 12.531-3.918.446-.53.84-1.117 1.188-1.754-2.836 1.786-6.094 2.075-8.985 2.329-1.527.14-3.058.265-4.585.382a94.686 94.686 0 01-10.43 2.864zm-37.926-1.204c2.398.766 5.004.895 7.55.918l24.778.23a94.627 94.627 0 0011.13-2.413c-2.95.332-5.927.531-8.9.574a692.68 692.68 0 01-25.71 1.086c-4.64.106-9.485-.117-13.192-4.148-.16-.172-.32-.352-.468-.532.203.328.414.637.648.934a10.916 10.916 0 004.164 3.352zM7.668 63.517c.89 3.023 2.133 5.703 3.973 7.695 3.406 3.703 7.793 3.914 12.382 3.809 4.809-.118 9.641-.278 14.473-.493-3.8-.382-7.601-1-11.414-1.828-5.969-1.308-12.734-3.5-17.652-9.82a26.703 26.703 0 01-2.348-3.598c.148 1.438.328 2.875.586 4.246zm-.84-7.149c.922 2.063 2.059 4.067 3.453 5.852 4.703 6.054 11.254 8.172 17.032 9.437a97.85 97.85 0 0022.421 2.29c3.078-.192 6.16-.395 9.239-.618a88.48 88.48 0 006.043-.918 95.045 95.045 0 005.386-2.117.527.527 0 01.7.277.54.54 0 01-.043.512c2.632-.691 5.343-1.672 7.605-3.414.883-2.895 1.262-6.043 1.484-8.555 1.247-13.96-.464-29.101-4.796-42.62-1-3.122-2.497-7.216-4.77-10.259-2.633-1.574-5.586-2.308-8.496-2.832a104.56 104.56 0 00-7.637-1.062c-8.93.137-17.832.863-26.625 2.16a99.9 99.9 0 00-3.941.969C18.16 6.98 12.34 9.149 8.473 14.703c-.328.469-.625.957-.91 1.445-1.551 4.555-1.7 10.122-1.7 15.09 0 8.32.34 16.79.996 25.149zm70.867 13.215c-2.238 1.328-4.746 2.117-7.156 2.711-.105.023-.203.055-.309.078 2.22-.27 4.524-.758 6.52-2.078.332-.211.64-.457.945-.711zM4.344 52.879c.082.785.18 1.586.273 2.36.715 6.152 1.586 12.011 4.473 16.023-1.2-2.18-1.953-4.766-2.453-7.512-.89-3.02-1.434-6.352-1.871-9.66-.149-.403-.286-.82-.422-1.223zM72.973 8c1.507 2.703 2.59 5.715 3.363 8.14 4.387 13.66 6.11 28.938 4.855 43.047-.191 2.118-.488 4.66-1.093 7.16.39-.413.765-.85 1.113-1.331.746-1.426 1.371-3.043 1.86-4.809.296-4.5-.403-9.34-1.094-14.105-.657-4.536-1.336-9.227-1.157-13.567.075-1.87.137-3.765.137-5.64-.05-.243-.105-.477-.168-.723-1.242-5.457-2.805-12.246-6.352-16.598a14.106 14.106 0 00-1.476-1.562zm8.96 23.238c-.007.446-.03.883-.05 1.328-.184 4.246.488 8.883 1.144 13.375.438 2.989.871 6.012 1.075 8.97.02-.173.043-.333.05-.5.098-2.407 0-4.833-.093-7.013l-.235-5.683c-.457-3.52-1.136-7.031-1.89-10.488zM3.567 29.547c.372 6.777.97 13.586 1.754 20.351-.363-6.246-.554-12.5-.554-18.683 0-3.192.066-6.617.511-9.906-.882 2.746-1.414 5.597-1.71 8.238zm.043 16.18c.106.586.235 1.191.371 1.82a354.93 354.93 0 01-.722-7.383c.074 1.852.203 3.711.351 5.574zM82.02 26.77c.5 2.199 1.008 4.425 1.465 6.668l-.351-8.563c-.23-5.79-.645-11.32-3.059-15.492C77.633 5.148 73.82 3.5 69.871 2.852c.211.086.414.18.625.265 3.645 1.649 6.68 4.555 8.559 8.18 2.347 4.535 2.945 9.96 2.965 15.473zM17.673 4.668c-1.063.14-2.137.277-3.2.426-3.929.535-7.656 1.308-9.968 4.777-2.637 3.961-2.668 10.363-2.477 16.578.063 2.012.13 4.043.223 6.086.055-.957.137-1.969.254-3.012a268.19 268.19 0 01-.192-3.957c-.199-4.746-.242-10.128 1.872-13.863 2.156-3.82 5.87-4.918 9.484-5.715.648-.136 1.297-.277 1.941-.414.68-.328 1.371-.629 2.075-.894zm-4.98 2.629c-2.977.734-5.876 1.883-7.587 4.918-1.824 3.234-1.93 7.933-1.773 12.254.672-3.02 1.691-6.086 3.23-8.785.211-.61.446-1.204.711-1.77 1.348-2.926 3.239-5.05 5.418-6.617zm58.581-1.902a15.527 15.527 0 013.993 3.5c2.695 3.308 4.27 7.87 5.414 12.246-.348-3.364-1.102-6.555-2.57-9.364-1.739-3.363-4.544-6.066-7.891-7.629.363.383.715.797 1.043 1.235zm-55.289 1.18c-1.957.968-3.78 2.245-5.3 3.987 2.25-2.007 4.808-3.39 7.488-4.433a69.96 69.96 0 00-2.188.445zM62.297 2.34c2.094.37 4.226.863 6.246 1.68a2.735 2.735 0 00-.266-.211c-.34-.278-.68-.512-1.03-.735a25.75 25.75 0 00-3.474-.691c-.5-.012-.996-.031-1.488-.043zM24.934 3.809c-.266.05-.52.105-.786.168.52-.082 1.032-.168 1.551-.254-.254.03-.508.054-.773.086zm0 0"/></g></g></g><g mask="url(#prefix__E)"><g clip-path="url(#prefix__F)" transform="translate(22 240)"><g clip-path="url(#prefix__G)"><path fill="#231f20" d="M32.66 79.152c-3.96 0-7.933-.246-11.883-.746-2.093-.265-4.207-.66-6.172-1.52-2.453-.757-4.714-2.128-6.585-4.62-3.176-4.235-4.098-10.34-4.84-16.754-.364-3.13-.735-6.313-1-9.504-.02-.094-.032-.18-.055-.278C.969 39.38.765 32.89.575 26.625.374 19.973.417 13.652 3.241 9.43c2.559-3.84 6.692-4.692 10.703-5.235 3.465-.468 6.938-.902 10.43-1.289A97.295 97.295 0 0147.07.941c.407-.023.797-.035 1.203-.043C51.32.727 54.367.59 57.414.48c2.977-.093 5.887-.074 8.563 1.079 5.382.273 11.191 1.488 14.632 7.425 2.528 4.371 2.965 10.055 3.207 15.98l.692 16.821c.383 3.02.605 6.063.55 9.117a36.56 36.56 0 01-.222 3.575c-.094 2.628-.422 5.27-1.242 7.597-.477 3.809-1.75 7.364-4.461 10.418a.529.529 0 01-.754.043.534.534 0 01-.043-.758c1.625-1.84 2.7-3.87 3.39-6.062 0 0-.011.02-.023.031-.848 1.617-1.867 3.063-3.101 4.246-.582 1.445-1.305 2.774-2.239 3.89-3.367 4.055-8.23 4.345-13.36 4.302l-15.784-.149a95.558 95.558 0 01-14.57 1.117zm-6.87-1.308c3.991.285 7.995.328 11.98.105zm26.952-.809l10.281.094c4.844.031 9.473-.223 12.532-3.914a10.84 10.84 0 001.191-1.758c-2.836 1.79-6.098 2.078-8.984 2.332-1.532.137-3.059.266-4.59.383a96.2 96.2 0 01-10.43 2.863zm-37.926-1.203c2.403.766 5.004.895 7.551.914l24.778.234a95.486 95.486 0 0011.132-2.414 92.782 92.782 0 01-8.902.575c-8.57.52-17.172.882-25.71 1.086-4.642.105-9.485-.118-13.192-4.153a10.276 10.276 0 01-.465-.531c.199.332.414.64.648.937 1.211 1.594 2.645 2.637 4.16 3.352zM7.277 63.66c.891 3.02 2.133 5.703 3.973 7.692 3.41 3.703 7.793 3.918 12.383 3.808 4.812-.117 9.644-.277 14.476-.488-3.804-.383-7.605-1-11.418-1.828-5.968-1.313-12.734-3.504-17.652-9.82a27.342 27.342 0 01-2.348-3.598c.153 1.437.332 2.87.586 4.246zm-.84-7.148c.926 2.062 2.063 4.062 3.454 5.851 4.703 6.051 11.257 8.168 17.035 9.438a97.811 97.811 0 0022.418 2.285c3.082-.191 6.16-.395 9.242-.617a91.343 91.343 0 006.043-.914 99.2 99.2 0 005.383-2.118.527.527 0 01.699.278.552.552 0 01-.04.512c2.634-.696 5.34-1.672 7.602-3.418.883-2.895 1.266-6.043 1.489-8.555 1.242-13.957-.469-29.098-4.801-42.621-1-3.117-2.496-7.215-4.77-10.258-2.632-1.574-5.586-2.309-8.496-2.828-2.547-.45-5.086-.809-7.636-1.063-8.93.137-17.832.86-26.625 2.157-1.317.3-2.633.617-3.938.968-5.726 1.512-11.547 3.684-15.41 9.235-.332.469-.629.96-.914 1.449-1.55 4.555-1.7 10.117-1.7 15.086 0 8.32.34 16.789.997 25.152zm70.872 13.21c-2.243 1.333-4.75 2.118-7.16 2.716-.106.019-.2.054-.31.074 2.224-.266 4.528-.754 6.524-2.075.328-.214.637-.457.946-.714zM3.953 53.02c.086.789.18 1.585.277 2.363.711 6.148 1.582 12.012 4.47 16.023-1.2-2.183-1.954-4.765-2.454-7.511-.89-3.024-1.434-6.352-1.867-9.66-.149-.407-.29-.82-.426-1.227zM72.582 8.145c1.508 2.699 2.59 5.71 3.367 8.136 4.387 13.66 6.106 28.942 4.852 43.047-.192 2.117-.489 4.66-1.094 7.16.395-.414.766-.847 1.117-1.328.742-1.426 1.367-3.043 1.856-4.808.3-4.5-.403-9.344-1.094-14.11-.656-4.531-1.336-9.222-1.156-13.566.074-1.871.136-3.766.136-5.637-.05-.246-.105-.48-.168-.723-1.242-5.46-2.804-12.246-6.351-16.597a14.15 14.15 0 00-1.477-1.567zm8.965 23.234c-.012.45-.035.883-.055 1.332-.18 4.242.488 8.883 1.149 13.371.433 2.992.87 6.012 1.07 8.969.023-.168.043-.328.055-.5.093-2.403 0-4.828-.098-7.012l-.23-5.68c-.458-3.523-1.137-7.03-1.891-10.492zM3.18 29.687c.37 6.778.965 13.586 1.75 20.356-.36-6.246-.551-12.504-.551-18.684 0-3.191.062-6.617.508-9.906-.88 2.746-1.41 5.598-1.707 8.235zm.039 16.184c.11.586.234 1.191.375 1.82-.266-2.46-.512-4.918-.723-7.386.074 1.851.2 3.715.348 5.578zm78.41-18.96c.5 2.202 1.012 4.425 1.469 6.671l-.352-8.566c-.234-5.786-.648-11.32-3.058-15.489-2.446-4.234-6.258-5.886-10.208-6.535.211.086.415.184.625.266 3.645 1.652 6.684 4.555 8.563 8.183 2.348 4.532 2.941 9.957 2.96 15.47zM17.28 4.811c-1.062.137-2.133.278-3.195.426-3.93.532-7.656 1.309-9.973 4.778C1.48 13.973 1.445 20.379 1.637 26.59c.066 2.012.129 4.043.222 6.086.055-.957.141-1.965.258-3.008-.074-1.32-.14-2.64-.191-3.961-.203-4.742-.246-10.129 1.867-13.863 2.156-3.817 5.875-4.914 9.484-5.711.649-.14 1.297-.278 1.946-.414.68-.332 1.367-.63 2.07-.895zm-4.98 2.63c-2.973.734-5.871 1.882-7.582 4.913-1.828 3.235-1.934 7.938-1.774 12.258.668-3.023 1.688-6.086 3.227-8.789.215-.605.445-1.203.71-1.765 1.352-2.926 3.243-5.055 5.419-6.618zm58.582-1.907a15.537 15.537 0 013.992 3.5c2.7 3.309 4.27 7.875 5.418 12.246-.352-3.36-1.106-6.55-2.57-9.363-1.743-3.36-4.547-6.063-7.891-7.625.36.383.711.797 1.04 1.234zM15.593 6.72c-1.952.965-3.78 2.242-5.3 3.988 2.254-2.012 4.812-3.395 7.488-4.437-.734.14-1.457.289-2.187.449zM61.91 2.484c2.09.371 4.227.86 6.242 1.68-.086-.074-.168-.148-.265-.215-.34-.273-.68-.508-1.032-.734a27.02 27.02 0 00-3.472-.692c-.496-.007-.996-.03-1.485-.039zM24.547 3.95c-.266.055-.52.11-.785.172.52-.086 1.027-.172 1.55-.254-.257.031-.511.051-.777.082zm0 0"/></g></g></g></svg>