<svg xmlns="http://www.w3.org/2000/svg" xmlns:xlink="http://www.w3.org/1999/xlink" viewBox="0 0 350 116.13"><defs><style>.cls-1{fill:#fff;}.cls-2{fill:url(#linear-gradient);}.cls-3{fill:#faf9f9;}</style><linearGradient id="linear-gradient" x1="41.46" y1="-2891.72" x2="31.39" y2="-2909.15" gradientTransform="matrix(1, 0, 0, -1, 0, -2836.49)" gradientUnits="userSpaceOnUse"><stop offset="0" stop-color="#fff" stop-opacity="0.4"/><stop offset="0.92" stop-color="#fff"/></linearGradient></defs><title>CORP-288 Refresh of Marketplace Partner Badge_CMYK_Marketplace Partner_Wht_nobg</title><g id="type"><rect class="cls-1" x="85.04" y="16.1" width="0.56" height="83.93"/><g id="Layer_2" data-name="Layer 2"><g id="Blue"><path class="cls-2" d="M36.23,52.29a1.1,1.1,0,0,0-1.88.2L24.81,71.56a1.15,1.15,0,0,0,.51,1.53,1.31,1.31,0,0,0,.51.12H39.11a1.11,1.11,0,0,0,1-.63C43,66.66,41.26,57.66,36.23,52.29Z"/><path class="cls-1" d="M43.22,34.94a25.14,25.14,0,0,0-1.46,24.83l6.4,12.81a1.15,1.15,0,0,0,1,.63H62.45a1.14,1.14,0,0,0,1.14-1.14,1.1,1.1,0,0,0-.12-.51S45.61,35.83,45.16,34.94A1.08,1.08,0,0,0,43.22,34.94Z"/><path class="cls-1" d="M41.5,78c0,.77.36,1.38,1.75,1.65.83.17,1,.3,1,.58s-.17.44-.76.44a4.32,4.32,0,0,1-2-.54v1.25a4.08,4.08,0,0,0,2,.43c1.45,0,2-.65,2-1.61m0,0c0-.91-.48-1.34-1.84-1.63-.75-.16-.93-.33-.93-.57s.27-.42.76-.42a4.3,4.3,0,0,1,1.76.43V76.8a3.94,3.94,0,0,0-1.72-.36c-1.34,0-2,.59-2,1.54"/><polygon class="cls-1" points="60.18 76.52 60.18 81.71 61.28 81.71 61.28 77.75 61.75 78.8 63.31 81.71 64.7 81.71 64.7 76.52 63.6 76.52 63.6 79.87 63.18 78.9 61.92 76.52 60.18 76.52"/><rect class="cls-1" x="51.94" y="76.52" width="1.21" height="5.19"/><path class="cls-1" d="M50.54,80.18c0-.91-.48-1.34-1.84-1.63-.75-.17-.93-.33-.93-.57s.27-.42.76-.42a4.15,4.15,0,0,1,1.76.43V76.8a3.94,3.94,0,0,0-1.72-.36c-1.34,0-2,.59-2,1.54,0,.77.35,1.38,1.74,1.64.83.18,1,.31,1,.59s-.17.44-.75.44a4.32,4.32,0,0,1-2-.54v1.24a4.09,4.09,0,0,0,2,.44c1.45,0,2-.65,2-1.61"/><polygon class="cls-1" points="32.12 76.52 32.12 81.71 34.6 81.71 34.99 80.59 33.33 80.59 33.33 76.52 32.12 76.52"/><polygon class="cls-1" points="27.21 76.52 27.21 77.64 28.55 77.64 28.55 81.71 29.77 81.71 29.77 77.64 31.2 77.64 31.2 76.52 27.21 76.52"/><path class="cls-1" d="M25.44,76.52H23.85L22,81.71h1.38l.26-.87a3.52,3.52,0,0,0,1.93,0l.26.87h1.38Zm-.79,3.38a2.52,2.52,0,0,1-.67-.09l.67-2.27.66,2.27A2.44,2.44,0,0,1,24.65,79.9Z"/><path class="cls-1" d="M38.88,76.52H37.29l-1.81,5.19h1.38l.26-.87a3.52,3.52,0,0,0,1.93,0l.26.87h1.38Zm-.79,3.38a2.52,2.52,0,0,1-.67-.09l.67-2.27.66,2.27a2.5,2.5,0,0,1-.66.09Z"/><path class="cls-1" d="M57.5,76.52H55.91L54.1,81.71h1.38l.25-.87a3.55,3.55,0,0,0,1.94,0l.26.87h1.38Zm-.8,3.38a2.44,2.44,0,0,1-.66-.09l.66-2.27.67,2.27a2.52,2.52,0,0,1-.67.09Z"/></g></g><path class="cls-3" d="M104.36,49.9V65.58H102V48.5h4L110,58.3,111.53,63l1.59-4.71,3.9-9.8h3.77V65.58h-2.34V50.09l-2,6.16-3.77,9.33h-2.27l-3.71-9.33Z"/><path class="cls-3" d="M133.35,63.24a4.59,4.59,0,0,1-4.4,2.6c-3.46,0-5.2-2.93-5.2-6.76,0-3.66,1.82-6.76,5.46-6.76a4.27,4.27,0,0,1,4.14,2.55V52.58h2.23v13h-2.23Zm-3.8.52c2,0,3.8-1.27,3.8-4.16v-1c0-2.88-1.64-4.16-3.54-4.16-2.52,0-3.82,1.67-3.82,4.68S127.24,63.76,129.55,63.76Z"/><path class="cls-3" d="M141.15,65.58H139v-13h2.19v2.29a4.28,4.28,0,0,1,4.6-2.47v2.19c-2.86-.29-4.6.57-4.6,3.32Z"/><path class="cls-3" d="M147.67,65.58V47.15h2.24V58.67l5.59-6.09h2.91L152.3,59l6.37,6.6h-3l-5.72-6.08v6.08Z"/><path class="cls-3" d="M166.08,65.84c-4.86,0-7-2.8-7-6.78s2.18-6.74,6.13-6.74,5.62,2.79,5.62,6.74v1h-9.49c.31,2.21,1.74,3.64,4.81,3.64a11.41,11.41,0,0,0,4-.7v2.05A9.33,9.33,0,0,1,166.08,65.84Zm-4.76-7.69h7.26c-.13-2.42-1.23-3.8-3.46-3.8S161.56,55.88,161.32,58.15Z"/><path class="cls-3" d="M178.64,63.48a7.71,7.71,0,0,0,1.4-.18v2.15a5.14,5.14,0,0,1-1.51.21c-2.78,0-4.13-1.64-4.13-4v-7h-2.11V52.58h2.11V49.83h2.18v2.75H180v2.08h-3.46v6.89A1.82,1.82,0,0,0,178.64,63.48Z"/><path class="cls-3" d="M185.14,63.3v7.35H182.9V52.58h2.24v2.34a4.58,4.58,0,0,1,4.39-2.6c3.46,0,5.2,2.94,5.2,6.76s-1.82,6.76-5.46,6.76A4.25,4.25,0,0,1,185.14,63.3Zm3.79-8.9c-2,0-3.79,1.28-3.79,4.16v1c0,2.89,1.64,4.16,3.53,4.16,2.53,0,3.83-1.66,3.83-4.68S191.25,54.4,188.93,54.4Z"/><path class="cls-3" d="M200.82,65.66c-2.14,0-3.49-1-3.49-3.4V47.15h2.24V62c0,1.17.78,1.58,1.74,1.58a4.94,4.94,0,0,0,.65,0v2A4.89,4.89,0,0,1,200.82,65.66Z"/><path class="cls-3" d="M212.8,63.24a4.57,4.57,0,0,1-4.39,2.6c-3.46,0-5.2-2.93-5.2-6.76,0-3.66,1.82-6.76,5.46-6.76a4.26,4.26,0,0,1,4.13,2.55V52.58H215v13H212.8Zm-3.8.52c2,0,3.8-1.27,3.8-4.16v-1c0-2.88-1.64-4.16-3.54-4.16-2.52,0-3.82,1.67-3.82,4.68S206.69,63.76,209,63.76Z"/><path class="cls-3" d="M227.59,65.25a7.27,7.27,0,0,1-3.17.59c-4.63,0-6.78-2.8-6.78-6.78s2.15-6.74,6.78-6.74a6.89,6.89,0,0,1,3.1.63V55a6.59,6.59,0,0,0-2.94-.63c-3.38,0-4.76,2.14-4.76,4.66s1.4,4.65,4.81,4.65a8.06,8.06,0,0,0,3-.47Z"/><path class="cls-3" d="M236.36,65.84c-4.87,0-7-2.8-7-6.78s2.19-6.74,6.14-6.74,5.62,2.79,5.62,6.74v1h-9.5c.32,2.21,1.75,3.64,4.81,3.64a11.46,11.46,0,0,0,4-.7v2.05A9.36,9.36,0,0,1,236.36,65.84Zm-4.76-7.69h7.25c-.13-2.42-1.22-3.8-3.46-3.8S231.83,55.88,231.6,58.15Z"/><path class="cls-3" d="M254.69,60h-3.41v5.59h-2.34V48.5h5.75c4.26,0,6.34,2.19,6.34,5.7C261,57.91,259,60,254.69,60Zm3.92-5.74c0-2.08-1.17-3.51-4.18-3.51h-3.15v7h3.15C257.44,57.86,258.61,56.43,258.61,54.25Z"/><path class="cls-3" d="M271.9,63.24a4.57,4.57,0,0,1-4.4,2.6c-3.45,0-5.2-2.93-5.2-6.76,0-3.66,1.82-6.76,5.46-6.76a4.27,4.27,0,0,1,4.14,2.55V52.58h2.23v13H271.9Zm-3.8.52c2,0,3.8-1.27,3.8-4.16v-1c0-2.88-1.64-4.16-3.54-4.16-2.52,0-3.82,1.67-3.82,4.68S265.79,63.76,268.1,63.76Z"/><path class="cls-3" d="M279.7,65.58h-2.19v-13h2.19v2.29a4.28,4.28,0,0,1,4.6-2.47v2.19c-2.86-.29-4.6.57-4.6,3.32Z"/><path class="cls-3" d="M291.37,63.48a7.83,7.83,0,0,0,1.41-.18v2.15a5.19,5.19,0,0,1-1.51.21c-2.78,0-4.14-1.64-4.14-4v-7H285V52.58h2.1V49.83h2.19v2.75h3.46v2.08h-3.46v6.89A1.81,1.81,0,0,0,291.37,63.48Z"/><path class="cls-3" d="M306.69,65.58h-2.24V57.73c0-2.34-.94-3.38-3.07-3.38s-3.51,1.38-3.51,4v7.22h-2.23v-13h2.23v2.13A4.57,4.57,0,0,1,302,52.32c3,0,4.71,2.06,4.71,5.64Z"/><path class="cls-3" d="M316,65.84c-4.86,0-7-2.8-7-6.78s2.18-6.74,6.13-6.74,5.62,2.79,5.62,6.74v1h-9.49c.31,2.21,1.74,3.64,4.81,3.64a11.41,11.41,0,0,0,3.95-.7v2.05A9.33,9.33,0,0,1,316,65.84Zm-4.76-7.69h7.26c-.13-2.42-1.23-3.8-3.46-3.8S311.5,55.88,311.26,58.15Z"/><path class="cls-3" d="M325.61,65.58h-2.18v-13h2.18v2.29a4.3,4.3,0,0,1,4.6-2.47v2.19c-2.85-.29-4.6.57-4.6,3.32Z"/></g></svg>