<svg xmlns="http://www.w3.org/2000/svg" xmlns:xlink="http://www.w3.org/1999/xlink" width="800" zoomAndPan="magnify" viewBox="0 0 600 599.999999" height="800" preserveAspectRatio="xMidYMid meet" version="1.0"><defs><clipPath id="87ed6564c7"><path d="M 60 284 L 555.234375 284 L 555.234375 468.46875 L 60 468.46875 Z M 60 284 " clip-rule="nonzero"/></clipPath><clipPath id="2f8c8bbea6"><path d="M 161.742188 284.316406 L 547.589844 284.316406 C 550.214844 284.316406 552.648438 285.679688 554.019531 287.917969 C 555.386719 290.15625 555.496094 292.945312 554.300781 295.28125 L 471.367188 457.503906 C 467.929688 464.234375 461.007812 468.46875 453.445312 468.46875 L 67.597656 468.46875 C 64.976562 468.46875 62.539062 467.105469 61.171875 464.867188 C 59.800781 462.628906 59.695312 459.839844 60.890625 457.503906 L 143.820312 295.28125 C 147.261719 288.550781 154.183594 284.316406 161.742188 284.316406 Z M 161.742188 284.316406 " clip-rule="nonzero"/></clipPath><clipPath id="a1cf44f9c2"><path d="M 99 131 L 595.339844 131 L 595.339844 315.683594 L 99 315.683594 Z M 99 131 " clip-rule="nonzero"/></clipPath><clipPath id="29e30ed5a5"><path d="M 201.128906 131.53125 L 587.683594 131.53125 C 590.308594 131.53125 592.742188 132.894531 594.113281 135.132812 C 595.480469 137.371094 595.589844 140.160156 594.394531 142.496094 L 511.464844 304.71875 C 508.023438 311.449219 501.101562 315.683594 493.539062 315.683594 L 106.988281 315.683594 C 104.363281 315.683594 101.929688 314.320312 100.558594 312.082031 C 99.1875 309.84375 99.082031 307.054688 100.277344 304.71875 L 183.207031 142.496094 C 186.648438 135.765625 193.570312 131.53125 201.128906 131.53125 Z M 201.128906 131.53125 " clip-rule="nonzero"/></clipPath><clipPath id="e7a1ba86b2"><path d="M 4.316406 207.921875 L 499.949219 207.921875 L 499.949219 392.078125 L 4.316406 392.078125 Z M 4.316406 207.921875 " clip-rule="nonzero"/></clipPath><clipPath id="4a0081aedb"><path d="M 106.492188 207.921875 L 492.273438 207.921875 C 494.90625 207.921875 497.347656 209.292969 498.71875 211.535156 C 500.09375 213.777344 500.199219 216.574219 499.003906 218.917969 L 416.101562 381.082031 C 412.652344 387.832031 405.710938 392.078125 398.132812 392.078125 L 12.347656 392.078125 C 9.71875 392.078125 7.277344 390.707031 5.902344 388.464844 C 4.53125 386.222656 4.421875 383.425781 5.621094 381.082031 L 88.523438 218.917969 C 91.972656 212.167969 98.914062 207.921875 106.492188 207.921875 Z M 106.492188 207.921875 " clip-rule="nonzero"/></clipPath></defs><g clip-path="url(#87ed6564c7)"><g clip-path="url(#2f8c8bbea6)"><path fill="#bea2f6" d="M 55.28125 284.316406 L 559.550781 284.316406 L 559.550781 468.46875 L 55.28125 468.46875 Z M 55.28125 284.316406 " fill-opacity="1" fill-rule="nonzero"/></g></g><g clip-path="url(#a1cf44f9c2)"><g clip-path="url(#29e30ed5a5)"><path fill="#8c52ff" d="M 94.671875 131.53125 L 599.65625 131.53125 L 599.65625 315.683594 L 94.671875 315.683594 Z M 94.671875 131.53125 " fill-opacity="1" fill-rule="nonzero"/></g></g><g clip-path="url(#e7a1ba86b2)"><g clip-path="url(#4a0081aedb)"><path fill="#5e17eb" d="M 0 207.921875 L 504.265625 207.921875 L 504.265625 392.078125 L 0 392.078125 Z M 0 207.921875 " fill-opacity="1" fill-rule="nonzero"/></g></g></svg>