<svg xmlns="http://www.w3.org/2000/svg" xmlns:xlink="http://www.w3.org/1999/xlink" width="800" zoomAndPan="magnify" viewBox="0 0 600 599.999999" height="800" preserveAspectRatio="xMidYMid meet" version="1.0"><defs><clipPath id="3fd57fdae3"><path d="M 95.242188 286.601562 L 517.425781 286.601562 L 517.425781 443.921875 L 95.242188 443.921875 Z M 95.242188 286.601562 " clip-rule="nonzero"/></clipPath><clipPath id="b029535417"><path d="M 183.683594 286.601562 L 509.71875 286.601562 C 512.339844 286.601562 514.777344 287.964844 516.144531 290.203125 C 517.515625 292.441406 517.621094 295.230469 516.425781 297.566406 L 447.214844 432.953125 C 443.773438 439.6875 436.851562 443.921875 429.292969 443.921875 L 103.257812 443.921875 C 100.632812 443.921875 98.199219 442.554688 96.832031 440.316406 C 95.460938 438.082031 95.355469 435.289062 96.546875 432.953125 L 165.761719 297.566406 C 169.203125 290.835938 176.125 286.601562 183.683594 286.601562 Z M 183.683594 286.601562 " clip-rule="nonzero"/></clipPath><clipPath id="be27648587"><path d="M 129 156.078125 L 551.6875 156.078125 L 551.6875 313.398438 L 129 313.398438 Z M 129 156.078125 " clip-rule="nonzero"/></clipPath><clipPath id="9d694f0ffa"><path d="M 217.332031 156.078125 L 543.96875 156.078125 C 546.59375 156.078125 549.027344 157.445312 550.398438 159.683594 C 551.765625 161.917969 551.875 164.710938 550.679688 167.046875 L 481.464844 302.433594 C 478.023438 309.164062 471.101562 313.398438 463.542969 313.398438 L 136.90625 313.398438 C 134.28125 313.398438 131.847656 312.035156 130.476562 309.796875 C 129.109375 307.558594 129.003906 304.769531 130.195312 302.433594 L 199.410156 167.046875 C 202.851562 160.316406 209.773438 156.078125 217.332031 156.078125 Z M 217.332031 156.078125 " clip-rule="nonzero"/></clipPath><clipPath id="ba73a6d4b2"><path d="M 48.015625 221.339844 L 470.199219 221.339844 L 470.199219 378.660156 L 48.015625 378.660156 Z M 48.015625 221.339844 " clip-rule="nonzero"/></clipPath><clipPath id="9886810335"><path d="M 136.488281 221.339844 L 462.457031 221.339844 C 465.089844 221.339844 467.53125 222.707031 468.902344 224.953125 C 470.277344 227.195312 470.382812 229.992188 469.183594 232.335938 L 400.003906 367.664062 C 396.550781 374.414062 389.613281 378.660156 382.03125 378.660156 L 56.0625 378.660156 C 53.433594 378.660156 50.992188 377.292969 49.617188 375.046875 C 48.246094 372.804688 48.136719 370.007812 49.335938 367.664062 L 118.519531 232.335938 C 121.96875 225.585938 128.910156 221.339844 136.488281 221.339844 Z M 136.488281 221.339844 " clip-rule="nonzero"/></clipPath></defs><g clip-path="url(#3fd57fdae3)"><g clip-path="url(#b029535417)"><path fill="#bea2f6" d="M 90.941406 286.601562 L 521.726562 286.601562 L 521.726562 443.921875 L 90.941406 443.921875 Z M 90.941406 286.601562 " fill-opacity="1" fill-rule="nonzero"/></g></g><g clip-path="url(#be27648587)"><g clip-path="url(#9d694f0ffa)"><path fill="#8c52ff" d="M 124.589844 156.078125 L 555.992188 156.078125 L 555.992188 313.398438 L 124.589844 313.398438 Z M 124.589844 156.078125 " fill-opacity="1" fill-rule="nonzero"/></g></g><g clip-path="url(#ba73a6d4b2)"><g clip-path="url(#9886810335)"><path fill="#5e17eb" d="M 43.714844 221.339844 L 474.5 221.339844 L 474.5 378.660156 L 43.714844 378.660156 Z M 43.714844 221.339844 " fill-opacity="1" fill-rule="nonzero"/></g></g></svg>