<svg xmlns="http://www.w3.org/2000/svg" xmlns:xlink="http://www.w3.org/1999/xlink" width="800" zoomAndPan="magnify" viewBox="0 0 600 599.999999" height="800" preserveAspectRatio="xMidYMid meet" version="1.0"><defs><clipPath id="1d91e9944b"><path d="M 44.226562 219.023438 L 475.480469 219.023438 L 475.480469 380.351562 L 44.226562 380.351562 Z M 44.226562 219.023438 " clip-rule="nonzero"/></clipPath><clipPath id="c9a56af9ea"><path d="M 134.335938 219.648438 L 467.839844 219.648438 C 470.46875 219.648438 472.910156 221.019531 474.285156 223.261719 C 475.65625 225.507812 475.765625 228.300781 474.566406 230.644531 L 403.65625 369.355469 C 400.207031 376.101562 393.265625 380.351562 385.6875 380.351562 L 52.183594 380.351562 C 49.550781 380.351562 47.109375 378.980469 45.738281 376.738281 C 44.363281 374.492188 44.257812 371.699219 45.453125 369.355469 L 116.367188 230.644531 C 119.816406 223.898438 126.757812 219.648438 134.335938 219.648438 Z M 134.335938 219.648438 " clip-rule="nonzero"/></clipPath><clipPath id="6d02e14836"><path d="M 90.238281 285 L 521.492188 285 L 521.492188 446.105469 L 90.238281 446.105469 Z M 90.238281 285 " clip-rule="nonzero"/></clipPath><clipPath id="3cc5c235bb"><path d="M 180.347656 285.402344 L 513.851562 285.402344 C 516.480469 285.402344 518.921875 286.773438 520.292969 289.015625 C 521.667969 291.261719 521.773438 294.054688 520.578125 296.398438 L 449.667969 435.109375 C 446.214844 441.855469 439.277344 446.105469 431.695312 446.105469 L 98.195312 446.105469 C 95.5625 446.105469 93.121094 444.734375 91.75 442.492188 C 90.375 440.246094 90.269531 437.453125 91.464844 435.109375 L 162.378906 296.398438 C 165.828125 289.652344 172.765625 285.402344 180.347656 285.402344 Z M 180.347656 285.402344 " clip-rule="nonzero"/></clipPath><clipPath id="49e4c36889"><path d="M 125 154 L 556 154 L 556 314.882812 L 125 314.882812 Z M 125 154 " clip-rule="nonzero"/></clipPath><clipPath id="b0818f62b9"><path d="M 214.894531 154.183594 L 548.398438 154.183594 C 551.027344 154.183594 553.46875 155.554688 554.84375 157.796875 C 556.214844 160.039062 556.324219 162.835938 555.125 165.179688 L 484.214844 303.890625 C 480.765625 310.636719 473.824219 314.882812 466.246094 314.882812 L 132.742188 314.882812 C 130.109375 314.882812 127.671875 313.515625 126.296875 311.273438 C 124.925781 309.027344 124.816406 306.230469 126.015625 303.890625 L 196.925781 165.179688 C 200.375 158.429688 207.316406 154.183594 214.894531 154.183594 Z M 214.894531 154.183594 " clip-rule="nonzero"/></clipPath><clipPath id="a88c926c94"><path d="M 95.242188 286.601562 L 517.425781 286.601562 L 517.425781 443.921875 L 95.242188 443.921875 Z M 95.242188 286.601562 " clip-rule="nonzero"/></clipPath><clipPath id="5acbd44f37"><path d="M 183.683594 286.601562 L 509.71875 286.601562 C 512.339844 286.601562 514.777344 287.964844 516.144531 290.203125 C 517.515625 292.441406 517.621094 295.230469 516.425781 297.566406 L 447.214844 432.953125 C 443.773438 439.683594 436.851562 443.921875 429.292969 443.921875 L 103.257812 443.921875 C 100.632812 443.921875 98.199219 442.554688 96.832031 440.316406 C 95.460938 438.082031 95.355469 435.289062 96.546875 432.953125 L 165.761719 297.566406 C 169.203125 290.835938 176.125 286.601562 183.683594 286.601562 Z M 183.683594 286.601562 " clip-rule="nonzero"/></clipPath><clipPath id="486fd5ddc6"><path d="M 129 156.078125 L 551.6875 156.078125 L 551.6875 313.398438 L 129 313.398438 Z M 129 156.078125 " clip-rule="nonzero"/></clipPath><clipPath id="0eb835e851"><path d="M 217.332031 156.078125 L 543.96875 156.078125 C 546.59375 156.078125 549.027344 157.445312 550.398438 159.683594 C 551.765625 161.917969 551.875 164.710938 550.679688 167.046875 L 481.464844 302.433594 C 478.023438 309.164062 471.101562 313.398438 463.542969 313.398438 L 136.90625 313.398438 C 134.28125 313.398438 131.847656 312.035156 130.476562 309.796875 C 129.109375 307.558594 129.003906 304.769531 130.195312 302.433594 L 199.410156 167.046875 C 202.851562 160.316406 209.773438 156.078125 217.332031 156.078125 Z M 217.332031 156.078125 " clip-rule="nonzero"/></clipPath><clipPath id="b599b10cd9"><path d="M 48.015625 221.339844 L 470.199219 221.339844 L 470.199219 378.660156 L 48.015625 378.660156 Z M 48.015625 221.339844 " clip-rule="nonzero"/></clipPath><clipPath id="883bc92c40"><path d="M 136.488281 221.339844 L 462.457031 221.339844 C 465.089844 221.339844 467.53125 222.707031 468.902344 224.953125 C 470.277344 227.195312 470.382812 229.992188 469.183594 232.335938 L 400.003906 367.664062 C 396.550781 374.414062 389.613281 378.660156 382.03125 378.660156 L 56.0625 378.660156 C 53.433594 378.660156 50.992188 377.292969 49.617188 375.046875 C 48.246094 372.804688 48.136719 370.007812 49.335938 367.664062 L 118.519531 232.335938 C 121.96875 225.585938 128.910156 221.339844 136.488281 221.339844 Z M 136.488281 221.339844 " clip-rule="nonzero"/></clipPath></defs><g clip-path="url(#1d91e9944b)"><g clip-path="url(#c9a56af9ea)"><path fill="#ffffff" d="M 39.835938 219.648438 L 479.875 219.648438 L 479.875 380.351562 L 39.835938 380.351562 Z M 39.835938 219.648438 " fill-opacity="1" fill-rule="nonzero"/></g></g><g clip-path="url(#6d02e14836)"><g clip-path="url(#3cc5c235bb)"><path fill="#ffffff" d="M 85.84375 285.402344 L 525.886719 285.402344 L 525.886719 446.105469 L 85.84375 446.105469 Z M 85.84375 285.402344 " fill-opacity="1" fill-rule="nonzero"/></g></g><g clip-path="url(#49e4c36889)"><g clip-path="url(#b0818f62b9)"><path fill="#ffffff" d="M 120.394531 154.183594 L 560.433594 154.183594 L 560.433594 314.882812 L 120.394531 314.882812 Z M 120.394531 154.183594 " fill-opacity="1" fill-rule="nonzero"/></g></g><g clip-path="url(#a88c926c94)"><g clip-path="url(#5acbd44f37)"><path fill="#bea2f6" d="M 90.941406 286.601562 L 521.726562 286.601562 L 521.726562 443.921875 L 90.941406 443.921875 Z M 90.941406 286.601562 " fill-opacity="1" fill-rule="nonzero"/></g></g><g clip-path="url(#486fd5ddc6)"><g clip-path="url(#0eb835e851)"><path fill="#8c52ff" d="M 124.589844 156.078125 L 555.992188 156.078125 L 555.992188 313.398438 L 124.589844 313.398438 Z M 124.589844 156.078125 " fill-opacity="1" fill-rule="nonzero"/></g></g><g clip-path="url(#b599b10cd9)"><g clip-path="url(#883bc92c40)"><path fill="#5e17eb" d="M 43.714844 221.339844 L 474.5 221.339844 L 474.5 378.660156 L 43.714844 378.660156 Z M 43.714844 221.339844 " fill-opacity="1" fill-rule="nonzero"/></g></g></svg>